{"glyphs":{"0":{"ha":867,"x_min":67,"x_max":800,"o":"m 200 250 l 183 233 l 200 217 l 183 200 l 167 217 l 150 200 l 133 217 l 150 233 l 133 250 l 150 267 l 167 250 l 183 267 l 200 250 m 200 317 l 183 300 l 200 283 l 183 267 l 167 283 l 150 267 l 133 283 l 150 300 l 133 317 l 150 333 l 167 317 l 183 333 l 200 317 m 200 450 l 183 433 l 200 417 l 183 400 l 167 417 l 150 400 l 133 417 l 150 433 l 133 450 l 150 467 l 167 450 l 183 467 l 200 450 m 133 450 l 117 433 l 133 417 l 117 400 l 100 417 l 83 400 l 67 417 l 83 433 l 67 450 l 83 467 l 100 450 l 117 467 l 133 450 m 200 383 l 183 367 l 200 350 l 183 333 l 167 350 l 150 333 l 133 350 l 150 367 l 133 383 l 150 400 l 167 383 l 183 400 l 200 383 m 133 383 l 117 367 l 133 350 l 117 333 l 100 350 l 83 333 l 67 350 l 83 367 l 67 383 l 83 400 l 100 383 l 117 400 l 133 383 m 200 517 l 183 500 l 200 483 l 183 467 l 167 483 l 150 467 l 133 483 l 150 500 l 133 517 l 150 533 l 167 517 l 183 533 l 200 517 m 200 583 l 183 567 l 200 550 l 183 533 l 167 550 l 150 533 l 133 550 l 150 567 l 133 583 l 150 600 l 167 583 l 183 600 l 200 583 m 200 717 l 183 700 l 200 683 l 183 667 l 167 683 l 150 667 l 133 683 l 150 700 l 133 717 l 150 733 l 167 717 l 183 733 l 200 717 m 200 650 l 183 633 l 200 617 l 183 600 l 167 617 l 150 600 l 133 617 l 150 633 l 133 650 l 150 667 l 167 650 l 183 667 l 200 650 m 333 117 l 317 100 l 333 83 l 317 67 l 300 83 l 283 67 l 267 83 l 283 100 l 267 117 l 283 133 l 300 117 l 317 133 l 333 117 m 333 183 l 317 167 l 333 150 l 317 133 l 300 150 l 283 133 l 267 150 l 283 167 l 267 183 l 283 200 l 300 183 l 317 200 l 333 183 m 267 183 l 250 167 l 267 150 l 250 133 l 233 150 l 217 133 l 200 150 l 217 167 l 200 183 l 217 200 l 233 183 l 250 200 l 267 183 m 333 250 l 317 233 l 333 217 l 317 200 l 300 217 l 283 200 l 267 217 l 283 233 l 267 250 l 283 267 l 300 250 l 317 267 l 333 250 m 267 250 l 250 233 l 267 217 l 250 200 l 233 217 l 217 200 l 200 217 l 217 233 l 200 250 l 217 267 l 233 250 l 250 267 l 267 250 m 267 317 l 250 300 l 267 283 l 250 267 l 233 283 l 217 267 l 200 283 l 217 300 l 200 317 l 217 333 l 233 317 l 250 333 l 267 317 m 333 317 l 317 300 l 333 283 l 317 267 l 300 283 l 283 267 l 267 283 l 283 300 l 267 317 l 283 333 l 300 317 l 317 333 l 333 317 m 267 450 l 250 433 l 267 417 l 250 400 l 233 417 l 217 400 l 200 417 l 217 433 l 200 450 l 217 467 l 233 450 l 250 467 l 267 450 m 267 383 l 250 367 l 267 350 l 250 333 l 233 350 l 217 333 l 200 350 l 217 367 l 200 383 l 217 400 l 233 383 l 250 400 l 267 383 m 133 517 l 117 500 l 133 483 l 117 467 l 100 483 l 83 467 l 67 483 l 83 500 l 67 517 l 83 533 l 100 517 l 117 533 l 133 517 m 400 117 l 383 100 l 400 83 l 383 67 l 367 83 l 350 67 l 333 83 l 350 100 l 333 117 l 350 133 l 367 117 l 383 133 l 400 117 m 400 183 l 383 167 l 400 150 l 383 133 l 367 150 l 350 133 l 333 150 l 350 167 l 333 183 l 350 200 l 367 183 l 383 200 l 400 183 m 400 917 l 383 900 l 400 883 l 383 867 l 367 883 l 350 867 l 333 883 l 350 900 l 333 917 l 350 933 l 367 917 l 383 933 l 400 917 m 335 849 l 318 832 l 335 815 l 318 799 l 301 815 l 285 799 l 268 815 l 285 832 l 268 849 l 285 865 l 301 849 l 318 865 l 335 849 m 467 117 l 450 100 l 467 83 l 450 67 l 433 83 l 417 67 l 400 83 l 417 100 l 400 117 l 417 133 l 433 117 l 450 133 l 467 117 m 400 50 l 383 33 l 400 17 l 383 0 l 367 17 l 350 0 l 333 17 l 350 33 l 333 50 l 350 67 l 367 50 l 383 67 l 400 50 m 467 917 l 450 900 l 467 883 l 450 867 l 433 883 l 417 867 l 400 883 l 417 900 l 400 917 l 417 933 l 433 917 l 450 933 l 467 917 m 467 983 l 450 967 l 467 950 l 450 933 l 433 950 l 417 933 l 400 950 l 417 967 l 400 983 l 417 1000 l 433 983 l 450 1000 l 467 983 m 400 850 l 383 833 l 400 817 l 383 800 l 367 817 l 350 800 l 333 817 l 350 833 l 333 850 l 350 867 l 367 850 l 383 867 l 400 850 m 533 117 l 517 100 l 533 83 l 517 67 l 500 83 l 483 67 l 467 83 l 483 100 l 467 117 l 483 133 l 500 117 l 517 133 l 533 117 m 467 50 l 450 33 l 467 17 l 450 0 l 433 17 l 417 0 l 400 17 l 417 33 l 400 50 l 417 67 l 433 50 l 450 67 l 467 50 m 600 117 l 583 100 l 600 83 l 583 67 l 567 83 l 550 67 l 533 83 l 550 100 l 533 117 l 550 133 l 567 117 l 583 133 l 600 117 m 600 183 l 583 167 l 600 150 l 583 133 l 567 150 l 550 133 l 533 150 l 550 167 l 533 183 l 550 200 l 567 183 l 583 200 l 600 183 m 533 917 l 517 900 l 533 883 l 517 867 l 500 883 l 483 867 l 467 883 l 483 900 l 467 917 l 483 933 l 500 917 l 517 933 l 533 917 m 600 917 l 583 900 l 600 883 l 583 867 l 567 883 l 550 867 l 533 883 l 550 900 l 533 917 l 550 933 l 567 917 l 583 933 l 600 917 m 600 850 l 583 833 l 600 817 l 583 800 l 567 817 l 550 800 l 533 817 l 550 833 l 533 850 l 550 867 l 567 850 l 583 867 l 600 850 m 533 850 l 517 833 l 533 817 l 517 800 l 500 817 l 483 800 l 467 817 l 483 833 l 467 850 l 483 867 l 500 850 l 517 867 l 533 850 m 600 783 l 583 767 l 600 750 l 583 733 l 567 750 l 550 733 l 533 750 l 550 767 l 533 783 l 550 800 l 567 783 l 583 800 l 600 783 m 667 183 l 650 167 l 667 150 l 650 133 l 633 150 l 617 133 l 600 150 l 617 167 l 600 183 l 617 200 l 633 183 l 650 200 l 667 183 m 733 250 l 717 233 l 733 217 l 717 200 l 700 217 l 683 200 l 667 217 l 683 233 l 667 250 l 683 267 l 700 250 l 717 267 l 733 250 m 667 250 l 650 233 l 667 217 l 650 200 l 633 217 l 617 200 l 600 217 l 617 233 l 600 250 l 617 267 l 633 250 l 650 267 l 667 250 m 733 317 l 717 300 l 733 283 l 717 267 l 700 283 l 683 267 l 667 283 l 683 300 l 667 317 l 683 333 l 700 317 l 717 333 l 733 317 m 733 450 l 717 433 l 733 417 l 717 400 l 700 417 l 683 400 l 667 417 l 683 433 l 667 450 l 683 467 l 700 450 l 717 467 l 733 450 m 733 383 l 717 367 l 733 350 l 717 333 l 700 350 l 683 333 l 667 350 l 683 367 l 667 383 l 683 400 l 700 383 l 717 400 l 733 383 m 733 517 l 717 500 l 733 483 l 717 467 l 700 483 l 683 467 l 667 483 l 683 500 l 667 517 l 683 533 l 700 517 l 717 533 l 733 517 m 733 583 l 717 567 l 733 550 l 717 533 l 700 550 l 683 533 l 667 550 l 683 567 l 667 583 l 683 600 l 700 583 l 717 600 l 733 583 m 667 850 l 650 833 l 667 817 l 650 800 l 633 817 l 617 800 l 600 817 l 617 833 l 600 850 l 617 867 l 633 850 l 650 867 l 667 850 m 667 783 l 650 767 l 667 750 l 650 733 l 633 750 l 617 733 l 600 750 l 617 767 l 600 783 l 617 800 l 633 783 l 650 800 l 667 783 m 733 783 l 717 767 l 733 750 l 717 733 l 700 750 l 683 733 l 667 750 l 683 767 l 667 783 l 683 800 l 700 783 l 717 800 l 733 783 m 667 717 l 650 700 l 667 683 l 650 667 l 633 683 l 617 667 l 600 683 l 617 700 l 600 717 l 617 733 l 633 717 l 650 733 l 667 717 m 733 717 l 717 700 l 733 683 l 717 667 l 700 683 l 683 667 l 667 683 l 683 700 l 667 717 l 683 733 l 700 717 l 717 733 l 733 717 m 733 650 l 717 633 l 733 617 l 717 600 l 700 617 l 683 600 l 667 617 l 683 633 l 667 650 l 683 667 l 700 650 l 717 667 l 733 650 m 800 450 l 783 433 l 800 417 l 783 400 l 767 417 l 750 400 l 733 417 l 750 433 l 733 450 l 750 467 l 767 450 l 783 467 l 800 450 m 800 383 l 783 367 l 800 350 l 783 333 l 767 350 l 750 333 l 733 350 l 750 367 l 733 383 l 750 400 l 767 383 l 783 400 l 800 383 m 800 650 l 783 633 l 800 617 l 783 600 l 767 617 l 750 600 l 733 617 l 750 633 l 733 650 l 750 667 l 767 650 l 783 667 l 800 650 m 800 583 l 783 567 l 800 550 l 783 533 l 767 550 l 750 533 l 733 550 l 750 567 l 733 583 l 750 600 l 767 583 l 783 600 l 800 583 m 800 517 l 783 500 l 800 483 l 783 467 l 767 483 l 750 467 l 733 483 l 750 500 l 733 517 l 750 533 l 767 517 l 783 533 l 800 517 m 267 783 l 250 767 l 267 750 l 250 733 l 233 750 l 217 733 l 200 750 l 217 767 l 200 783 l 217 800 l 233 783 l 250 800 l 267 783 m 267 717 l 250 700 l 267 683 l 250 667 l 233 683 l 217 667 l 200 683 l 217 700 l 200 717 l 217 733 l 233 717 l 250 733 l 267 717 m 533 983 l 517 967 l 533 950 l 517 933 l 500 950 l 483 933 l 467 950 l 483 967 l 467 983 l 483 1000 l 500 983 l 517 1000 l 533 983 m 467 850 l 450 833 l 467 817 l 450 800 l 433 817 l 417 800 l 400 817 l 417 833 l 400 850 l 417 867 l 433 850 l 450 867 l 467 850 m 600 583 l 583 567 l 600 550 l 583 533 l 567 550 l 550 533 l 533 550 l 550 567 l 533 583 l 550 600 l 567 583 l 583 600 l 600 583 m 533 517 l 517 500 l 533 483 l 517 467 l 500 483 l 483 467 l 467 483 l 483 500 l 467 517 l 483 533 l 500 517 l 517 533 l 533 517 m 467 450 l 450 433 l 467 417 l 450 400 l 433 417 l 417 400 l 400 417 l 417 433 l 400 450 l 417 467 l 433 450 l 450 467 l 467 450 m 400 383 l 383 367 l 400 350 l 383 333 l 367 350 l 350 333 l 333 350 l 350 367 l 333 383 l 350 400 l 367 383 l 383 400 l 400 383 m 667 650 l 650 633 l 667 617 l 650 600 l 633 617 l 617 600 l 600 617 l 617 633 l 600 650 l 617 667 l 633 650 l 650 667 l 667 650 z "},"1":{"ha":400,"x_min":67,"x_max":400,"o":"m 400 183 l 383 167 l 400 150 l 383 133 l 367 150 l 350 133 l 333 150 l 350 167 l 333 183 l 350 200 l 367 183 l 383 200 l 400 183 m 267 117 l 250 100 l 267 83 l 250 67 l 233 83 l 217 67 l 200 83 l 217 100 l 200 117 l 217 133 l 233 117 l 250 133 l 267 117 m 267 50 l 250 33 l 267 17 l 250 0 l 233 17 l 217 0 l 200 17 l 217 33 l 200 50 l 217 67 l 233 50 l 250 67 l 267 50 m 333 117 l 317 100 l 333 83 l 317 67 l 300 83 l 283 67 l 267 83 l 283 100 l 267 117 l 283 133 l 300 117 l 317 133 l 333 117 m 333 183 l 317 167 l 333 150 l 317 133 l 300 150 l 283 133 l 267 150 l 283 167 l 267 183 l 283 200 l 300 183 l 317 200 l 333 183 m 267 183 l 250 167 l 267 150 l 250 133 l 233 150 l 217 133 l 200 150 l 217 167 l 200 183 l 217 200 l 233 183 l 250 200 l 267 183 m 333 250 l 317 233 l 333 217 l 317 200 l 300 217 l 283 200 l 267 217 l 283 233 l 267 250 l 283 267 l 300 250 l 317 267 l 333 250 m 267 250 l 250 233 l 267 217 l 250 200 l 233 217 l 217 200 l 200 217 l 217 233 l 200 250 l 217 267 l 233 250 l 250 267 l 267 250 m 267 317 l 250 300 l 267 283 l 250 267 l 233 283 l 217 267 l 200 283 l 217 300 l 200 317 l 217 333 l 233 317 l 250 333 l 267 317 m 333 317 l 317 300 l 333 283 l 317 267 l 300 283 l 283 267 l 267 283 l 283 300 l 267 317 l 283 333 l 300 317 l 317 333 l 333 317 m 333 450 l 317 433 l 333 417 l 317 400 l 300 417 l 283 400 l 267 417 l 283 433 l 267 450 l 283 467 l 300 450 l 317 467 l 333 450 m 267 450 l 250 433 l 267 417 l 250 400 l 233 417 l 217 400 l 200 417 l 217 433 l 200 450 l 217 467 l 233 450 l 250 467 l 267 450 m 333 383 l 317 367 l 333 350 l 317 333 l 300 350 l 283 333 l 267 350 l 283 367 l 267 383 l 283 400 l 300 383 l 317 400 l 333 383 m 267 383 l 250 367 l 267 350 l 250 333 l 233 350 l 217 333 l 200 350 l 217 367 l 200 383 l 217 400 l 233 383 l 250 400 l 267 383 m 333 517 l 317 500 l 333 483 l 317 467 l 300 483 l 283 467 l 267 483 l 283 500 l 267 517 l 283 533 l 300 517 l 317 533 l 333 517 m 333 583 l 317 567 l 333 550 l 317 533 l 300 550 l 283 533 l 267 550 l 283 567 l 267 583 l 283 600 l 300 583 l 317 600 l 333 583 m 267 917 l 250 900 l 267 883 l 250 867 l 233 883 l 217 867 l 200 883 l 217 900 l 200 917 l 217 933 l 233 917 l 250 933 l 267 917 m 333 917 l 317 900 l 333 883 l 317 867 l 300 883 l 283 867 l 267 883 l 283 900 l 267 917 l 283 933 l 300 917 l 317 933 l 333 917 m 333 850 l 317 833 l 333 817 l 317 800 l 300 817 l 283 800 l 267 817 l 283 833 l 267 850 l 283 867 l 300 850 l 317 867 l 333 850 m 267 850 l 250 833 l 267 817 l 250 800 l 233 817 l 217 800 l 200 817 l 217 833 l 200 850 l 217 867 l 233 850 l 250 867 l 267 850 m 200 850 l 183 833 l 200 817 l 183 800 l 167 817 l 150 800 l 133 817 l 150 833 l 133 850 l 150 867 l 167 850 l 183 867 l 200 850 m 267 783 l 250 767 l 267 750 l 250 733 l 233 750 l 217 733 l 200 750 l 217 767 l 200 783 l 217 800 l 233 783 l 250 800 l 267 783 m 333 783 l 317 767 l 333 750 l 317 733 l 300 750 l 283 733 l 267 750 l 283 767 l 267 783 l 283 800 l 300 783 l 317 800 l 333 783 m 267 717 l 250 700 l 267 683 l 250 667 l 233 683 l 217 667 l 200 683 l 217 700 l 200 717 l 217 733 l 233 717 l 250 733 l 267 717 m 333 717 l 317 700 l 333 683 l 317 667 l 300 683 l 283 667 l 267 683 l 283 700 l 267 717 l 283 733 l 300 717 l 317 733 l 333 717 m 333 650 l 317 633 l 333 617 l 317 600 l 300 617 l 283 600 l 267 617 l 283 633 l 267 650 l 283 667 l 300 650 l 317 667 l 333 650 m 267 650 l 250 633 l 267 617 l 250 600 l 233 617 l 217 600 l 200 617 l 217 633 l 200 650 l 217 667 l 233 650 l 250 667 l 267 650 m 267 583 l 250 567 l 267 550 l 250 533 l 233 550 l 217 533 l 200 550 l 217 567 l 200 583 l 217 600 l 233 583 l 250 600 l 267 583 m 267 517 l 250 500 l 267 483 l 250 467 l 233 483 l 217 467 l 200 483 l 217 500 l 200 517 l 217 533 l 233 517 l 250 533 l 267 517 m 133 783 l 117 767 l 133 750 l 117 733 l 100 750 l 83 733 l 67 750 l 83 767 l 67 783 l 83 800 l 100 783 l 117 800 l 133 783 m 200 783 l 183 767 l 200 750 l 183 733 l 167 750 l 150 733 l 133 750 l 150 767 l 133 783 l 150 800 l 167 783 l 183 800 l 200 783 m 333 983 l 317 967 l 333 950 l 317 933 l 300 950 l 283 933 l 267 950 l 283 967 l 267 983 l 283 1000 l 300 983 l 317 1000 l 333 983 z "},"2":{"ha":667,"x_min":0,"x_max":667,"o":"m 250 133 l 267 117 l 250 100 l 267 83 l 250 67 l 233 83 l 217 67 l 200 83 l 217 100 l 200 117 l 217 133 l 233 117 l 250 133 m 117 200 l 133 183 l 117 167 l 133 150 l 117 133 l 100 150 l 83 133 l 67 150 l 83 167 l 67 183 l 83 200 l 100 183 l 117 200 m 317 133 l 333 117 l 317 100 l 333 83 l 317 67 l 300 83 l 283 67 l 267 83 l 283 100 l 267 117 l 283 133 l 300 117 l 317 133 m 317 67 l 333 50 l 317 33 l 333 17 l 317 0 l 300 17 l 283 0 l 267 17 l 283 33 l 267 50 l 283 67 l 300 50 l 317 67 m 450 133 l 467 117 l 450 100 l 467 83 l 450 67 l 433 83 l 417 67 l 400 83 l 417 100 l 400 117 l 417 133 l 433 117 l 450 133 m 383 67 l 400 50 l 383 33 l 400 17 l 383 0 l 367 17 l 350 0 l 333 17 l 350 33 l 333 50 l 350 67 l 367 50 l 383 67 m 517 133 l 533 117 l 517 100 l 533 83 l 517 67 l 500 83 l 483 67 l 467 83 l 483 100 l 467 117 l 483 133 l 500 117 l 517 133 m 517 200 l 533 183 l 517 167 l 533 150 l 517 133 l 500 150 l 483 133 l 467 150 l 483 167 l 467 183 l 483 200 l 500 183 l 517 200 m 450 67 l 467 50 l 450 33 l 467 17 l 450 0 l 433 17 l 417 0 l 400 17 l 417 33 l 400 50 l 417 67 l 433 50 l 450 67 m 583 200 l 600 183 l 583 167 l 600 150 l 583 133 l 567 150 l 550 133 l 533 150 l 550 167 l 533 183 l 550 200 l 567 183 l 583 200 m 533 50 l 517 33 l 533 17 l 517 0 l 500 17 l 483 0 l 467 17 l 483 33 l 467 50 l 483 67 l 500 50 l 517 67 l 533 50 m 600 117 l 583 100 l 600 83 l 583 67 l 567 83 l 550 67 l 533 83 l 550 100 l 533 117 l 550 133 l 567 117 l 583 133 l 600 117 m 667 183 l 650 167 l 667 150 l 650 133 l 633 150 l 617 133 l 600 150 l 617 167 l 600 183 l 617 200 l 633 183 l 650 200 l 667 183 m 200 183 l 183 167 l 200 150 l 183 133 l 167 150 l 150 133 l 133 150 l 150 167 l 133 183 l 150 200 l 167 183 l 183 200 l 200 183 m 67 50 l 50 33 l 67 17 l 50 0 l 33 17 l 17 0 l 0 17 l 17 33 l 0 50 l 17 67 l 33 50 l 50 67 l 67 50 m 133 250 l 117 233 l 133 217 l 117 200 l 100 217 l 83 200 l 67 217 l 83 233 l 67 250 l 83 267 l 100 250 l 117 267 l 133 250 m 333 450 l 317 433 l 333 417 l 317 400 l 300 417 l 283 400 l 267 417 l 283 433 l 267 450 l 283 467 l 300 450 l 317 467 l 333 450 m 267 383 l 250 367 l 267 350 l 250 333 l 233 350 l 217 333 l 200 350 l 217 367 l 200 383 l 217 400 l 233 383 l 250 400 l 267 383 m 400 583 l 383 567 l 400 550 l 383 533 l 367 550 l 350 533 l 333 550 l 350 567 l 333 583 l 350 600 l 367 583 l 383 600 l 400 583 m 467 717 l 450 700 l 467 683 l 450 667 l 433 683 l 417 667 l 400 683 l 417 700 l 400 717 l 417 733 l 433 717 l 450 733 l 467 717 m 467 650 l 450 633 l 467 617 l 450 600 l 433 617 l 417 600 l 400 617 l 417 633 l 400 650 l 417 667 l 433 650 l 450 667 l 467 650 m 533 650 l 517 633 l 533 617 l 517 600 l 500 617 l 483 600 l 467 617 l 483 633 l 467 650 l 483 667 l 500 650 l 517 667 l 533 650 m 400 517 l 383 500 l 400 483 l 383 467 l 367 483 l 350 467 l 333 483 l 350 500 l 333 517 l 350 533 l 367 517 l 383 533 l 400 517 m 200 117 l 183 100 l 200 83 l 183 67 l 167 83 l 150 67 l 133 83 l 150 100 l 133 117 l 150 133 l 167 117 l 183 133 l 200 117 m 533 717 l 517 700 l 533 683 l 517 667 l 500 683 l 483 667 l 467 683 l 483 700 l 467 717 l 483 733 l 500 717 l 517 733 l 533 717 m 333 517 l 317 500 l 333 483 l 317 467 l 300 483 l 283 467 l 267 483 l 283 500 l 267 517 l 283 533 l 300 517 l 317 533 l 333 517 m 467 583 l 450 567 l 467 550 l 450 533 l 433 550 l 417 533 l 400 550 l 417 567 l 400 583 l 417 600 l 433 583 l 450 600 l 467 583 m 267 450 l 250 433 l 267 417 l 250 400 l 233 417 l 217 400 l 200 417 l 217 433 l 200 450 l 217 467 l 233 450 l 250 467 l 267 450 m 200 383 l 183 367 l 200 350 l 183 333 l 167 350 l 150 333 l 133 350 l 150 367 l 133 383 l 150 400 l 167 383 l 183 400 l 200 383 m 133 850 l 117 833 l 133 817 l 117 800 l 100 817 l 83 800 l 67 817 l 83 833 l 67 850 l 83 867 l 100 850 l 117 867 l 133 850 m 200 917 l 183 900 l 200 883 l 183 867 l 167 883 l 150 867 l 133 883 l 150 900 l 133 917 l 150 933 l 167 917 l 183 933 l 200 917 m 267 917 l 250 900 l 267 883 l 250 867 l 233 883 l 217 867 l 200 883 l 217 900 l 200 917 l 217 933 l 233 917 l 250 933 l 267 917 m 267 983 l 250 967 l 267 950 l 250 933 l 233 950 l 217 933 l 200 950 l 217 967 l 200 983 l 217 1000 l 233 983 l 250 1000 l 267 983 m 333 917 l 317 900 l 333 883 l 317 867 l 300 883 l 283 867 l 267 883 l 283 900 l 267 917 l 283 933 l 300 917 l 317 933 l 333 917 m 400 917 l 383 900 l 400 883 l 383 867 l 367 883 l 350 867 l 333 883 l 350 900 l 333 917 l 350 933 l 367 917 l 383 933 l 400 917 m 400 983 l 383 967 l 400 950 l 383 933 l 367 950 l 350 933 l 333 950 l 350 967 l 333 983 l 350 1000 l 367 983 l 383 1000 l 400 983 m 400 850 l 383 833 l 400 817 l 383 800 l 367 817 l 350 800 l 333 817 l 350 833 l 333 850 l 350 867 l 367 850 l 383 867 l 400 850 m 600 783 l 583 767 l 600 750 l 583 733 l 567 750 l 550 733 l 533 750 l 550 767 l 533 783 l 550 800 l 567 783 l 583 800 l 600 783 m 333 983 l 317 967 l 333 950 l 317 933 l 300 950 l 283 933 l 267 950 l 283 967 l 267 983 l 283 1000 l 300 983 l 317 1000 l 333 983 m 467 917 l 450 900 l 467 883 l 450 867 l 433 883 l 417 867 l 400 883 l 417 900 l 400 917 l 417 933 l 433 917 l 450 933 l 467 917 m 533 917 l 517 900 l 533 883 l 517 867 l 500 883 l 483 867 l 467 883 l 483 900 l 467 917 l 483 933 l 500 917 l 517 933 l 533 917 m 467 850 l 450 833 l 467 817 l 450 800 l 433 817 l 417 800 l 400 817 l 417 833 l 400 850 l 417 867 l 433 850 l 450 867 l 467 850 m 467 783 l 450 767 l 467 750 l 450 733 l 433 750 l 417 733 l 400 750 l 417 767 l 400 783 l 417 800 l 433 783 l 450 800 l 467 783 m 533 850 l 517 833 l 533 817 l 517 800 l 500 817 l 483 800 l 467 817 l 483 833 l 467 850 l 483 867 l 500 850 l 517 867 l 533 850 m 467 983 l 450 967 l 467 950 l 450 933 l 433 950 l 417 933 l 400 950 l 417 967 l 400 983 l 417 1000 l 433 983 l 450 1000 l 467 983 m 533 783 l 517 767 l 533 750 l 517 733 l 500 750 l 483 733 l 467 750 l 483 767 l 467 783 l 483 800 l 500 783 l 517 800 l 533 783 m 200 317 l 183 300 l 200 283 l 183 267 l 167 283 l 150 267 l 133 283 l 150 300 l 133 317 l 150 333 l 167 317 l 183 333 l 200 317 m 133 117 l 117 100 l 133 83 l 117 67 l 100 83 l 83 67 l 67 83 l 83 100 l 67 117 l 83 133 l 100 117 l 117 133 l 133 117 m 200 250 l 183 233 l 200 217 l 183 200 l 167 217 l 150 200 l 133 217 l 150 233 l 133 250 l 150 267 l 167 250 l 183 267 l 200 250 m 600 850 l 583 833 l 600 817 l 583 800 l 567 817 l 550 800 l 533 817 l 550 833 l 533 850 l 550 867 l 567 850 l 583 867 l 600 850 m 67 117 l 50 100 l 67 83 l 50 67 l 33 83 l 17 67 l 0 83 l 17 100 l 0 117 l 17 133 l 33 117 l 50 133 l 67 117 z "},"3":{"ha":733,"x_min":67,"x_max":667,"o":"m 133 117 l 117 100 l 133 83 l 117 67 l 100 83 l 83 67 l 67 83 l 83 100 l 67 117 l 83 133 l 100 117 l 117 133 l 133 117 m 200 117 l 183 100 l 200 83 l 183 67 l 167 83 l 150 67 l 133 83 l 150 100 l 133 117 l 150 133 l 167 117 l 183 133 l 200 117 m 200 183 l 183 167 l 200 150 l 183 133 l 167 150 l 150 133 l 133 150 l 150 167 l 133 183 l 150 200 l 167 183 l 183 200 l 200 183 m 133 183 l 117 167 l 133 150 l 117 133 l 100 150 l 83 133 l 67 150 l 83 167 l 67 183 l 83 200 l 100 183 l 117 200 l 133 183 m 200 250 l 183 233 l 200 217 l 183 200 l 167 217 l 150 200 l 133 217 l 150 233 l 133 250 l 150 267 l 167 250 l 183 267 l 200 250 m 267 117 l 250 100 l 267 83 l 250 67 l 233 83 l 217 67 l 200 83 l 217 100 l 200 117 l 217 133 l 233 117 l 250 133 l 267 117 m 267 50 l 250 33 l 267 17 l 250 0 l 233 17 l 217 0 l 200 17 l 217 33 l 200 50 l 217 67 l 233 50 l 250 67 l 267 50 m 200 50 l 183 33 l 200 17 l 183 0 l 167 17 l 150 0 l 133 17 l 150 33 l 133 50 l 150 67 l 167 50 l 183 67 l 200 50 m 333 50 l 317 33 l 333 17 l 317 0 l 300 17 l 283 0 l 267 17 l 283 33 l 267 50 l 283 67 l 300 50 l 317 67 l 333 50 m 400 50 l 383 33 l 400 17 l 383 0 l 367 17 l 350 0 l 333 17 l 350 33 l 333 50 l 350 67 l 367 50 l 383 67 l 400 50 m 467 117 l 450 100 l 467 83 l 450 67 l 433 83 l 417 67 l 400 83 l 417 100 l 400 117 l 417 133 l 433 117 l 450 133 l 467 117 m 533 117 l 517 100 l 533 83 l 517 67 l 500 83 l 483 67 l 467 83 l 483 100 l 467 117 l 483 133 l 500 117 l 517 133 l 533 117 m 600 183 l 583 167 l 600 150 l 583 133 l 567 150 l 550 133 l 533 150 l 550 167 l 533 183 l 550 200 l 567 183 l 583 200 l 600 183 m 667 383 l 650 367 l 667 350 l 650 333 l 633 350 l 617 333 l 600 350 l 617 367 l 600 383 l 617 400 l 633 383 l 650 400 l 667 383 m 600 250 l 583 233 l 600 217 l 583 200 l 567 217 l 550 200 l 533 217 l 550 233 l 533 250 l 550 267 l 567 250 l 583 267 l 600 250 m 600 450 l 583 433 l 600 417 l 583 400 l 567 417 l 550 400 l 533 417 l 550 433 l 533 450 l 550 467 l 567 450 l 583 467 l 600 450 m 600 383 l 583 367 l 600 350 l 583 333 l 567 350 l 550 333 l 533 350 l 550 367 l 533 383 l 550 400 l 567 383 l 583 400 l 600 383 m 600 317 l 583 300 l 600 283 l 583 267 l 567 283 l 550 267 l 533 283 l 550 300 l 533 317 l 550 333 l 567 317 l 583 333 l 600 317 m 533 383 l 517 367 l 533 350 l 517 333 l 500 350 l 483 333 l 467 350 l 483 367 l 467 383 l 483 400 l 500 383 l 517 400 l 533 383 m 400 583 l 383 567 l 400 550 l 383 533 l 367 550 l 350 533 l 333 550 l 350 567 l 333 583 l 350 600 l 367 583 l 383 600 l 400 583 m 467 717 l 450 700 l 467 683 l 450 667 l 433 683 l 417 667 l 400 683 l 417 700 l 400 717 l 417 733 l 433 717 l 450 733 l 467 717 m 467 650 l 450 633 l 467 617 l 450 600 l 433 617 l 417 600 l 400 617 l 417 633 l 400 650 l 417 667 l 433 650 l 450 667 l 467 650 m 533 650 l 517 633 l 533 617 l 517 600 l 500 617 l 483 600 l 467 617 l 483 633 l 467 650 l 483 667 l 500 650 l 517 667 l 533 650 m 400 517 l 383 500 l 400 483 l 383 467 l 367 483 l 350 467 l 333 483 l 350 500 l 333 517 l 350 533 l 367 517 l 383 533 l 400 517 m 533 717 l 517 700 l 533 683 l 517 667 l 500 683 l 483 667 l 467 683 l 483 700 l 467 717 l 483 733 l 500 717 l 517 733 l 533 717 m 333 517 l 317 500 l 333 483 l 317 467 l 300 483 l 283 467 l 267 483 l 283 500 l 267 517 l 283 533 l 300 517 l 317 533 l 333 517 m 467 583 l 450 567 l 467 550 l 450 533 l 433 550 l 417 533 l 400 550 l 417 567 l 400 583 l 417 600 l 433 583 l 450 600 l 467 583 m 133 850 l 117 833 l 133 817 l 117 800 l 100 817 l 83 800 l 67 817 l 83 833 l 67 850 l 83 867 l 100 850 l 117 867 l 133 850 m 200 917 l 183 900 l 200 883 l 183 867 l 167 883 l 150 867 l 133 883 l 150 900 l 133 917 l 150 933 l 167 917 l 183 933 l 200 917 m 267 917 l 250 900 l 267 883 l 250 867 l 233 883 l 217 867 l 200 883 l 217 900 l 200 917 l 217 933 l 233 917 l 250 933 l 267 917 m 267 983 l 250 967 l 267 950 l 250 933 l 233 950 l 217 933 l 200 950 l 217 967 l 200 983 l 217 1000 l 233 983 l 250 1000 l 267 983 m 333 917 l 317 900 l 333 883 l 317 867 l 300 883 l 283 867 l 267 883 l 283 900 l 267 917 l 283 933 l 300 917 l 317 933 l 333 917 m 400 917 l 383 900 l 400 883 l 383 867 l 367 883 l 350 867 l 333 883 l 350 900 l 333 917 l 350 933 l 367 917 l 383 933 l 400 917 m 400 983 l 383 967 l 400 950 l 383 933 l 367 950 l 350 933 l 333 950 l 350 967 l 333 983 l 350 1000 l 367 983 l 383 1000 l 400 983 m 400 850 l 383 833 l 400 817 l 383 800 l 367 817 l 350 800 l 333 817 l 350 833 l 333 850 l 350 867 l 367 850 l 383 867 l 400 850 m 600 783 l 583 767 l 600 750 l 583 733 l 567 750 l 550 733 l 533 750 l 550 767 l 533 783 l 550 800 l 567 783 l 583 800 l 600 783 m 333 983 l 317 967 l 333 950 l 317 933 l 300 950 l 283 933 l 267 950 l 283 967 l 267 983 l 283 1000 l 300 983 l 317 1000 l 333 983 m 467 917 l 450 900 l 467 883 l 450 867 l 433 883 l 417 867 l 400 883 l 417 900 l 400 917 l 417 933 l 433 917 l 450 933 l 467 917 m 533 917 l 517 900 l 533 883 l 517 867 l 500 883 l 483 867 l 467 883 l 483 900 l 467 917 l 483 933 l 500 917 l 517 933 l 533 917 m 467 850 l 450 833 l 467 817 l 450 800 l 433 817 l 417 800 l 400 817 l 417 833 l 400 850 l 417 867 l 433 850 l 450 867 l 467 850 m 467 783 l 450 767 l 467 750 l 450 733 l 433 750 l 417 733 l 400 750 l 417 767 l 400 783 l 417 800 l 433 783 l 450 800 l 467 783 m 533 850 l 517 833 l 533 817 l 517 800 l 500 817 l 483 800 l 467 817 l 483 833 l 467 850 l 483 867 l 500 850 l 517 867 l 533 850 m 467 983 l 450 967 l 467 950 l 450 933 l 433 950 l 417 933 l 400 950 l 417 967 l 400 983 l 417 1000 l 433 983 l 450 1000 l 467 983 m 533 783 l 517 767 l 533 750 l 517 733 l 500 750 l 483 733 l 467 750 l 483 767 l 467 783 l 483 800 l 500 783 l 517 800 l 533 783 m 600 850 l 583 833 l 600 817 l 583 800 l 567 817 l 550 800 l 533 817 l 550 833 l 533 850 l 550 867 l 567 850 l 583 867 l 600 850 m 533 517 l 517 500 l 533 483 l 517 467 l 500 483 l 483 467 l 467 483 l 483 500 l 467 517 l 483 533 l 500 517 l 517 533 l 533 517 m 533 450 l 517 433 l 533 417 l 517 400 l 500 417 l 483 400 l 467 417 l 483 433 l 467 450 l 483 467 l 500 450 l 517 467 l 533 450 m 467 450 l 450 433 l 467 417 l 450 400 l 433 417 l 417 400 l 400 417 l 417 433 l 400 450 l 417 467 l 433 450 l 450 467 l 467 450 m 467 517 l 450 500 l 467 483 l 450 467 l 433 483 l 417 467 l 400 483 l 417 500 l 400 517 l 417 533 l 433 517 l 450 533 l 467 517 m 667 317 l 650 300 l 667 283 l 650 267 l 633 283 l 617 267 l 600 283 l 617 300 l 600 317 l 617 333 l 633 317 l 650 333 l 667 317 m 267 317 l 250 300 l 267 283 l 250 267 l 233 283 l 217 267 l 200 283 l 217 300 l 200 317 l 217 333 l 233 317 l 250 333 l 267 317 m 667 250 l 650 233 l 667 217 l 650 200 l 633 217 l 617 200 l 600 217 l 617 233 l 600 250 l 617 267 l 633 250 l 650 267 l 667 250 z "},"4":{"ha":667,"x_min":0,"x_max":667,"o":"m 183 400 l 200 383 l 183 367 l 200 350 l 183 333 l 167 350 l 150 333 l 133 350 l 150 367 l 133 383 l 150 400 l 167 383 l 183 400 m 50 467 l 67 450 l 50 433 l 67 417 l 50 400 l 33 417 l 17 400 l 0 417 l 17 433 l 0 450 l 17 467 l 33 450 l 50 467 m 250 400 l 267 383 l 250 367 l 267 350 l 250 333 l 233 350 l 217 333 l 200 350 l 217 367 l 200 383 l 217 400 l 233 383 l 250 400 m 317 400 l 333 383 l 317 367 l 333 350 l 317 333 l 300 350 l 283 333 l 267 350 l 283 367 l 267 383 l 283 400 l 300 383 l 317 400 m 383 400 l 400 383 l 383 367 l 400 350 l 383 333 l 367 350 l 350 333 l 333 350 l 350 367 l 333 383 l 350 400 l 367 383 l 383 400 m 450 400 l 467 383 l 450 367 l 467 350 l 450 333 l 433 350 l 417 333 l 400 350 l 417 367 l 400 383 l 417 400 l 433 383 l 450 400 m 533 383 l 517 367 l 533 350 l 517 333 l 500 350 l 483 333 l 467 350 l 483 367 l 467 383 l 483 400 l 500 383 l 517 400 l 533 383 m 133 450 l 117 433 l 133 417 l 117 400 l 100 417 l 83 400 l 67 417 l 83 433 l 67 450 l 83 467 l 100 450 l 117 467 l 133 450 m 600 383 l 583 367 l 600 350 l 583 333 l 567 350 l 550 333 l 533 350 l 550 367 l 533 383 l 550 400 l 567 383 l 583 400 l 600 383 m 133 517 l 117 500 l 133 483 l 117 467 l 100 483 l 83 467 l 67 483 l 83 500 l 67 517 l 83 533 l 100 517 l 117 533 l 133 517 m 267 717 l 250 700 l 267 683 l 250 667 l 233 683 l 217 667 l 200 683 l 217 700 l 200 717 l 217 733 l 233 717 l 250 733 l 267 717 m 267 583 l 250 567 l 267 550 l 250 533 l 233 550 l 217 533 l 200 550 l 217 567 l 200 583 l 217 600 l 233 583 l 250 600 l 267 583 m 333 783 l 317 767 l 333 750 l 317 733 l 300 750 l 283 733 l 267 750 l 283 767 l 267 783 l 283 800 l 300 783 l 317 800 l 333 783 m 333 850 l 317 833 l 333 817 l 317 800 l 300 817 l 283 800 l 267 817 l 283 833 l 267 850 l 283 867 l 300 850 l 317 867 l 333 850 m 133 383 l 117 367 l 133 350 l 117 333 l 100 350 l 83 333 l 67 350 l 83 367 l 67 383 l 83 400 l 100 383 l 117 400 l 133 383 m 267 650 l 250 633 l 267 617 l 250 600 l 233 617 l 217 600 l 200 617 l 217 633 l 200 650 l 217 667 l 233 650 l 250 667 l 267 650 m 200 583 l 183 567 l 200 550 l 183 533 l 167 550 l 150 533 l 133 550 l 150 567 l 133 583 l 150 600 l 167 583 l 183 600 l 200 583 m 200 517 l 183 500 l 200 483 l 183 467 l 167 483 l 150 467 l 133 483 l 150 500 l 133 517 l 150 533 l 167 517 l 183 533 l 200 517 m 600 183 l 583 167 l 600 150 l 583 133 l 567 150 l 550 133 l 533 150 l 550 167 l 533 183 l 550 200 l 567 183 l 583 200 l 600 183 m 467 117 l 450 100 l 467 83 l 450 67 l 433 83 l 417 67 l 400 83 l 417 100 l 400 117 l 417 133 l 433 117 l 450 133 l 467 117 m 467 50 l 450 33 l 467 17 l 450 0 l 433 17 l 417 0 l 400 17 l 417 33 l 400 50 l 417 67 l 433 50 l 450 67 l 467 50 m 533 117 l 517 100 l 533 83 l 517 67 l 500 83 l 483 67 l 467 83 l 483 100 l 467 117 l 483 133 l 500 117 l 517 133 l 533 117 m 533 183 l 517 167 l 533 150 l 517 133 l 500 150 l 483 133 l 467 150 l 483 167 l 467 183 l 483 200 l 500 183 l 517 200 l 533 183 m 467 183 l 450 167 l 467 150 l 450 133 l 433 150 l 417 133 l 400 150 l 417 167 l 400 183 l 417 200 l 433 183 l 450 200 l 467 183 m 533 250 l 517 233 l 533 217 l 517 200 l 500 217 l 483 200 l 467 217 l 483 233 l 467 250 l 483 267 l 500 250 l 517 267 l 533 250 m 467 250 l 450 233 l 467 217 l 450 200 l 433 217 l 417 200 l 400 217 l 417 233 l 400 250 l 417 267 l 433 250 l 450 267 l 467 250 m 467 317 l 450 300 l 467 283 l 450 267 l 433 283 l 417 267 l 400 283 l 417 300 l 400 317 l 417 333 l 433 317 l 450 333 l 467 317 m 533 317 l 517 300 l 533 283 l 517 267 l 500 283 l 483 267 l 467 283 l 483 300 l 467 317 l 483 333 l 500 317 l 517 333 l 533 317 m 533 450 l 517 433 l 533 417 l 517 400 l 500 417 l 483 400 l 467 417 l 483 433 l 467 450 l 483 467 l 500 450 l 517 467 l 533 450 m 467 450 l 450 433 l 467 417 l 450 400 l 433 417 l 417 400 l 400 417 l 417 433 l 400 450 l 417 467 l 433 450 l 450 467 l 467 450 m 533 517 l 517 500 l 533 483 l 517 467 l 500 483 l 483 467 l 467 483 l 483 500 l 467 517 l 483 533 l 500 517 l 517 533 l 533 517 m 533 583 l 517 567 l 533 550 l 517 533 l 500 550 l 483 533 l 467 550 l 483 567 l 467 583 l 483 600 l 500 583 l 517 600 l 533 583 m 467 917 l 450 900 l 467 883 l 450 867 l 433 883 l 417 867 l 400 883 l 417 900 l 400 917 l 417 933 l 433 917 l 450 933 l 467 917 m 533 917 l 517 900 l 533 883 l 517 867 l 500 883 l 483 867 l 467 883 l 483 900 l 467 917 l 483 933 l 500 917 l 517 933 l 533 917 m 533 983 l 517 967 l 533 950 l 517 933 l 500 950 l 483 933 l 467 950 l 483 967 l 467 983 l 483 1000 l 500 983 l 517 1000 l 533 983 m 533 850 l 517 833 l 533 817 l 517 800 l 500 817 l 483 800 l 467 817 l 483 833 l 467 850 l 483 867 l 500 850 l 517 867 l 533 850 m 467 850 l 450 833 l 467 817 l 450 800 l 433 817 l 417 800 l 400 817 l 417 833 l 400 850 l 417 867 l 433 850 l 450 867 l 467 850 m 467 783 l 450 767 l 467 750 l 450 733 l 433 750 l 417 733 l 400 750 l 417 767 l 400 783 l 417 800 l 433 783 l 450 800 l 467 783 m 533 783 l 517 767 l 533 750 l 517 733 l 500 750 l 483 733 l 467 750 l 483 767 l 467 783 l 483 800 l 500 783 l 517 800 l 533 783 m 467 717 l 450 700 l 467 683 l 450 667 l 433 683 l 417 667 l 400 683 l 417 700 l 400 717 l 417 733 l 433 717 l 450 733 l 467 717 m 533 717 l 517 700 l 533 683 l 517 667 l 500 683 l 483 667 l 467 683 l 483 700 l 467 717 l 483 733 l 500 717 l 517 733 l 533 717 m 533 650 l 517 633 l 533 617 l 517 600 l 500 617 l 483 600 l 467 617 l 483 633 l 467 650 l 483 667 l 500 650 l 517 667 l 533 650 m 467 650 l 450 633 l 467 617 l 450 600 l 433 617 l 417 600 l 400 617 l 417 633 l 400 650 l 417 667 l 433 650 l 450 667 l 467 650 m 467 583 l 450 567 l 467 550 l 450 533 l 433 550 l 417 533 l 400 550 l 417 567 l 400 583 l 417 600 l 433 583 l 450 600 l 467 583 m 467 517 l 450 500 l 467 483 l 450 467 l 433 483 l 417 467 l 400 483 l 417 500 l 400 517 l 417 533 l 433 517 l 450 533 l 467 517 m 200 450 l 183 433 l 200 417 l 183 400 l 167 417 l 150 400 l 133 417 l 150 433 l 133 450 l 150 467 l 167 450 l 183 467 l 200 450 m 667 383 l 650 367 l 667 350 l 650 333 l 633 350 l 617 333 l 600 350 l 617 367 l 600 383 l 617 400 l 633 383 l 650 400 l 667 383 m 267 517 l 250 500 l 267 483 l 250 467 l 233 483 l 217 467 l 200 483 l 217 500 l 200 517 l 217 533 l 233 517 l 250 533 l 267 517 m 333 717 l 317 700 l 333 683 l 317 667 l 300 683 l 283 667 l 267 683 l 283 700 l 267 717 l 283 733 l 300 717 l 317 733 l 333 717 z "},"5":{"ha":733,"x_min":67,"x_max":667,"o":"m 267 317 l 250 300 l 267 283 l 250 267 l 233 283 l 217 267 l 200 283 l 217 300 l 200 317 l 217 333 l 233 317 l 250 333 l 267 317 m 133 117 l 117 100 l 133 83 l 117 67 l 100 83 l 83 67 l 67 83 l 83 100 l 67 117 l 83 133 l 100 117 l 117 133 l 133 117 m 133 183 l 117 167 l 133 150 l 117 133 l 100 150 l 83 133 l 67 150 l 83 167 l 67 183 l 83 200 l 100 183 l 117 200 l 133 183 m 200 117 l 183 100 l 200 83 l 183 67 l 167 83 l 150 67 l 133 83 l 150 100 l 133 117 l 150 133 l 167 117 l 183 133 l 200 117 m 200 50 l 183 33 l 200 17 l 183 0 l 167 17 l 150 0 l 133 17 l 150 33 l 133 50 l 150 67 l 167 50 l 183 67 l 200 50 m 267 117 l 250 100 l 267 83 l 250 67 l 233 83 l 217 67 l 200 83 l 217 100 l 200 117 l 217 133 l 233 117 l 250 133 l 267 117 m 200 250 l 183 233 l 200 217 l 183 200 l 167 217 l 150 200 l 133 217 l 150 233 l 133 250 l 150 267 l 167 250 l 183 267 l 200 250 m 200 183 l 183 167 l 200 150 l 183 133 l 167 150 l 150 133 l 133 150 l 150 167 l 133 183 l 150 200 l 167 183 l 183 200 l 200 183 m 200 583 l 183 567 l 200 550 l 183 533 l 167 550 l 150 533 l 133 550 l 150 567 l 133 583 l 150 600 l 167 583 l 183 600 l 200 583 m 267 583 l 250 567 l 267 550 l 250 533 l 233 550 l 217 533 l 200 550 l 217 567 l 200 583 l 217 600 l 233 583 l 250 600 l 267 583 m 200 650 l 183 633 l 200 617 l 183 600 l 167 617 l 150 600 l 133 617 l 150 633 l 133 650 l 150 667 l 167 650 l 183 667 l 200 650 m 267 50 l 250 33 l 267 17 l 250 0 l 233 17 l 217 0 l 200 17 l 217 33 l 200 50 l 217 67 l 233 50 l 250 67 l 267 50 m 333 50 l 317 33 l 333 17 l 317 0 l 300 17 l 283 0 l 267 17 l 283 33 l 267 50 l 283 67 l 300 50 l 317 67 l 333 50 m 533 117 l 517 100 l 533 83 l 517 67 l 500 83 l 483 67 l 467 83 l 483 100 l 467 117 l 483 133 l 500 117 l 517 133 l 533 117 m 400 583 l 383 567 l 400 550 l 383 533 l 367 550 l 350 533 l 333 550 l 350 567 l 333 583 l 350 600 l 367 583 l 383 600 l 400 583 m 400 650 l 383 633 l 400 617 l 383 600 l 367 617 l 350 600 l 333 617 l 350 633 l 333 650 l 350 667 l 367 650 l 383 667 l 400 650 m 333 650 l 317 633 l 333 617 l 317 600 l 300 617 l 283 600 l 267 617 l 283 633 l 267 650 l 283 667 l 300 650 l 317 667 l 333 650 m 333 583 l 317 567 l 333 550 l 317 533 l 300 550 l 283 533 l 267 550 l 283 567 l 267 583 l 283 600 l 300 583 l 317 600 l 333 583 m 400 50 l 383 33 l 400 17 l 383 0 l 367 17 l 350 0 l 333 17 l 350 33 l 333 50 l 350 67 l 367 50 l 383 67 l 400 50 m 467 117 l 450 100 l 467 83 l 450 67 l 433 83 l 417 67 l 400 83 l 417 100 l 400 117 l 417 133 l 433 117 l 450 133 l 467 117 m 600 183 l 583 167 l 600 150 l 583 133 l 567 150 l 550 133 l 533 150 l 550 167 l 533 183 l 550 200 l 567 183 l 583 200 l 600 183 m 533 450 l 517 433 l 533 417 l 517 400 l 500 417 l 483 400 l 467 417 l 483 433 l 467 450 l 483 467 l 500 450 l 517 467 l 533 450 m 533 517 l 517 500 l 533 483 l 517 467 l 500 483 l 483 467 l 467 483 l 483 500 l 467 517 l 483 533 l 500 517 l 517 533 l 533 517 m 533 583 l 517 567 l 533 550 l 517 533 l 500 550 l 483 533 l 467 550 l 483 567 l 467 583 l 483 600 l 500 583 l 517 600 l 533 583 m 267 650 l 250 633 l 267 617 l 250 600 l 233 617 l 217 600 l 200 617 l 217 633 l 200 650 l 217 667 l 233 650 l 250 667 l 267 650 m 467 583 l 450 567 l 467 550 l 450 533 l 433 550 l 417 533 l 400 550 l 417 567 l 400 583 l 417 600 l 433 583 l 450 600 l 467 583 m 467 517 l 450 500 l 467 483 l 450 467 l 433 483 l 417 467 l 400 483 l 417 500 l 400 517 l 417 533 l 433 517 l 450 533 l 467 517 m 600 250 l 583 233 l 600 217 l 583 200 l 567 217 l 550 200 l 533 217 l 550 233 l 533 250 l 550 267 l 567 250 l 583 267 l 600 250 m 600 317 l 583 300 l 600 283 l 583 267 l 567 283 l 550 267 l 533 283 l 550 300 l 533 317 l 550 333 l 567 317 l 583 333 l 600 317 m 667 317 l 650 300 l 667 283 l 650 267 l 633 283 l 617 267 l 600 283 l 617 300 l 600 317 l 617 333 l 633 317 l 650 333 l 667 317 m 667 450 l 650 433 l 667 417 l 650 400 l 633 417 l 617 400 l 600 417 l 617 433 l 600 450 l 617 467 l 633 450 l 650 467 l 667 450 m 600 450 l 583 433 l 600 417 l 583 400 l 567 417 l 550 400 l 533 417 l 550 433 l 533 450 l 550 467 l 567 450 l 583 467 l 600 450 m 667 383 l 650 367 l 667 350 l 650 333 l 633 350 l 617 333 l 600 350 l 617 367 l 600 383 l 617 400 l 633 383 l 650 400 l 667 383 m 600 383 l 583 367 l 600 350 l 583 333 l 567 350 l 550 333 l 533 350 l 550 367 l 533 383 l 550 400 l 567 383 l 583 400 l 600 383 m 667 517 l 650 500 l 667 483 l 650 467 l 633 483 l 617 467 l 600 483 l 617 500 l 600 517 l 617 533 l 633 517 l 650 533 l 667 517 m 600 583 l 583 567 l 600 550 l 583 533 l 567 550 l 550 533 l 533 550 l 550 567 l 533 583 l 550 600 l 567 583 l 583 600 l 600 583 m 600 517 l 583 500 l 600 483 l 583 467 l 567 483 l 550 467 l 533 483 l 550 500 l 533 517 l 550 533 l 567 517 l 583 533 l 600 517 m 183 1000 l 200 983 l 183 967 l 200 950 l 183 933 l 167 950 l 150 933 l 133 950 l 150 967 l 133 983 l 150 1000 l 167 983 l 183 1000 m 250 933 l 267 917 l 250 900 l 267 883 l 250 867 l 233 883 l 217 867 l 200 883 l 217 900 l 200 917 l 217 933 l 233 917 l 250 933 m 250 867 l 267 850 l 250 833 l 267 817 l 250 800 l 233 817 l 217 800 l 200 817 l 217 833 l 200 850 l 217 867 l 233 850 l 250 867 m 183 933 l 200 917 l 183 900 l 200 883 l 183 867 l 167 883 l 150 867 l 133 883 l 150 900 l 133 917 l 150 933 l 167 917 l 183 933 m 317 933 l 333 917 l 317 900 l 333 883 l 317 867 l 300 883 l 283 867 l 267 883 l 283 900 l 267 917 l 283 933 l 300 917 l 317 933 m 383 933 l 400 917 l 383 900 l 400 883 l 383 867 l 367 883 l 350 867 l 333 883 l 350 900 l 333 917 l 350 933 l 367 917 l 383 933 m 450 933 l 467 917 l 450 900 l 467 883 l 450 867 l 433 883 l 417 867 l 400 883 l 417 900 l 400 917 l 417 933 l 433 917 l 450 933 m 383 867 l 400 850 l 383 833 l 400 817 l 383 800 l 367 817 l 350 800 l 333 817 l 350 833 l 333 850 l 350 867 l 367 850 l 383 867 m 517 933 l 533 917 l 517 900 l 533 883 l 517 867 l 500 883 l 483 867 l 467 883 l 483 900 l 467 917 l 483 933 l 500 917 l 517 933 m 517 1000 l 533 983 l 517 967 l 533 950 l 517 933 l 500 950 l 483 933 l 467 950 l 483 967 l 467 983 l 483 1000 l 500 983 l 517 1000 m 450 867 l 467 850 l 450 833 l 467 817 l 450 800 l 433 817 l 417 800 l 400 817 l 417 833 l 400 850 l 417 867 l 433 850 l 450 867 m 583 1000 l 600 983 l 583 967 l 600 950 l 583 933 l 567 950 l 550 933 l 533 950 l 550 967 l 533 983 l 550 1000 l 567 983 l 583 1000 m 533 850 l 517 833 l 533 817 l 517 800 l 500 817 l 483 800 l 467 817 l 483 833 l 467 850 l 483 867 l 500 850 l 517 867 l 533 850 m 600 917 l 583 900 l 600 883 l 583 867 l 567 883 l 550 867 l 533 883 l 550 900 l 533 917 l 550 933 l 567 917 l 583 933 l 600 917 m 667 983 l 650 967 l 667 950 l 650 933 l 633 950 l 617 933 l 600 950 l 617 967 l 600 983 l 617 1000 l 633 983 l 650 1000 l 667 983 m 200 850 l 183 833 l 200 817 l 183 800 l 167 817 l 150 800 l 133 817 l 150 833 l 133 850 l 150 867 l 167 850 l 183 867 l 200 850 m 200 717 l 183 700 l 200 683 l 183 667 l 167 683 l 150 667 l 133 683 l 150 700 l 133 717 l 150 733 l 167 717 l 183 733 l 200 717 m 267 783 l 250 767 l 267 750 l 250 733 l 233 750 l 217 733 l 200 750 l 217 767 l 200 783 l 217 800 l 233 783 l 250 800 l 267 783 m 267 717 l 250 700 l 267 683 l 250 667 l 233 683 l 217 667 l 200 683 l 217 700 l 200 717 l 217 733 l 233 717 l 250 733 l 267 717 m 200 783 l 183 767 l 200 750 l 183 733 l 167 750 l 150 733 l 133 750 l 150 767 l 133 783 l 150 800 l 167 783 l 183 800 l 200 783 z "},"6":{"ha":800,"x_min":67,"x_max":733,"o":"m 200 450 l 183 433 l 200 417 l 183 400 l 167 417 l 150 400 l 133 417 l 150 433 l 133 450 l 150 467 l 167 450 l 183 467 l 200 450 m 133 450 l 117 433 l 133 417 l 117 400 l 100 417 l 83 400 l 67 417 l 83 433 l 67 450 l 83 467 l 100 450 l 117 467 l 133 450 m 200 383 l 183 367 l 200 350 l 183 333 l 167 350 l 150 333 l 133 350 l 150 367 l 133 383 l 150 400 l 167 383 l 183 400 l 200 383 m 133 383 l 117 367 l 133 350 l 117 333 l 100 350 l 83 333 l 67 350 l 83 367 l 67 383 l 83 400 l 100 383 l 117 400 l 133 383 m 200 517 l 183 500 l 200 483 l 183 467 l 167 483 l 150 467 l 133 483 l 150 500 l 133 517 l 150 533 l 167 517 l 183 533 l 200 517 m 200 583 l 183 567 l 200 550 l 183 533 l 167 550 l 150 533 l 133 550 l 150 567 l 133 583 l 150 600 l 167 583 l 183 600 l 200 583 m 200 717 l 183 700 l 200 683 l 183 667 l 167 683 l 150 667 l 133 683 l 150 700 l 133 717 l 150 733 l 167 717 l 183 733 l 200 717 m 200 650 l 183 633 l 200 617 l 183 600 l 167 617 l 150 600 l 133 617 l 150 633 l 133 650 l 150 667 l 167 650 l 183 667 l 200 650 m 267 450 l 250 433 l 267 417 l 250 400 l 233 417 l 217 400 l 200 417 l 217 433 l 200 450 l 217 467 l 233 450 l 250 467 l 267 450 m 267 383 l 250 367 l 267 350 l 250 333 l 233 350 l 217 333 l 200 350 l 217 367 l 200 383 l 217 400 l 233 383 l 250 400 l 267 383 m 333 850 l 317 833 l 333 817 l 317 800 l 300 817 l 283 800 l 267 817 l 283 833 l 267 850 l 283 867 l 300 850 l 317 867 l 333 850 m 267 783 l 250 767 l 267 750 l 250 733 l 233 750 l 217 733 l 200 750 l 217 767 l 200 783 l 217 800 l 233 783 l 250 800 l 267 783 m 133 517 l 117 500 l 133 483 l 117 467 l 100 483 l 83 467 l 67 483 l 83 500 l 67 517 l 83 533 l 100 517 l 117 533 l 133 517 m 400 917 l 383 900 l 400 883 l 383 867 l 367 883 l 350 867 l 333 883 l 350 900 l 333 917 l 350 933 l 367 917 l 383 933 l 400 917 m 467 917 l 450 900 l 467 883 l 450 867 l 433 883 l 417 867 l 400 883 l 417 900 l 400 917 l 417 933 l 433 917 l 450 933 l 467 917 m 467 983 l 450 967 l 467 950 l 450 933 l 433 950 l 417 933 l 400 950 l 417 967 l 400 983 l 417 1000 l 433 983 l 450 1000 l 467 983 m 533 917 l 517 900 l 533 883 l 517 867 l 500 883 l 483 867 l 467 883 l 483 900 l 467 917 l 483 933 l 500 917 l 517 933 l 533 917 m 600 917 l 583 900 l 600 883 l 583 867 l 567 883 l 550 867 l 533 883 l 550 900 l 533 917 l 550 933 l 567 917 l 583 933 l 600 917 m 600 983 l 583 967 l 600 950 l 583 933 l 567 950 l 550 933 l 533 950 l 550 967 l 533 983 l 550 1000 l 567 983 l 583 1000 l 600 983 m 600 850 l 583 833 l 600 817 l 583 800 l 567 817 l 550 800 l 533 817 l 550 833 l 533 850 l 550 867 l 567 850 l 583 867 l 600 850 m 533 850 l 517 833 l 533 817 l 517 800 l 500 817 l 483 800 l 467 817 l 483 833 l 467 850 l 483 867 l 500 850 l 517 867 l 533 850 m 533 983 l 517 967 l 533 950 l 517 933 l 500 950 l 483 933 l 467 950 l 483 967 l 467 983 l 483 1000 l 500 983 l 517 1000 l 533 983 m 667 917 l 650 900 l 667 883 l 650 867 l 633 883 l 617 867 l 600 883 l 617 900 l 600 917 l 617 933 l 633 917 l 650 933 l 667 917 m 733 917 l 717 900 l 733 883 l 717 867 l 700 883 l 683 867 l 667 883 l 683 900 l 667 917 l 683 933 l 700 917 l 717 933 l 733 917 m 667 850 l 650 833 l 667 817 l 650 800 l 633 817 l 617 800 l 600 817 l 617 833 l 600 850 l 617 867 l 633 850 l 650 867 l 667 850 m 267 117 l 250 100 l 267 83 l 250 67 l 233 83 l 217 67 l 200 83 l 217 100 l 200 117 l 217 133 l 233 117 l 250 133 l 267 117 m 267 183 l 250 167 l 267 150 l 250 133 l 233 150 l 217 133 l 200 150 l 217 167 l 200 183 l 217 200 l 233 183 l 250 200 l 267 183 m 333 117 l 317 100 l 333 83 l 317 67 l 300 83 l 283 67 l 267 83 l 283 100 l 267 117 l 283 133 l 300 117 l 317 133 l 333 117 m 333 50 l 317 33 l 333 17 l 317 0 l 300 17 l 283 0 l 267 17 l 283 33 l 267 50 l 283 67 l 300 50 l 317 67 l 333 50 m 400 117 l 383 100 l 400 83 l 383 67 l 367 83 l 350 67 l 333 83 l 350 100 l 333 117 l 350 133 l 367 117 l 383 133 l 400 117 m 333 250 l 317 233 l 333 217 l 317 200 l 300 217 l 283 200 l 267 217 l 283 233 l 267 250 l 283 267 l 300 250 l 317 267 l 333 250 m 333 183 l 317 167 l 333 150 l 317 133 l 300 150 l 283 133 l 267 150 l 283 167 l 267 183 l 283 200 l 300 183 l 317 200 l 333 183 m 400 50 l 383 33 l 400 17 l 383 0 l 367 17 l 350 0 l 333 17 l 350 33 l 333 50 l 350 67 l 367 50 l 383 67 l 400 50 m 600 117 l 583 100 l 600 83 l 583 67 l 567 83 l 550 67 l 533 83 l 550 100 l 533 117 l 550 133 l 567 117 l 583 133 l 600 117 m 467 583 l 450 567 l 467 550 l 450 533 l 433 550 l 417 533 l 400 550 l 417 567 l 400 583 l 417 600 l 433 583 l 450 600 l 467 583 m 333 517 l 317 500 l 333 483 l 317 467 l 300 483 l 283 467 l 267 483 l 283 500 l 267 517 l 283 533 l 300 517 l 317 533 l 333 517 m 400 583 l 383 567 l 400 550 l 383 533 l 367 550 l 350 533 l 333 550 l 350 567 l 333 583 l 350 600 l 367 583 l 383 600 l 400 583 m 467 50 l 450 33 l 467 17 l 450 0 l 433 17 l 417 0 l 400 17 l 417 33 l 400 50 l 417 67 l 433 50 l 450 67 l 467 50 m 533 117 l 517 100 l 533 83 l 517 67 l 500 83 l 483 67 l 467 83 l 483 100 l 467 117 l 483 133 l 500 117 l 517 133 l 533 117 m 667 183 l 650 167 l 667 150 l 650 133 l 633 150 l 617 133 l 600 150 l 617 167 l 600 183 l 617 200 l 633 183 l 650 200 l 667 183 m 600 450 l 583 433 l 600 417 l 583 400 l 567 417 l 550 400 l 533 417 l 550 433 l 533 450 l 550 467 l 567 450 l 583 467 l 600 450 m 600 517 l 583 500 l 600 483 l 583 467 l 567 483 l 550 467 l 533 483 l 550 500 l 533 517 l 550 533 l 567 517 l 583 533 l 600 517 m 600 583 l 583 567 l 600 550 l 583 533 l 567 550 l 550 533 l 533 550 l 550 567 l 533 583 l 550 600 l 567 583 l 583 600 l 600 583 m 533 583 l 517 567 l 533 550 l 517 533 l 500 550 l 483 533 l 467 550 l 483 567 l 467 583 l 483 600 l 500 583 l 517 600 l 533 583 m 533 517 l 517 500 l 533 483 l 517 467 l 500 483 l 483 467 l 467 483 l 483 500 l 467 517 l 483 533 l 500 517 l 517 533 l 533 517 m 667 250 l 650 233 l 667 217 l 650 200 l 633 217 l 617 200 l 600 217 l 617 233 l 600 250 l 617 267 l 633 250 l 650 267 l 667 250 m 667 317 l 650 300 l 667 283 l 650 267 l 633 283 l 617 267 l 600 283 l 617 300 l 600 317 l 617 333 l 633 317 l 650 333 l 667 317 m 733 317 l 717 300 l 733 283 l 717 267 l 700 283 l 683 267 l 667 283 l 683 300 l 667 317 l 683 333 l 700 317 l 717 333 l 733 317 m 733 450 l 717 433 l 733 417 l 717 400 l 700 417 l 683 400 l 667 417 l 683 433 l 667 450 l 683 467 l 700 450 l 717 467 l 733 450 m 667 450 l 650 433 l 667 417 l 650 400 l 633 417 l 617 400 l 600 417 l 617 433 l 600 450 l 617 467 l 633 450 l 650 467 l 667 450 m 733 383 l 717 367 l 733 350 l 717 333 l 700 350 l 683 333 l 667 350 l 683 367 l 667 383 l 683 400 l 700 383 l 717 400 l 733 383 m 667 383 l 650 367 l 667 350 l 650 333 l 633 350 l 617 333 l 600 350 l 617 367 l 600 383 l 617 400 l 633 383 l 650 400 l 667 383 m 733 517 l 717 500 l 733 483 l 717 467 l 700 483 l 683 467 l 667 483 l 683 500 l 667 517 l 683 533 l 700 517 l 717 533 l 733 517 m 667 583 l 650 567 l 667 550 l 650 533 l 633 550 l 617 533 l 600 550 l 617 567 l 600 583 l 617 600 l 633 583 l 650 600 l 667 583 m 667 517 l 650 500 l 667 483 l 650 467 l 633 483 l 617 467 l 600 483 l 617 500 l 600 517 l 617 533 l 633 517 l 650 533 l 667 517 m 600 783 l 583 767 l 600 750 l 583 733 l 567 750 l 550 733 l 533 750 l 550 767 l 533 783 l 550 800 l 567 783 l 583 800 l 600 783 m 133 317 l 117 300 l 133 283 l 117 267 l 100 283 l 83 267 l 67 283 l 83 300 l 67 317 l 83 333 l 100 317 l 117 333 l 133 317 m 267 317 l 250 300 l 267 283 l 250 267 l 233 283 l 217 267 l 200 283 l 217 300 l 200 317 l 217 333 l 233 317 l 250 333 l 267 317 m 200 317 l 183 300 l 200 283 l 183 267 l 167 283 l 150 267 l 133 283 l 150 300 l 133 317 l 150 333 l 167 317 l 183 333 l 200 317 m 267 250 l 250 233 l 267 217 l 250 200 l 233 217 l 217 200 l 200 217 l 217 233 l 200 250 l 217 267 l 233 250 l 250 267 l 267 250 m 200 250 l 183 233 l 200 217 l 183 200 l 167 217 l 150 200 l 133 217 l 150 233 l 133 250 l 150 267 l 167 250 l 183 267 l 200 250 m 333 450 l 317 433 l 333 417 l 317 400 l 300 417 l 283 400 l 267 417 l 283 433 l 267 450 l 283 467 l 300 450 l 317 467 l 333 450 z "},"7":{"ha":733,"x_min":0,"x_max":733,"o":"m 267 183 l 250 167 l 267 150 l 250 133 l 233 150 l 217 133 l 200 150 l 217 167 l 200 183 l 217 200 l 233 183 l 250 200 l 267 183 m 267 117 l 250 100 l 267 83 l 250 67 l 233 83 l 217 67 l 200 83 l 217 100 l 200 117 l 217 133 l 233 117 l 250 133 l 267 117 m 400 183 l 383 167 l 400 150 l 383 133 l 367 150 l 350 133 l 333 150 l 350 167 l 333 183 l 350 200 l 367 183 l 383 200 l 400 183 m 333 183 l 317 167 l 333 150 l 317 133 l 300 150 l 283 133 l 267 150 l 283 167 l 267 183 l 283 200 l 300 183 l 317 200 l 333 183 m 333 450 l 317 433 l 333 417 l 317 400 l 300 417 l 283 400 l 267 417 l 283 433 l 267 450 l 283 467 l 300 450 l 317 467 l 333 450 m 267 317 l 250 300 l 267 283 l 250 267 l 233 283 l 217 267 l 200 283 l 217 300 l 200 317 l 217 333 l 233 317 l 250 333 l 267 317 m 200 317 l 183 300 l 200 283 l 183 267 l 167 283 l 150 267 l 133 283 l 150 300 l 133 317 l 150 333 l 167 317 l 183 333 l 200 317 m 333 583 l 317 567 l 333 550 l 317 533 l 300 550 l 283 533 l 267 550 l 283 567 l 267 583 l 283 600 l 300 583 l 317 600 l 333 583 m 467 717 l 450 700 l 467 683 l 450 667 l 433 683 l 417 667 l 400 683 l 417 700 l 400 717 l 417 733 l 433 717 l 450 733 l 467 717 m 400 650 l 383 633 l 400 617 l 383 600 l 367 617 l 350 600 l 333 617 l 350 633 l 333 650 l 350 667 l 367 650 l 383 667 l 400 650 m 467 650 l 450 633 l 467 617 l 450 600 l 433 617 l 417 600 l 400 617 l 417 633 l 400 650 l 417 667 l 433 650 l 450 667 l 467 650 m 600 783 l 583 767 l 600 750 l 583 733 l 567 750 l 550 733 l 533 750 l 550 767 l 533 783 l 550 800 l 567 783 l 583 800 l 600 783 m 533 783 l 517 767 l 533 750 l 517 733 l 500 750 l 483 733 l 467 750 l 483 767 l 467 783 l 483 800 l 500 783 l 517 800 l 533 783 m 133 917 l 117 900 l 133 883 l 117 867 l 100 883 l 83 867 l 67 883 l 83 900 l 67 917 l 83 933 l 100 917 l 117 933 l 133 917 m 67 850 l 50 833 l 67 817 l 50 800 l 33 817 l 17 800 l 0 817 l 17 833 l 0 850 l 17 867 l 33 850 l 50 867 l 67 850 m 200 917 l 183 900 l 200 883 l 183 867 l 167 883 l 150 867 l 133 883 l 150 900 l 133 917 l 150 933 l 167 917 l 183 933 l 200 917 m 267 917 l 250 900 l 267 883 l 250 867 l 233 883 l 217 867 l 200 883 l 217 900 l 200 917 l 217 933 l 233 917 l 250 933 l 267 917 m 267 983 l 250 967 l 267 950 l 250 933 l 233 950 l 217 933 l 200 950 l 217 967 l 200 983 l 217 1000 l 233 983 l 250 1000 l 267 983 m 200 983 l 183 967 l 200 950 l 183 933 l 167 950 l 150 933 l 133 950 l 150 967 l 133 983 l 150 1000 l 167 983 l 183 1000 l 200 983 m 333 917 l 317 900 l 333 883 l 317 867 l 300 883 l 283 867 l 267 883 l 283 900 l 267 917 l 283 933 l 300 917 l 317 933 l 333 917 m 400 917 l 383 900 l 400 883 l 383 867 l 367 883 l 350 867 l 333 883 l 350 900 l 333 917 l 350 933 l 367 917 l 383 933 l 400 917 m 400 983 l 383 967 l 400 950 l 383 933 l 367 950 l 350 933 l 333 950 l 350 967 l 333 983 l 350 1000 l 367 983 l 383 1000 l 400 983 m 400 850 l 383 833 l 400 817 l 383 800 l 367 817 l 350 800 l 333 817 l 350 833 l 333 850 l 350 867 l 367 850 l 383 867 l 400 850 m 333 983 l 317 967 l 333 950 l 317 933 l 300 950 l 283 933 l 267 950 l 283 967 l 267 983 l 283 1000 l 300 983 l 317 1000 l 333 983 m 467 917 l 450 900 l 467 883 l 450 867 l 433 883 l 417 867 l 400 883 l 417 900 l 400 917 l 417 933 l 433 917 l 450 933 l 467 917 m 533 917 l 517 900 l 533 883 l 517 867 l 500 883 l 483 867 l 467 883 l 483 900 l 467 917 l 483 933 l 500 917 l 517 933 l 533 917 m 467 850 l 450 833 l 467 817 l 450 800 l 433 817 l 417 800 l 400 817 l 417 833 l 400 850 l 417 867 l 433 850 l 450 867 l 467 850 m 533 850 l 517 833 l 533 817 l 517 800 l 500 817 l 483 800 l 467 817 l 483 833 l 467 850 l 483 867 l 500 850 l 517 867 l 533 850 m 600 917 l 583 900 l 600 883 l 583 867 l 567 883 l 550 867 l 533 883 l 550 900 l 533 917 l 550 933 l 567 917 l 583 933 l 600 917 m 600 850 l 583 833 l 600 817 l 583 800 l 567 817 l 550 800 l 533 817 l 550 833 l 533 850 l 550 867 l 567 850 l 583 867 l 600 850 m 667 917 l 650 900 l 667 883 l 650 867 l 633 883 l 617 867 l 600 883 l 617 900 l 600 917 l 617 933 l 633 917 l 650 933 l 667 917 m 333 117 l 317 100 l 333 83 l 317 67 l 300 83 l 283 67 l 267 83 l 283 100 l 267 117 l 283 133 l 300 117 l 317 133 l 333 117 m 267 50 l 250 33 l 267 17 l 250 0 l 233 17 l 217 0 l 200 17 l 217 33 l 200 50 l 217 67 l 233 50 l 250 67 l 267 50 m 533 717 l 517 700 l 533 683 l 517 667 l 500 683 l 483 667 l 467 683 l 483 700 l 467 717 l 483 733 l 500 717 l 517 733 l 533 717 m 333 517 l 317 500 l 333 483 l 317 467 l 300 483 l 283 467 l 267 483 l 283 500 l 267 517 l 283 533 l 300 517 l 317 533 l 333 517 m 400 583 l 383 567 l 400 550 l 383 533 l 367 550 l 350 533 l 333 550 l 350 567 l 333 583 l 350 600 l 367 583 l 383 600 l 400 583 m 733 983 l 717 967 l 733 950 l 717 933 l 700 950 l 683 933 l 667 950 l 683 967 l 667 983 l 683 1000 l 700 983 l 717 1000 l 733 983 m 733 917 l 717 900 l 733 883 l 717 867 l 700 883 l 683 867 l 667 883 l 683 900 l 667 917 l 683 933 l 700 917 l 717 933 l 733 917 m 667 850 l 650 833 l 667 817 l 650 800 l 633 817 l 617 800 l 600 817 l 617 833 l 600 850 l 617 867 l 633 850 l 650 867 l 667 850 m 267 450 l 250 433 l 267 417 l 250 400 l 233 417 l 217 400 l 200 417 l 217 433 l 200 450 l 217 467 l 233 450 l 250 467 l 267 450 m 267 383 l 250 367 l 267 350 l 250 333 l 233 350 l 217 333 l 200 350 l 217 367 l 200 383 l 217 400 l 233 383 l 250 400 l 267 383 m 200 183 l 183 167 l 200 150 l 183 133 l 167 150 l 150 133 l 133 150 l 150 167 l 133 183 l 150 200 l 167 183 l 183 200 l 200 183 m 200 250 l 183 233 l 200 217 l 183 200 l 167 217 l 150 200 l 133 217 l 150 233 l 133 250 l 150 267 l 167 250 l 183 267 l 200 250 m 267 250 l 250 233 l 267 217 l 250 200 l 233 217 l 217 200 l 200 217 l 217 233 l 200 250 l 217 267 l 233 250 l 250 267 l 267 250 m 200 117 l 183 100 l 200 83 l 183 67 l 167 83 l 150 67 l 133 83 l 150 100 l 133 117 l 150 133 l 167 117 l 183 133 l 200 117 z "},"8":{"ha":733,"x_min":67,"x_max":667,"o":"m 133 383 l 117 367 l 133 350 l 117 333 l 100 350 l 83 333 l 67 350 l 83 367 l 67 383 l 83 400 l 100 383 l 117 400 l 133 383 m 200 450 l 183 433 l 200 417 l 183 400 l 167 417 l 150 400 l 133 417 l 150 433 l 133 450 l 150 467 l 167 450 l 183 467 l 200 450 m 200 383 l 183 367 l 200 350 l 183 333 l 167 350 l 150 333 l 133 350 l 150 367 l 133 383 l 150 400 l 167 383 l 183 400 l 200 383 m 200 117 l 183 100 l 200 83 l 183 67 l 167 83 l 150 67 l 133 83 l 150 100 l 133 117 l 150 133 l 167 117 l 183 133 l 200 117 m 200 183 l 183 167 l 200 150 l 183 133 l 167 150 l 150 133 l 133 150 l 150 167 l 133 183 l 150 200 l 167 183 l 183 200 l 200 183 m 267 117 l 250 100 l 267 83 l 250 67 l 233 83 l 217 67 l 200 83 l 217 100 l 200 117 l 217 133 l 233 117 l 250 133 l 267 117 m 267 50 l 250 33 l 267 17 l 250 0 l 233 17 l 217 0 l 200 17 l 217 33 l 200 50 l 217 67 l 233 50 l 250 67 l 267 50 m 333 117 l 317 100 l 333 83 l 317 67 l 300 83 l 283 67 l 267 83 l 283 100 l 267 117 l 283 133 l 300 117 l 317 133 l 333 117 m 267 250 l 250 233 l 267 217 l 250 200 l 233 217 l 217 200 l 200 217 l 217 233 l 200 250 l 217 267 l 233 250 l 250 267 l 267 250 m 267 183 l 250 167 l 267 150 l 250 133 l 233 150 l 217 133 l 200 150 l 217 167 l 200 183 l 217 200 l 233 183 l 250 200 l 267 183 m 333 50 l 317 33 l 333 17 l 317 0 l 300 17 l 283 0 l 267 17 l 283 33 l 267 50 l 283 67 l 300 50 l 317 67 l 333 50 m 533 117 l 517 100 l 533 83 l 517 67 l 500 83 l 483 67 l 467 83 l 483 100 l 467 117 l 483 133 l 500 117 l 517 133 l 533 117 m 400 583 l 383 567 l 400 550 l 383 533 l 367 550 l 350 533 l 333 550 l 350 567 l 333 583 l 350 600 l 367 583 l 383 600 l 400 583 m 267 517 l 250 500 l 267 483 l 250 467 l 233 483 l 217 467 l 200 483 l 217 500 l 200 517 l 217 533 l 233 517 l 250 533 l 267 517 m 333 583 l 317 567 l 333 550 l 317 533 l 300 550 l 283 533 l 267 550 l 283 567 l 267 583 l 283 600 l 300 583 l 317 600 l 333 583 m 400 50 l 383 33 l 400 17 l 383 0 l 367 17 l 350 0 l 333 17 l 350 33 l 333 50 l 350 67 l 367 50 l 383 67 l 400 50 m 467 117 l 450 100 l 467 83 l 450 67 l 433 83 l 417 67 l 400 83 l 417 100 l 400 117 l 417 133 l 433 117 l 450 133 l 467 117 m 600 183 l 583 167 l 600 150 l 583 133 l 567 150 l 550 133 l 533 150 l 550 167 l 533 183 l 550 200 l 567 183 l 583 200 l 600 183 m 533 450 l 517 433 l 533 417 l 517 400 l 500 417 l 483 400 l 467 417 l 483 433 l 467 450 l 483 467 l 500 450 l 517 467 l 533 450 m 533 517 l 517 500 l 533 483 l 517 467 l 500 483 l 483 467 l 467 483 l 483 500 l 467 517 l 483 533 l 500 517 l 517 533 l 533 517 m 533 583 l 517 567 l 533 550 l 517 533 l 500 550 l 483 533 l 467 550 l 483 567 l 467 583 l 483 600 l 500 583 l 517 600 l 533 583 m 467 583 l 450 567 l 467 550 l 450 533 l 433 550 l 417 533 l 400 550 l 417 567 l 400 583 l 417 600 l 433 583 l 450 600 l 467 583 m 467 517 l 450 500 l 467 483 l 450 467 l 433 483 l 417 467 l 400 483 l 417 500 l 400 517 l 417 533 l 433 517 l 450 533 l 467 517 m 600 250 l 583 233 l 600 217 l 583 200 l 567 217 l 550 200 l 533 217 l 550 233 l 533 250 l 550 267 l 567 250 l 583 267 l 600 250 m 600 317 l 583 300 l 600 283 l 583 267 l 567 283 l 550 267 l 533 283 l 550 300 l 533 317 l 550 333 l 567 317 l 583 333 l 600 317 m 667 317 l 650 300 l 667 283 l 650 267 l 633 283 l 617 267 l 600 283 l 617 300 l 600 317 l 617 333 l 633 317 l 650 333 l 667 317 m 667 450 l 650 433 l 667 417 l 650 400 l 633 417 l 617 400 l 600 417 l 617 433 l 600 450 l 617 467 l 633 450 l 650 467 l 667 450 m 600 450 l 583 433 l 600 417 l 583 400 l 567 417 l 550 400 l 533 417 l 550 433 l 533 450 l 550 467 l 567 450 l 583 467 l 600 450 m 667 383 l 650 367 l 667 350 l 650 333 l 633 350 l 617 333 l 600 350 l 617 367 l 600 383 l 617 400 l 633 383 l 650 400 l 667 383 m 600 383 l 583 367 l 600 350 l 583 333 l 567 350 l 550 333 l 533 350 l 550 367 l 533 383 l 550 400 l 567 383 l 583 400 l 600 383 m 667 517 l 650 500 l 667 483 l 650 467 l 633 483 l 617 467 l 600 483 l 617 500 l 600 517 l 617 533 l 633 517 l 650 533 l 667 517 m 600 583 l 583 567 l 600 550 l 583 533 l 567 550 l 550 533 l 533 550 l 550 567 l 533 583 l 550 600 l 567 583 l 583 600 l 600 583 m 600 517 l 583 500 l 600 483 l 583 467 l 567 483 l 550 467 l 533 483 l 550 500 l 533 517 l 550 533 l 567 517 l 583 533 l 600 517 m 200 317 l 183 300 l 200 283 l 183 267 l 167 283 l 150 267 l 133 283 l 150 300 l 133 317 l 150 333 l 167 317 l 183 333 l 200 317 m 133 317 l 117 300 l 133 283 l 117 267 l 100 283 l 83 267 l 67 283 l 83 300 l 67 317 l 83 333 l 100 317 l 117 333 l 133 317 m 200 250 l 183 233 l 200 217 l 183 200 l 167 217 l 150 200 l 133 217 l 150 233 l 133 250 l 150 267 l 167 250 l 183 267 l 200 250 m 133 250 l 117 233 l 133 217 l 117 200 l 100 217 l 83 200 l 67 217 l 83 233 l 67 250 l 83 267 l 100 250 l 117 267 l 133 250 m 267 450 l 250 433 l 267 417 l 250 400 l 233 417 l 217 400 l 200 417 l 217 433 l 200 450 l 217 467 l 233 450 l 250 467 l 267 450 m 400 983 l 383 967 l 400 950 l 383 933 l 367 950 l 350 933 l 333 950 l 350 967 l 333 983 l 350 1000 l 367 983 l 383 1000 l 400 983 m 267 850 l 250 833 l 267 817 l 250 800 l 233 817 l 217 800 l 200 817 l 217 833 l 200 850 l 217 867 l 233 850 l 250 867 l 267 850 m 200 717 l 183 700 l 200 683 l 183 667 l 167 683 l 150 667 l 133 683 l 150 700 l 133 717 l 150 733 l 167 717 l 183 733 l 200 717 m 267 650 l 250 633 l 267 617 l 250 600 l 233 617 l 217 600 l 200 617 l 217 633 l 200 650 l 217 667 l 233 650 l 250 667 l 267 650 m 333 650 l 317 633 l 333 617 l 317 600 l 300 617 l 283 600 l 267 617 l 283 633 l 267 650 l 283 667 l 300 650 l 317 667 l 333 650 m 267 783 l 250 767 l 267 750 l 250 733 l 233 750 l 217 733 l 200 750 l 217 767 l 200 783 l 217 800 l 233 783 l 250 800 l 267 783 m 267 717 l 250 700 l 267 683 l 250 667 l 233 683 l 217 667 l 200 683 l 217 700 l 200 717 l 217 733 l 233 717 l 250 733 l 267 717 m 467 650 l 450 633 l 467 617 l 450 600 l 433 617 l 417 600 l 400 617 l 417 633 l 400 650 l 417 667 l 433 650 l 450 667 l 467 650 m 467 917 l 450 900 l 467 883 l 450 867 l 433 883 l 417 867 l 400 883 l 417 900 l 400 917 l 417 933 l 433 917 l 450 933 l 467 917 m 533 717 l 517 700 l 533 683 l 517 667 l 500 683 l 483 667 l 467 683 l 483 700 l 467 717 l 483 733 l 500 717 l 517 733 l 533 717 m 533 783 l 517 767 l 533 750 l 517 733 l 500 750 l 483 733 l 467 750 l 483 767 l 467 783 l 483 800 l 500 783 l 517 800 l 533 783 m 600 783 l 583 767 l 600 750 l 583 733 l 567 750 l 550 733 l 533 750 l 550 767 l 533 783 l 550 800 l 567 783 l 583 800 l 600 783 m 533 917 l 517 900 l 533 883 l 517 867 l 500 883 l 483 867 l 467 883 l 483 900 l 467 917 l 483 933 l 500 917 l 517 933 l 533 917 m 600 850 l 583 833 l 600 817 l 583 800 l 567 817 l 550 800 l 533 817 l 550 833 l 533 850 l 550 867 l 567 850 l 583 867 l 600 850 m 533 850 l 517 833 l 533 817 l 517 800 l 500 817 l 483 800 l 467 817 l 483 833 l 467 850 l 483 867 l 500 850 l 517 867 l 533 850 m 200 850 l 183 833 l 200 817 l 183 800 l 167 817 l 150 800 l 133 817 l 150 833 l 133 850 l 150 867 l 167 850 l 183 867 l 200 850 m 200 783 l 183 767 l 200 750 l 183 733 l 167 750 l 150 733 l 133 750 l 150 767 l 133 783 l 150 800 l 167 783 l 183 800 l 200 783 m 467 983 l 450 967 l 467 950 l 450 933 l 433 950 l 417 933 l 400 950 l 417 967 l 400 983 l 417 1000 l 433 983 l 450 1000 l 467 983 m 333 917 l 317 900 l 333 883 l 317 867 l 300 883 l 283 867 l 267 883 l 283 900 l 267 917 l 283 933 l 300 917 l 317 933 l 333 917 m 267 917 l 250 900 l 267 883 l 250 867 l 233 883 l 217 867 l 200 883 l 217 900 l 200 917 l 217 933 l 233 917 l 250 933 l 267 917 m 333 983 l 317 967 l 333 950 l 317 933 l 300 950 l 283 933 l 267 950 l 283 967 l 267 983 l 283 1000 l 300 983 l 317 1000 l 333 983 m 400 650 l 383 633 l 400 617 l 383 600 l 367 617 l 350 600 l 333 617 l 350 633 l 333 650 l 350 667 l 367 650 l 383 667 l 400 650 m 333 717 l 317 700 l 333 683 l 317 667 l 300 683 l 283 667 l 267 683 l 283 700 l 267 717 l 283 733 l 300 717 l 317 733 l 333 717 z "},"9":{"ha":800,"x_min":67,"x_max":733,"o":"m 600 550 l 617 567 l 600 583 l 617 600 l 633 583 l 650 600 l 667 583 l 650 567 l 667 550 l 650 533 l 633 550 l 617 533 l 600 550 m 667 550 l 683 567 l 667 583 l 683 600 l 700 583 l 717 600 l 733 583 l 717 567 l 733 550 l 717 533 l 700 550 l 683 533 l 667 550 m 600 617 l 617 633 l 600 650 l 617 667 l 633 650 l 650 667 l 667 650 l 650 633 l 667 617 l 650 600 l 633 617 l 617 600 l 600 617 m 667 617 l 683 633 l 667 650 l 683 667 l 700 650 l 717 667 l 733 650 l 717 633 l 733 617 l 717 600 l 700 617 l 683 600 l 667 617 m 600 483 l 617 500 l 600 517 l 617 533 l 633 517 l 650 533 l 667 517 l 650 500 l 667 483 l 650 467 l 633 483 l 617 467 l 600 483 m 600 417 l 617 433 l 600 450 l 617 467 l 633 450 l 650 467 l 667 450 l 650 433 l 667 417 l 650 400 l 633 417 l 617 400 l 600 417 m 600 283 l 617 300 l 600 317 l 617 333 l 633 317 l 650 333 l 667 317 l 650 300 l 667 283 l 650 267 l 633 283 l 617 267 l 600 283 m 600 350 l 617 367 l 600 383 l 617 400 l 633 383 l 650 400 l 667 383 l 650 367 l 667 350 l 650 333 l 633 350 l 617 333 l 600 350 m 533 550 l 550 567 l 533 583 l 550 600 l 567 583 l 583 600 l 600 583 l 583 567 l 600 550 l 583 533 l 567 550 l 550 533 l 533 550 m 533 617 l 550 633 l 533 650 l 550 667 l 567 650 l 583 667 l 600 650 l 583 633 l 600 617 l 583 600 l 567 617 l 550 600 l 533 617 m 467 150 l 483 167 l 467 183 l 483 200 l 500 183 l 517 200 l 533 183 l 517 167 l 533 150 l 517 133 l 500 150 l 483 133 l 467 150 m 533 217 l 550 233 l 533 250 l 550 267 l 567 250 l 583 267 l 600 250 l 583 233 l 600 217 l 583 200 l 567 217 l 550 200 l 533 217 m 667 483 l 683 500 l 667 517 l 683 533 l 700 517 l 717 533 l 733 517 l 717 500 l 733 483 l 717 467 l 700 483 l 683 467 l 667 483 m 400 83 l 417 100 l 400 117 l 417 133 l 433 117 l 450 133 l 467 117 l 450 100 l 467 83 l 450 67 l 433 83 l 417 67 l 400 83 m 333 83 l 350 100 l 333 117 l 350 133 l 367 117 l 383 133 l 400 117 l 383 100 l 400 83 l 383 67 l 367 83 l 350 67 l 333 83 m 333 17 l 350 33 l 333 50 l 350 67 l 367 50 l 383 67 l 400 50 l 383 33 l 400 17 l 383 0 l 367 17 l 350 0 l 333 17 m 267 83 l 283 100 l 267 117 l 283 133 l 300 117 l 317 133 l 333 117 l 317 100 l 333 83 l 317 67 l 300 83 l 283 67 l 267 83 m 200 83 l 217 100 l 200 117 l 217 133 l 233 117 l 250 133 l 267 117 l 250 100 l 267 83 l 250 67 l 233 83 l 217 67 l 200 83 m 200 17 l 217 33 l 200 50 l 217 67 l 233 50 l 250 67 l 267 50 l 250 33 l 267 17 l 250 0 l 233 17 l 217 0 l 200 17 m 200 150 l 217 167 l 200 183 l 217 200 l 233 183 l 250 200 l 267 183 l 250 167 l 267 150 l 250 133 l 233 150 l 217 133 l 200 150 m 267 150 l 283 167 l 267 183 l 283 200 l 300 183 l 317 200 l 333 183 l 317 167 l 333 150 l 317 133 l 300 150 l 283 133 l 267 150 m 267 17 l 283 33 l 267 50 l 283 67 l 300 50 l 317 67 l 333 50 l 317 33 l 333 17 l 317 0 l 300 17 l 283 0 l 267 17 m 133 83 l 150 100 l 133 117 l 150 133 l 167 117 l 183 133 l 200 117 l 183 100 l 200 83 l 183 67 l 167 83 l 150 67 l 133 83 m 67 83 l 83 100 l 67 117 l 83 133 l 100 117 l 117 133 l 133 117 l 117 100 l 133 83 l 117 67 l 100 83 l 83 67 l 67 83 m 133 150 l 150 167 l 133 183 l 150 200 l 167 183 l 183 200 l 200 183 l 183 167 l 200 150 l 183 133 l 167 150 l 150 133 l 133 150 m 533 883 l 550 900 l 533 917 l 550 933 l 567 917 l 583 933 l 600 917 l 583 900 l 600 883 l 583 867 l 567 883 l 550 867 l 533 883 m 533 817 l 550 833 l 533 850 l 550 867 l 567 850 l 583 867 l 600 850 l 583 833 l 600 817 l 583 800 l 567 817 l 550 800 l 533 817 m 467 883 l 483 900 l 467 917 l 483 933 l 500 917 l 517 933 l 533 917 l 517 900 l 533 883 l 517 867 l 500 883 l 483 867 l 467 883 m 467 950 l 483 967 l 467 983 l 483 1000 l 500 983 l 517 1000 l 533 983 l 517 967 l 533 950 l 517 933 l 500 950 l 483 933 l 467 950 m 400 883 l 417 900 l 400 917 l 417 933 l 433 917 l 450 933 l 467 917 l 450 900 l 467 883 l 450 867 l 433 883 l 417 867 l 400 883 m 467 750 l 483 767 l 467 783 l 483 800 l 500 783 l 517 800 l 533 783 l 517 767 l 533 750 l 517 733 l 500 750 l 483 733 l 467 750 m 467 817 l 483 833 l 467 850 l 483 867 l 500 850 l 517 867 l 533 850 l 517 833 l 533 817 l 517 800 l 500 817 l 483 800 l 467 817 m 400 950 l 417 967 l 400 983 l 417 1000 l 433 983 l 450 1000 l 467 983 l 450 967 l 467 950 l 450 933 l 433 950 l 417 933 l 400 950 m 200 883 l 217 900 l 200 917 l 217 933 l 233 917 l 250 933 l 267 917 l 250 900 l 267 883 l 250 867 l 233 883 l 217 867 l 200 883 m 333 417 l 350 433 l 333 450 l 350 467 l 367 450 l 383 467 l 400 450 l 383 433 l 400 417 l 383 400 l 367 417 l 350 400 l 333 417 m 467 483 l 483 500 l 467 517 l 483 533 l 500 517 l 517 533 l 533 517 l 517 500 l 533 483 l 517 467 l 500 483 l 483 467 l 467 483 m 400 417 l 417 433 l 400 450 l 417 467 l 433 450 l 450 467 l 467 450 l 450 433 l 467 417 l 450 400 l 433 417 l 417 400 l 400 417 m 333 950 l 350 967 l 333 983 l 350 1000 l 367 983 l 383 1000 l 400 983 l 383 967 l 400 950 l 383 933 l 367 950 l 350 933 l 333 950 m 267 883 l 283 900 l 267 917 l 283 933 l 300 917 l 317 933 l 333 917 l 317 900 l 333 883 l 317 867 l 300 883 l 283 867 l 267 883 m 133 817 l 150 833 l 133 850 l 150 867 l 167 850 l 183 867 l 200 850 l 183 833 l 200 817 l 183 800 l 167 817 l 150 800 l 133 817 m 200 550 l 217 567 l 200 583 l 217 600 l 233 583 l 250 600 l 267 583 l 250 567 l 267 550 l 250 533 l 233 550 l 217 533 l 200 550 m 200 483 l 217 500 l 200 517 l 217 533 l 233 517 l 250 533 l 267 517 l 250 500 l 267 483 l 250 467 l 233 483 l 217 467 l 200 483 m 200 417 l 217 433 l 200 450 l 217 467 l 233 450 l 250 467 l 267 450 l 250 433 l 267 417 l 250 400 l 233 417 l 217 400 l 200 417 m 267 417 l 283 433 l 267 450 l 283 467 l 300 450 l 317 467 l 333 450 l 317 433 l 333 417 l 317 400 l 300 417 l 283 400 l 267 417 m 267 483 l 283 500 l 267 517 l 283 533 l 300 517 l 317 533 l 333 517 l 317 500 l 333 483 l 317 467 l 300 483 l 283 467 l 267 483 m 133 750 l 150 767 l 133 783 l 150 800 l 167 783 l 183 800 l 200 783 l 183 767 l 200 750 l 183 733 l 167 750 l 150 733 l 133 750 m 133 683 l 150 700 l 133 717 l 150 733 l 167 717 l 183 733 l 200 717 l 183 700 l 200 683 l 183 667 l 167 683 l 150 667 l 133 683 m 67 683 l 83 700 l 67 717 l 83 733 l 100 717 l 117 733 l 133 717 l 117 700 l 133 683 l 117 667 l 100 683 l 83 667 l 67 683 m 67 550 l 83 567 l 67 583 l 83 600 l 100 583 l 117 600 l 133 583 l 117 567 l 133 550 l 117 533 l 100 550 l 83 533 l 67 550 m 133 550 l 150 567 l 133 583 l 150 600 l 167 583 l 183 600 l 200 583 l 183 567 l 200 550 l 183 533 l 167 550 l 150 533 l 133 550 m 67 617 l 83 633 l 67 650 l 83 667 l 100 650 l 117 667 l 133 650 l 117 633 l 133 617 l 117 600 l 100 617 l 83 600 l 67 617 m 133 617 l 150 633 l 133 650 l 150 667 l 167 650 l 183 667 l 200 650 l 183 633 l 200 617 l 183 600 l 167 617 l 150 600 l 133 617 m 67 483 l 83 500 l 67 517 l 83 533 l 100 517 l 117 533 l 133 517 l 117 500 l 133 483 l 117 467 l 100 483 l 83 467 l 67 483 m 133 417 l 150 433 l 133 450 l 150 467 l 167 450 l 183 467 l 200 450 l 183 433 l 200 417 l 183 400 l 167 417 l 150 400 l 133 417 m 133 483 l 150 500 l 133 517 l 150 533 l 167 517 l 183 533 l 200 517 l 183 500 l 200 483 l 183 467 l 167 483 l 150 467 l 133 483 m 200 217 l 217 233 l 200 250 l 217 267 l 233 250 l 250 267 l 267 250 l 250 233 l 267 217 l 250 200 l 233 217 l 217 200 l 200 217 m 667 683 l 683 700 l 667 717 l 683 733 l 700 717 l 717 733 l 733 717 l 717 700 l 733 683 l 717 667 l 700 683 l 683 667 l 667 683 m 533 683 l 550 700 l 533 717 l 550 733 l 567 717 l 583 733 l 600 717 l 583 700 l 600 683 l 583 667 l 567 683 l 550 667 l 533 683 m 600 683 l 617 700 l 600 717 l 617 733 l 633 717 l 650 733 l 667 717 l 650 700 l 667 683 l 650 667 l 633 683 l 617 667 l 600 683 m 533 750 l 550 767 l 533 783 l 550 800 l 567 783 l 583 800 l 600 783 l 583 767 l 600 750 l 583 733 l 567 750 l 550 733 l 533 750 m 600 750 l 617 767 l 600 783 l 617 800 l 633 783 l 650 800 l 667 783 l 650 767 l 667 750 l 650 733 l 633 750 l 617 733 l 600 750 m 467 550 l 483 567 l 467 583 l 483 600 l 500 583 l 517 600 l 533 583 l 517 567 l 533 550 l 517 533 l 500 550 l 483 533 l 467 550 z "}," ":{"ha":800,"x_min":0,"x_max":0,"o":""},"":{"ha":800,"x_min":0,"x_max":0,"o":""},"f":{"ha":400,"x_min":0,"x_max":400,"o":"m 283 933 l 300 917 l 317 933 l 333 917 l 317 900 l 333 883 l 317 867 l 300 883 l 283 867 l 267 883 l 283 900 l 267 917 l 283 933 m 150 933 l 167 917 l 183 933 l 200 917 l 183 900 l 200 883 l 183 867 l 167 883 l 150 867 l 133 883 l 150 900 l 133 917 l 150 933 m 217 933 l 233 917 l 250 933 l 267 917 l 250 900 l 267 883 l 250 867 l 233 883 l 217 867 l 200 883 l 217 900 l 200 917 l 217 933 m 350 933 l 367 917 l 383 933 l 400 917 l 383 900 l 400 883 l 383 867 l 367 883 l 350 867 l 333 883 l 350 900 l 333 917 l 350 933 m 350 867 l 367 850 l 383 867 l 400 850 l 383 833 l 400 817 l 383 800 l 367 817 l 350 800 l 333 817 l 350 833 l 333 850 l 350 867 m 283 1000 l 300 983 l 317 1000 l 333 983 l 317 967 l 333 950 l 317 933 l 300 950 l 283 933 l 267 950 l 283 967 l 267 983 l 283 1000 m 217 533 l 233 517 l 250 533 l 267 517 l 250 500 l 267 483 l 250 467 l 233 483 l 217 467 l 200 483 l 217 500 l 200 517 l 217 533 m 217 600 l 233 583 l 250 600 l 267 583 l 250 567 l 267 550 l 250 533 l 233 550 l 217 533 l 200 550 l 217 567 l 200 583 l 217 600 m 283 533 l 300 517 l 317 533 l 333 517 l 317 500 l 333 483 l 317 467 l 300 483 l 283 467 l 267 483 l 283 500 l 267 517 l 283 533 m 283 600 l 300 583 l 317 600 l 333 583 l 317 567 l 333 550 l 317 533 l 300 550 l 283 533 l 267 550 l 283 567 l 267 583 l 283 600 m 350 667 l 367 650 l 383 667 l 400 650 l 383 633 l 400 617 l 383 600 l 367 617 l 350 600 l 333 617 l 350 633 l 333 650 l 350 667 m 150 867 l 167 850 l 183 867 l 200 850 l 183 833 l 200 817 l 183 800 l 167 817 l 150 800 l 133 817 l 150 833 l 133 850 l 150 867 m 83 867 l 100 850 l 117 867 l 133 850 l 117 833 l 133 817 l 117 800 l 100 817 l 83 800 l 67 817 l 83 833 l 67 850 l 83 867 m 150 800 l 167 783 l 183 800 l 200 783 l 183 767 l 200 750 l 183 733 l 167 750 l 150 733 l 133 750 l 150 767 l 133 783 l 150 800 m 83 800 l 100 783 l 117 800 l 133 783 l 117 767 l 133 750 l 117 733 l 100 750 l 83 733 l 67 750 l 83 767 l 67 783 l 83 800 m 83 667 l 100 650 l 117 667 l 133 650 l 117 633 l 133 617 l 117 600 l 100 617 l 83 600 l 67 617 l 83 633 l 67 650 l 83 667 m 150 667 l 167 650 l 183 667 l 200 650 l 183 633 l 200 617 l 183 600 l 167 617 l 150 600 l 133 617 l 150 633 l 133 650 l 150 667 m 150 733 l 167 717 l 183 733 l 200 717 l 183 700 l 200 683 l 183 667 l 167 683 l 150 667 l 133 683 l 150 700 l 133 717 l 150 733 m 83 733 l 100 717 l 117 733 l 133 717 l 117 700 l 133 683 l 117 667 l 100 683 l 83 667 l 67 683 l 83 700 l 67 717 l 83 733 m 150 600 l 167 583 l 183 600 l 200 583 l 183 567 l 200 550 l 183 533 l 167 550 l 150 533 l 133 550 l 150 567 l 133 583 l 150 600 m 83 600 l 100 583 l 117 600 l 133 583 l 117 567 l 133 550 l 117 533 l 100 550 l 83 533 l 67 550 l 83 567 l 67 583 l 83 600 m 83 467 l 100 450 l 117 467 l 133 450 l 117 433 l 133 417 l 117 400 l 100 417 l 83 400 l 67 417 l 83 433 l 67 450 l 83 467 m 150 467 l 167 450 l 183 467 l 200 450 l 183 433 l 200 417 l 183 400 l 167 417 l 150 400 l 133 417 l 150 433 l 133 450 l 150 467 m 150 533 l 167 517 l 183 533 l 200 517 l 183 500 l 200 483 l 183 467 l 167 483 l 150 467 l 133 483 l 150 500 l 133 517 l 150 533 m 83 533 l 100 517 l 117 533 l 133 517 l 117 500 l 133 483 l 117 467 l 100 483 l 83 467 l 67 483 l 83 500 l 67 517 l 83 533 m 150 400 l 167 383 l 183 400 l 200 383 l 183 367 l 200 350 l 183 333 l 167 350 l 150 333 l 133 350 l 150 367 l 133 383 l 150 400 m 83 400 l 100 383 l 117 400 l 133 383 l 117 367 l 133 350 l 117 333 l 100 350 l 83 333 l 67 350 l 83 367 l 67 383 l 83 400 m 83 133 l 100 117 l 117 133 l 133 117 l 117 100 l 133 83 l 117 67 l 100 83 l 83 67 l 67 83 l 83 100 l 67 117 l 83 133 m 150 133 l 167 117 l 183 133 l 200 117 l 183 100 l 200 83 l 183 67 l 167 83 l 150 67 l 133 83 l 150 100 l 133 117 l 150 133 m 150 200 l 167 183 l 183 200 l 200 183 l 183 167 l 200 150 l 183 133 l 167 150 l 150 133 l 133 150 l 150 167 l 133 183 l 150 200 m 83 200 l 100 183 l 117 200 l 133 183 l 117 167 l 133 150 l 117 133 l 100 150 l 83 133 l 67 150 l 83 167 l 67 183 l 83 200 m 150 267 l 167 250 l 183 267 l 200 250 l 183 233 l 200 217 l 183 200 l 167 217 l 150 200 l 133 217 l 150 233 l 133 250 l 150 267 m 83 267 l 100 250 l 117 267 l 133 250 l 117 233 l 133 217 l 117 200 l 100 217 l 83 200 l 67 217 l 83 233 l 67 250 l 83 267 m 150 333 l 167 317 l 183 333 l 200 317 l 183 300 l 200 283 l 183 267 l 167 283 l 150 267 l 133 283 l 150 300 l 133 317 l 150 333 m 83 333 l 100 317 l 117 333 l 133 317 l 117 300 l 133 283 l 117 267 l 100 283 l 83 267 l 67 283 l 83 300 l 67 317 l 83 333 m 183 0 l 167 -17 l 150 0 l 133 -17 l 150 -33 l 133 -50 l 150 -67 l 167 -50 l 183 -67 l 200 -50 l 183 -33 l 200 -17 l 183 0 m 250 0 l 233 -17 l 217 0 l 200 -17 l 217 -33 l 200 -50 l 217 -67 l 233 -50 l 250 -67 l 267 -50 l 250 -33 l 267 -17 l 250 0 m 117 0 l 100 -17 l 83 0 l 67 -17 l 83 -33 l 67 -50 l 83 -67 l 100 -50 l 117 -67 l 133 -50 l 117 -33 l 133 -17 l 117 0 m 117 -67 l 100 -83 l 83 -67 l 67 -83 l 83 -100 l 67 -117 l 83 -133 l 100 -117 l 117 -133 l 133 -117 l 117 -100 l 133 -83 l 117 -67 m 183 -67 l 167 -83 l 150 -67 l 133 -83 l 150 -100 l 133 -117 l 150 -133 l 167 -117 l 183 -133 l 200 -117 l 183 -100 l 200 -83 l 183 -67 m 117 -133 l 100 -150 l 83 -133 l 67 -150 l 83 -167 l 67 -183 l 83 -200 l 100 -183 l 117 -200 l 133 -183 l 117 -167 l 133 -150 l 117 -133 m 83 67 l 100 50 l 117 67 l 133 50 l 117 33 l 133 17 l 117 0 l 100 17 l 83 0 l 67 17 l 83 33 l 67 50 l 83 67 m 150 67 l 167 50 l 183 67 l 200 50 l 183 33 l 200 17 l 183 0 l 167 17 l 150 0 l 133 17 l 150 33 l 133 50 l 150 67 m 283 800 l 300 783 l 317 800 l 333 783 l 317 767 l 333 750 l 317 733 l 300 750 l 283 733 l 267 750 l 283 767 l 267 783 l 283 800 m 217 1000 l 233 983 l 250 1000 l 267 983 l 250 967 l 267 950 l 250 933 l 233 950 l 217 933 l 200 950 l 217 967 l 200 983 l 217 1000 m 17 533 l 33 517 l 50 533 l 67 517 l 50 500 l 67 483 l 50 467 l 33 483 l 17 467 l 0 483 l 17 500 l 0 517 l 17 533 z "},"g":{"ha":533,"x_min":67,"x_max":533,"o":"m 533 -83 l 517 -100 l 533 -117 l 517 -133 l 500 -117 l 483 -133 l 467 -117 l 483 -100 l 467 -83 l 483 -67 l 500 -83 l 517 -67 l 533 -83 m 467 -151 l 450 -168 l 467 -185 l 450 -201 l 433 -185 l 417 -201 l 400 -185 l 417 -168 l 400 -151 l 417 -135 l 433 -151 l 450 -135 l 467 -151 m 400 -218 l 383 -235 l 400 -251 l 383 -268 l 367 -251 l 350 -268 l 333 -251 l 350 -235 l 333 -218 l 350 -201 l 367 -218 l 383 -201 l 400 -218 m 333 -218 l 317 -235 l 333 -251 l 317 -268 l 300 -251 l 283 -268 l 267 -251 l 283 -235 l 267 -218 l 283 -201 l 300 -218 l 317 -201 l 333 -218 m 267 -218 l 250 -235 l 267 -251 l 250 -268 l 233 -251 l 217 -268 l 200 -251 l 217 -235 l 200 -218 l 217 -201 l 233 -218 l 250 -201 l 267 -218 m 333 -151 l 317 -168 l 333 -185 l 317 -201 l 300 -185 l 283 -201 l 267 -185 l 283 -168 l 267 -151 l 283 -135 l 300 -151 l 317 -135 l 333 -151 m 267 -151 l 250 -168 l 267 -185 l 250 -201 l 233 -185 l 217 -201 l 200 -185 l 217 -168 l 200 -151 l 217 -135 l 233 -151 l 250 -135 l 267 -151 m 200 -151 l 183 -168 l 200 -185 l 183 -201 l 167 -185 l 150 -201 l 133 -185 l 150 -168 l 133 -151 l 150 -135 l 167 -151 l 183 -135 l 200 -151 m 200 -85 l 183 -101 l 200 -118 l 183 -135 l 167 -118 l 150 -135 l 133 -118 l 150 -101 l 133 -85 l 150 -68 l 167 -85 l 183 -68 l 200 -85 m 133 -85 l 117 -101 l 133 -118 l 117 -135 l 100 -118 l 83 -135 l 67 -118 l 83 -101 l 67 -85 l 83 -68 l 100 -85 l 117 -68 l 133 -85 m 267 -85 l 250 -101 l 267 -118 l 250 -135 l 233 -118 l 217 -135 l 200 -118 l 217 -101 l 200 -85 l 217 -68 l 233 -85 l 250 -68 l 267 -85 m 400 117 l 383 100 l 400 83 l 383 67 l 367 83 l 350 67 l 333 83 l 350 100 l 333 117 l 350 133 l 367 117 l 383 133 l 400 117 m 467 50 l 450 33 l 467 17 l 450 0 l 433 17 l 417 0 l 400 17 l 417 33 l 400 50 l 417 67 l 433 50 l 450 67 l 467 50 m 467 117 l 450 100 l 467 83 l 450 67 l 433 83 l 417 67 l 400 83 l 417 100 l 400 117 l 417 133 l 433 117 l 450 133 l 467 117 m 533 -17 l 517 -33 l 533 -50 l 517 -67 l 500 -50 l 483 -67 l 467 -50 l 483 -33 l 467 -17 l 483 0 l 500 -17 l 517 0 l 533 -17 m 467 -17 l 450 -33 l 467 -50 l 450 -67 l 433 -50 l 417 -67 l 400 -50 l 417 -33 l 400 -17 l 417 0 l 433 -17 l 450 0 l 467 -17 m 467 183 l 450 167 l 467 150 l 450 133 l 433 150 l 417 133 l 400 150 l 417 167 l 400 183 l 417 200 l 433 183 l 450 200 l 467 183 m 467 250 l 450 233 l 467 217 l 450 200 l 433 217 l 417 200 l 400 217 l 417 233 l 400 250 l 417 267 l 433 250 l 450 267 l 467 250 m 467 317 l 450 300 l 467 283 l 450 267 l 433 283 l 417 267 l 400 283 l 417 300 l 400 317 l 417 333 l 433 317 l 450 333 l 467 317 m 400 250 l 383 233 l 400 217 l 383 200 l 367 217 l 350 200 l 333 217 l 350 233 l 333 250 l 350 267 l 367 250 l 383 267 l 400 250 m 400 317 l 383 300 l 400 283 l 383 267 l 367 283 l 350 267 l 333 283 l 350 300 l 333 317 l 350 333 l 367 317 l 383 333 l 400 317 m 400 383 l 383 367 l 400 350 l 383 333 l 367 350 l 350 333 l 333 350 l 350 367 l 333 383 l 350 400 l 367 383 l 383 400 l 400 383 m 467 383 l 450 367 l 467 350 l 450 333 l 433 350 l 417 333 l 400 350 l 417 367 l 400 383 l 417 400 l 433 383 l 450 400 l 467 383 m 467 450 l 450 433 l 467 417 l 450 400 l 433 417 l 417 400 l 400 417 l 417 433 l 400 450 l 417 467 l 433 450 l 450 467 l 467 450 m 467 517 l 450 500 l 467 483 l 450 467 l 433 483 l 417 467 l 400 483 l 417 500 l 400 517 l 417 533 l 433 517 l 450 533 l 467 517 m 467 583 l 450 567 l 467 550 l 450 533 l 433 550 l 417 533 l 400 550 l 417 567 l 400 583 l 417 600 l 433 583 l 450 600 l 467 583 m 467 650 l 450 633 l 467 617 l 450 600 l 433 617 l 417 600 l 400 617 l 417 633 l 400 650 l 417 667 l 433 650 l 450 667 l 467 650 m 400 650 l 383 633 l 400 617 l 383 600 l 367 617 l 350 600 l 333 617 l 350 633 l 333 650 l 350 667 l 367 650 l 383 667 l 400 650 m 333 650 l 317 633 l 333 617 l 317 600 l 300 617 l 283 600 l 267 617 l 283 633 l 267 650 l 283 667 l 300 650 l 317 667 l 333 650 m 267 583 l 250 567 l 267 550 l 250 533 l 233 550 l 217 533 l 200 550 l 217 567 l 200 583 l 217 600 l 233 583 l 250 600 l 267 583 m 267 517 l 250 500 l 267 483 l 250 467 l 233 483 l 217 467 l 200 483 l 217 500 l 200 517 l 217 533 l 233 517 l 250 533 l 267 517 m 200 517 l 183 500 l 200 483 l 183 467 l 167 483 l 150 467 l 133 483 l 150 500 l 133 517 l 150 533 l 167 517 l 183 533 l 200 517 m 200 450 l 183 433 l 200 417 l 183 400 l 167 417 l 150 400 l 133 417 l 150 433 l 133 450 l 150 467 l 167 450 l 183 467 l 200 450 m 200 383 l 183 367 l 200 350 l 183 333 l 167 350 l 150 333 l 133 350 l 150 367 l 133 383 l 150 400 l 167 383 l 183 400 l 200 383 m 133 383 l 117 367 l 133 350 l 117 333 l 100 350 l 83 333 l 67 350 l 83 367 l 67 383 l 83 400 l 100 383 l 117 400 l 133 383 m 133 317 l 117 300 l 133 283 l 117 267 l 100 283 l 83 267 l 67 283 l 83 300 l 67 317 l 83 333 l 100 317 l 117 333 l 133 317 m 200 317 l 183 300 l 200 283 l 183 267 l 167 283 l 150 267 l 133 283 l 150 300 l 133 317 l 150 333 l 167 317 l 183 333 l 200 317 m 200 250 l 183 233 l 200 217 l 183 200 l 167 217 l 150 200 l 133 217 l 150 233 l 133 250 l 150 267 l 167 250 l 183 267 l 200 250 m 133 250 l 117 233 l 133 217 l 117 200 l 100 217 l 83 200 l 67 217 l 83 233 l 67 250 l 83 267 l 100 250 l 117 267 l 133 250 m 200 183 l 183 167 l 200 150 l 183 133 l 167 150 l 150 133 l 133 150 l 150 167 l 133 183 l 150 200 l 167 183 l 183 200 l 200 183 m 267 183 l 250 167 l 267 150 l 250 133 l 233 150 l 217 133 l 200 150 l 217 167 l 200 183 l 217 200 l 233 183 l 250 200 l 267 183 m 267 117 l 250 100 l 267 83 l 250 67 l 233 83 l 217 67 l 200 83 l 217 100 l 200 117 l 217 133 l 233 117 l 250 133 l 267 117 m 200 117 l 183 100 l 200 83 l 183 67 l 167 83 l 150 67 l 133 83 l 150 100 l 133 117 l 150 133 l 167 117 l 183 133 l 200 117 m 333 117 l 317 100 l 333 83 l 317 67 l 300 83 l 283 67 l 267 83 l 283 100 l 267 117 l 283 133 l 300 117 l 317 133 l 333 117 m 333 50 l 317 33 l 333 17 l 317 0 l 300 17 l 283 0 l 267 17 l 283 33 l 267 50 l 283 67 l 300 50 l 317 67 l 333 50 m 400 183 l 383 167 l 400 150 l 383 133 l 367 150 l 350 133 l 333 150 l 350 167 l 333 183 l 350 200 l 367 183 l 383 200 l 400 183 m 533 650 l 517 633 l 533 617 l 517 600 l 500 617 l 483 600 l 467 617 l 483 633 l 467 650 l 483 667 l 500 650 l 517 667 l 533 650 z "},"h":{"ha":600,"x_min":0,"x_max":533,"o":"m 200 117 l 183 100 l 200 83 l 183 67 l 167 83 l 150 67 l 133 83 l 150 100 l 133 117 l 150 133 l 167 117 l 183 133 l 200 117 m 200 183 l 183 167 l 200 150 l 183 133 l 167 150 l 150 133 l 133 150 l 150 167 l 133 183 l 150 200 l 167 183 l 183 200 l 200 183 m 200 250 l 183 233 l 200 217 l 183 200 l 167 217 l 150 200 l 133 217 l 150 233 l 133 250 l 150 267 l 167 250 l 183 267 l 200 250 m 133 250 l 117 233 l 133 217 l 117 200 l 100 217 l 83 200 l 67 217 l 83 233 l 67 250 l 83 267 l 100 250 l 117 267 l 133 250 m 133 317 l 117 300 l 133 283 l 117 267 l 100 283 l 83 267 l 67 283 l 83 300 l 67 317 l 83 333 l 100 317 l 117 333 l 133 317 m 200 317 l 183 300 l 200 283 l 183 267 l 167 283 l 150 267 l 133 283 l 150 300 l 133 317 l 150 333 l 167 317 l 183 333 l 200 317 m 200 450 l 183 433 l 200 417 l 183 400 l 167 417 l 150 400 l 133 417 l 150 433 l 133 450 l 150 467 l 167 450 l 183 467 l 200 450 m 133 450 l 117 433 l 133 417 l 117 400 l 100 417 l 83 400 l 67 417 l 83 433 l 67 450 l 83 467 l 100 450 l 117 467 l 133 450 m 200 383 l 183 367 l 200 350 l 183 333 l 167 350 l 150 333 l 133 350 l 150 367 l 133 383 l 150 400 l 167 383 l 183 400 l 200 383 m 133 383 l 117 367 l 133 350 l 117 333 l 100 350 l 83 333 l 67 350 l 83 367 l 67 383 l 83 400 l 100 383 l 117 400 l 133 383 m 200 517 l 183 500 l 200 483 l 183 467 l 167 483 l 150 467 l 133 483 l 150 500 l 133 517 l 150 533 l 167 517 l 183 533 l 200 517 m 200 583 l 183 567 l 200 550 l 183 533 l 167 550 l 150 533 l 133 550 l 150 567 l 133 583 l 150 600 l 167 583 l 183 600 l 200 583 m 133 917 l 117 900 l 133 883 l 117 867 l 100 883 l 83 867 l 67 883 l 83 900 l 67 917 l 83 933 l 100 917 l 117 933 l 133 917 m 200 917 l 183 900 l 200 883 l 183 867 l 167 883 l 150 867 l 133 883 l 150 900 l 133 917 l 150 933 l 167 917 l 183 933 l 200 917 m 200 983 l 183 967 l 200 950 l 183 933 l 167 950 l 150 933 l 133 950 l 150 967 l 133 983 l 150 1000 l 167 983 l 183 1000 l 200 983 m 200 850 l 183 833 l 200 817 l 183 800 l 167 817 l 150 800 l 133 817 l 150 833 l 133 850 l 150 867 l 167 850 l 183 867 l 200 850 m 133 850 l 117 833 l 133 817 l 117 800 l 100 817 l 83 800 l 67 817 l 83 833 l 67 850 l 83 867 l 100 850 l 117 867 l 133 850 m 67 850 l 50 833 l 67 817 l 50 800 l 33 817 l 17 800 l 0 817 l 17 833 l 0 850 l 17 867 l 33 850 l 50 867 l 67 850 m 133 783 l 117 767 l 133 750 l 117 733 l 100 750 l 83 733 l 67 750 l 83 767 l 67 783 l 83 800 l 100 783 l 117 800 l 133 783 m 200 783 l 183 767 l 200 750 l 183 733 l 167 750 l 150 733 l 133 750 l 150 767 l 133 783 l 150 800 l 167 783 l 183 800 l 200 783 m 133 717 l 117 700 l 133 683 l 117 667 l 100 683 l 83 667 l 67 683 l 83 700 l 67 717 l 83 733 l 100 717 l 117 733 l 133 717 m 200 717 l 183 700 l 200 683 l 183 667 l 167 683 l 150 667 l 133 683 l 150 700 l 133 717 l 150 733 l 167 717 l 183 733 l 200 717 m 200 650 l 183 633 l 200 617 l 183 600 l 167 617 l 150 600 l 133 617 l 150 633 l 133 650 l 150 667 l 167 650 l 183 667 l 200 650 m 133 583 l 117 567 l 133 550 l 117 533 l 100 550 l 83 533 l 67 550 l 83 567 l 67 583 l 83 600 l 100 583 l 117 600 l 133 583 m 133 517 l 117 500 l 133 483 l 117 467 l 100 483 l 83 467 l 67 483 l 83 500 l 67 517 l 83 533 l 100 517 l 117 533 l 133 517 m 333 583 l 317 567 l 333 550 l 317 533 l 300 550 l 283 533 l 267 550 l 283 567 l 267 583 l 283 600 l 300 583 l 317 600 l 333 583 m 400 650 l 383 633 l 400 617 l 383 600 l 367 617 l 350 600 l 333 617 l 350 633 l 333 650 l 350 667 l 367 650 l 383 667 l 400 650 m 467 583 l 450 567 l 467 550 l 450 533 l 433 550 l 417 533 l 400 550 l 417 567 l 400 583 l 417 600 l 433 583 l 450 600 l 467 583 m 400 583 l 383 567 l 400 550 l 383 533 l 367 550 l 350 533 l 333 550 l 350 567 l 333 583 l 350 600 l 367 583 l 383 600 l 400 583 m 533 517 l 517 500 l 533 483 l 517 467 l 500 483 l 483 467 l 467 483 l 483 500 l 467 517 l 483 533 l 500 517 l 517 533 l 533 517 m 467 517 l 450 500 l 467 483 l 450 467 l 433 483 l 417 467 l 400 483 l 417 500 l 400 517 l 417 533 l 433 517 l 450 533 l 467 517 m 467 450 l 450 433 l 467 417 l 450 400 l 433 417 l 417 400 l 400 417 l 417 433 l 400 450 l 417 467 l 433 450 l 450 467 l 467 450 m 533 450 l 517 433 l 533 417 l 517 400 l 500 417 l 483 400 l 467 417 l 483 433 l 467 450 l 483 467 l 500 450 l 517 467 l 533 450 m 533 317 l 517 300 l 533 283 l 517 267 l 500 283 l 483 267 l 467 283 l 483 300 l 467 317 l 483 333 l 500 317 l 517 333 l 533 317 m 533 250 l 517 233 l 533 217 l 517 200 l 500 217 l 483 200 l 467 217 l 483 233 l 467 250 l 483 267 l 500 250 l 517 267 l 533 250 m 533 183 l 517 167 l 533 150 l 517 133 l 500 150 l 483 133 l 467 150 l 483 167 l 467 183 l 483 200 l 500 183 l 517 200 l 533 183 m 533 117 l 517 100 l 533 83 l 517 67 l 500 83 l 483 67 l 467 83 l 483 100 l 467 117 l 483 133 l 500 117 l 517 133 l 533 117 m 467 117 l 450 100 l 467 83 l 450 67 l 433 83 l 417 67 l 400 83 l 417 100 l 400 117 l 417 133 l 433 117 l 450 133 l 467 117 m 467 50 l 450 33 l 467 17 l 450 0 l 433 17 l 417 0 l 400 17 l 417 33 l 400 50 l 417 67 l 433 50 l 450 67 l 467 50 m 467 317 l 450 300 l 467 283 l 450 267 l 433 283 l 417 267 l 400 283 l 417 300 l 400 317 l 417 333 l 433 317 l 450 333 l 467 317 m 467 250 l 450 233 l 467 217 l 450 200 l 433 217 l 417 200 l 400 217 l 417 233 l 400 250 l 417 267 l 433 250 l 450 267 l 467 250 m 467 183 l 450 167 l 467 150 l 450 133 l 433 150 l 417 133 l 400 150 l 417 167 l 400 183 l 417 200 l 433 183 l 450 200 l 467 183 m 400 -17 l 383 -33 l 400 -50 l 383 -67 l 367 -50 l 350 -67 l 333 -50 l 350 -33 l 333 -17 l 350 0 l 367 -17 l 383 0 l 400 -17 m 467 -17 l 450 -33 l 467 -50 l 450 -67 l 433 -50 l 417 -67 l 400 -50 l 417 -33 l 400 -17 l 417 0 l 433 -17 l 450 0 l 467 -17 m 333 -85 l 317 -101 l 333 -118 l 317 -135 l 300 -118 l 283 -135 l 267 -118 l 283 -101 l 267 -85 l 283 -68 l 300 -85 l 317 -68 l 333 -85 m 467 383 l 450 367 l 467 350 l 450 333 l 433 350 l 417 333 l 400 350 l 417 367 l 400 383 l 417 400 l 433 383 l 450 400 l 467 383 m 533 383 l 517 367 l 533 350 l 517 333 l 500 350 l 483 333 l 467 350 l 483 367 l 467 383 l 483 400 l 500 383 l 517 400 l 533 383 m 133 117 l 117 100 l 133 83 l 117 67 l 100 83 l 83 67 l 67 83 l 83 100 l 67 117 l 83 133 l 100 117 l 117 133 l 133 117 m 133 183 l 117 167 l 133 150 l 117 133 l 100 150 l 83 133 l 67 150 l 83 167 l 67 183 l 83 200 l 100 183 l 117 200 l 133 183 m 133 50 l 117 33 l 133 17 l 117 0 l 100 17 l 83 0 l 67 17 l 83 33 l 67 50 l 83 67 l 100 50 l 117 67 l 133 50 m 267 183 l 250 167 l 267 150 l 250 133 l 233 150 l 217 133 l 200 150 l 217 167 l 200 183 l 217 200 l 233 183 l 250 200 l 267 183 m 133 650 l 117 633 l 133 617 l 117 600 l 100 617 l 83 600 l 67 617 l 83 633 l 67 650 l 83 667 l 100 650 l 117 667 l 133 650 m 267 517 l 250 500 l 267 483 l 250 467 l 233 483 l 217 467 l 200 483 l 217 500 l 200 517 l 217 533 l 233 517 l 250 533 l 267 517 z "},"i":{"ha":267,"x_min":0,"x_max":267,"o":"m 133 583 l 117 567 l 133 550 l 117 533 l 100 550 l 83 533 l 67 550 l 83 567 l 67 583 l 83 600 l 100 583 l 117 600 l 133 583 m 200 583 l 183 567 l 200 550 l 183 533 l 167 550 l 150 533 l 133 550 l 150 567 l 133 583 l 150 600 l 167 583 l 183 600 l 200 583 m 200 650 l 183 633 l 200 617 l 183 600 l 167 617 l 150 600 l 133 617 l 150 633 l 133 650 l 150 667 l 167 650 l 183 667 l 200 650 m 200 783 l 183 767 l 200 750 l 183 733 l 167 750 l 150 733 l 133 750 l 150 767 l 133 783 l 150 800 l 167 783 l 183 800 l 200 783 m 133 783 l 117 767 l 133 750 l 117 733 l 100 750 l 83 733 l 67 750 l 83 767 l 67 783 l 83 800 l 100 783 l 117 800 l 133 783 m 67 783 l 50 767 l 67 750 l 50 733 l 33 750 l 17 733 l 0 750 l 17 767 l 0 783 l 17 800 l 33 783 l 50 800 l 67 783 m 200 850 l 183 833 l 200 817 l 183 800 l 167 817 l 150 800 l 133 817 l 150 833 l 133 850 l 150 867 l 167 850 l 183 867 l 200 850 m 133 850 l 117 833 l 133 817 l 117 800 l 100 817 l 83 800 l 67 817 l 83 833 l 67 850 l 83 867 l 100 850 l 117 867 l 133 850 m 267 850 l 250 833 l 267 817 l 250 800 l 233 817 l 217 800 l 200 817 l 217 833 l 200 850 l 217 867 l 233 850 l 250 867 l 267 850 m 200 517 l 183 500 l 200 483 l 183 467 l 167 483 l 150 467 l 133 483 l 150 500 l 133 517 l 150 533 l 167 517 l 183 533 l 200 517 m 133 517 l 117 500 l 133 483 l 117 467 l 100 483 l 83 467 l 67 483 l 83 500 l 67 517 l 83 533 l 100 517 l 117 533 l 133 517 m 67 517 l 50 500 l 67 483 l 50 467 l 33 483 l 17 467 l 0 483 l 17 500 l 0 517 l 17 533 l 33 517 l 50 533 l 67 517 m 133 450 l 117 433 l 133 417 l 117 400 l 100 417 l 83 400 l 67 417 l 83 433 l 67 450 l 83 467 l 100 450 l 117 467 l 133 450 m 200 450 l 183 433 l 200 417 l 183 400 l 167 417 l 150 400 l 133 417 l 150 433 l 133 450 l 150 467 l 167 450 l 183 467 l 200 450 m 133 383 l 117 367 l 133 350 l 117 333 l 100 350 l 83 333 l 67 350 l 83 367 l 67 383 l 83 400 l 100 383 l 117 400 l 133 383 m 200 383 l 183 367 l 200 350 l 183 333 l 167 350 l 150 333 l 133 350 l 150 367 l 133 383 l 150 400 l 167 383 l 183 400 l 200 383 m 200 317 l 183 300 l 200 283 l 183 267 l 167 283 l 150 267 l 133 283 l 150 300 l 133 317 l 150 333 l 167 317 l 183 333 l 200 317 m 133 317 l 117 300 l 133 283 l 117 267 l 100 283 l 83 267 l 67 283 l 83 300 l 67 317 l 83 333 l 100 317 l 117 333 l 133 317 m 133 250 l 117 233 l 133 217 l 117 200 l 100 217 l 83 200 l 67 217 l 83 233 l 67 250 l 83 267 l 100 250 l 117 267 l 133 250 m 200 250 l 183 233 l 200 217 l 183 200 l 167 217 l 150 200 l 133 217 l 150 233 l 133 250 l 150 267 l 167 250 l 183 267 l 200 250 m 200 183 l 183 167 l 200 150 l 183 133 l 167 150 l 150 133 l 133 150 l 150 167 l 133 183 l 150 200 l 167 183 l 183 200 l 200 183 m 267 183 l 250 167 l 267 150 l 250 133 l 233 150 l 217 133 l 200 150 l 217 167 l 200 183 l 217 200 l 233 183 l 250 200 l 267 183 m 133 183 l 117 167 l 133 150 l 117 133 l 100 150 l 83 133 l 67 150 l 83 167 l 67 183 l 83 200 l 100 183 l 117 200 l 133 183 m 133 117 l 117 100 l 133 83 l 117 67 l 100 83 l 83 67 l 67 83 l 83 100 l 67 117 l 83 133 l 100 117 l 117 133 l 133 117 m 200 117 l 183 100 l 200 83 l 183 67 l 167 83 l 150 67 l 133 83 l 150 100 l 133 117 l 150 133 l 167 117 l 183 133 l 200 117 m 133 50 l 117 33 l 133 17 l 117 0 l 100 17 l 83 0 l 67 17 l 83 33 l 67 50 l 83 67 l 100 50 l 117 67 l 133 50 z "},"j":{"ha":267,"x_min":-265,"x_max":267,"o":"m 133 583 l 117 567 l 133 550 l 117 533 l 100 550 l 83 533 l 67 550 l 83 567 l 67 583 l 83 600 l 100 583 l 117 600 l 133 583 m 200 583 l 183 567 l 200 550 l 183 533 l 167 550 l 150 533 l 133 550 l 150 567 l 133 583 l 150 600 l 167 583 l 183 600 l 200 583 m 200 650 l 183 633 l 200 617 l 183 600 l 167 617 l 150 600 l 133 617 l 150 633 l 133 650 l 150 667 l 167 650 l 183 667 l 200 650 m 200 785 l 183 768 l 200 751 l 183 735 l 167 751 l 150 735 l 133 751 l 150 768 l 133 785 l 150 801 l 167 785 l 183 801 l 200 785 m 133 785 l 117 768 l 133 751 l 117 735 l 100 751 l 83 735 l 67 751 l 83 768 l 67 785 l 83 801 l 100 785 l 117 801 l 133 785 m 267 851 l 250 835 l 267 818 l 250 801 l 233 818 l 217 801 l 200 818 l 217 835 l 200 851 l 217 868 l 233 851 l 250 868 l 267 851 m 200 851 l 183 835 l 200 818 l 183 801 l 167 818 l 150 801 l 133 818 l 150 835 l 133 851 l 150 868 l 167 851 l 183 868 l 200 851 m 133 851 l 117 835 l 133 818 l 117 801 l 100 818 l 83 801 l 67 818 l 83 835 l 67 851 l 83 868 l 100 851 l 117 868 l 133 851 m 67 785 l 50 768 l 67 751 l 50 735 l 33 751 l 17 735 l 0 751 l 17 768 l 0 785 l 17 801 l 33 785 l 50 801 l 67 785 m 200 517 l 183 500 l 200 483 l 183 467 l 167 483 l 150 467 l 133 483 l 150 500 l 133 517 l 150 533 l 167 517 l 183 533 l 200 517 m 133 517 l 117 500 l 133 483 l 117 467 l 100 483 l 83 467 l 67 483 l 83 500 l 67 517 l 83 533 l 100 517 l 117 533 l 133 517 m 67 517 l 50 500 l 67 483 l 50 467 l 33 483 l 17 467 l 0 483 l 17 500 l 0 517 l 17 533 l 33 517 l 50 533 l 67 517 m 133 450 l 117 433 l 133 417 l 117 400 l 100 417 l 83 400 l 67 417 l 83 433 l 67 450 l 83 467 l 100 450 l 117 467 l 133 450 m 200 450 l 183 433 l 200 417 l 183 400 l 167 417 l 150 400 l 133 417 l 150 433 l 133 450 l 150 467 l 167 450 l 183 467 l 200 450 m 133 383 l 117 367 l 133 350 l 117 333 l 100 350 l 83 333 l 67 350 l 83 367 l 67 383 l 83 400 l 100 383 l 117 400 l 133 383 m 200 383 l 183 367 l 200 350 l 183 333 l 167 350 l 150 333 l 133 350 l 150 367 l 133 383 l 150 400 l 167 383 l 183 400 l 200 383 m 200 317 l 183 300 l 200 283 l 183 267 l 167 283 l 150 267 l 133 283 l 150 300 l 133 317 l 150 333 l 167 317 l 183 333 l 200 317 m 133 317 l 117 300 l 133 283 l 117 267 l 100 283 l 83 267 l 67 283 l 83 300 l 67 317 l 83 333 l 100 317 l 117 333 l 133 317 m 133 250 l 117 233 l 133 217 l 117 200 l 100 217 l 83 200 l 67 217 l 83 233 l 67 250 l 83 267 l 100 250 l 117 267 l 133 250 m 200 250 l 183 233 l 200 217 l 183 200 l 167 217 l 150 200 l 133 217 l 150 233 l 133 250 l 150 267 l 167 250 l 183 267 l 200 250 m 200 183 l 183 167 l 200 150 l 183 133 l 167 150 l 150 133 l 133 150 l 150 167 l 133 183 l 150 200 l 167 183 l 183 200 l 200 183 m 200 50 l 183 33 l 200 17 l 183 0 l 167 17 l 150 0 l 133 17 l 150 33 l 133 50 l 150 67 l 167 50 l 183 67 l 200 50 m 133 183 l 117 167 l 133 150 l 117 133 l 100 150 l 83 133 l 67 150 l 83 167 l 67 183 l 83 200 l 100 183 l 117 200 l 133 183 m 133 117 l 117 100 l 133 83 l 117 67 l 100 83 l 83 67 l 67 83 l 83 100 l 67 117 l 83 133 l 100 117 l 117 133 l 133 117 m 200 117 l 183 100 l 200 83 l 183 67 l 167 83 l 150 67 l 133 83 l 150 100 l 133 117 l 150 133 l 167 117 l 183 133 l 200 117 m 133 50 l 117 33 l 133 17 l 117 0 l 100 17 l 83 0 l 67 17 l 83 33 l 67 50 l 83 67 l 100 50 l 117 67 l 133 50 m 200 -83 l 183 -100 l 200 -117 l 183 -133 l 167 -117 l 150 -133 l 133 -117 l 150 -100 l 133 -83 l 150 -67 l 167 -83 l 183 -67 l 200 -83 m 133 -150 l 117 -167 l 133 -183 l 117 -200 l 100 -183 l 83 -200 l 67 -183 l 83 -167 l 67 -150 l 83 -133 l 100 -150 l 117 -133 l 133 -150 m 67 -217 l 50 -233 l 67 -250 l 50 -267 l 33 -250 l 17 -267 l 0 -250 l 17 -233 l 0 -217 l 17 -200 l 33 -217 l 50 -200 l 67 -217 m 0 -217 l -17 -233 l 0 -250 l -17 -267 l -33 -250 l -50 -267 l -67 -250 l -50 -233 l -67 -217 l -50 -200 l -33 -217 l -17 -200 l 0 -217 m -67 -217 l -83 -233 l -67 -250 l -83 -267 l -100 -250 l -117 -267 l -133 -250 l -117 -233 l -133 -217 l -117 -200 l -100 -217 l -83 -200 l -67 -217 m 0 -150 l -17 -167 l 0 -183 l -17 -200 l -33 -183 l -50 -200 l -67 -183 l -50 -167 l -67 -150 l -50 -133 l -33 -150 l -17 -133 l 0 -150 m -67 -150 l -83 -167 l -67 -183 l -83 -200 l -100 -183 l -117 -200 l -133 -183 l -117 -167 l -133 -150 l -117 -133 l -100 -150 l -83 -133 l -67 -150 m -133 -150 l -150 -167 l -133 -183 l -150 -200 l -167 -183 l -182 -200 l -199 -183 l -182 -167 l -199 -150 l -182 -133 l -167 -150 l -150 -133 l -133 -150 m -133 -83 l -150 -100 l -133 -117 l -150 -133 l -167 -117 l -182 -133 l -199 -117 l -182 -100 l -199 -83 l -182 -67 l -167 -83 l -150 -67 l -133 -83 m -199 -83 l -215 -100 l -199 -117 l -215 -133 l -232 -117 l -249 -133 l -265 -117 l -249 -100 l -265 -83 l -249 -67 l -232 -83 l -215 -67 l -199 -83 m -67 -83 l -83 -100 l -67 -117 l -83 -133 l -100 -117 l -117 -133 l -133 -117 l -117 -100 l -133 -83 l -117 -67 l -100 -83 l -83 -67 l -67 -83 m 200 -17 l 183 -33 l 200 -50 l 183 -67 l 167 -50 l 150 -67 l 133 -50 l 150 -33 l 133 -17 l 150 0 l 167 -17 l 183 0 l 200 -17 m 133 -17 l 117 -33 l 133 -50 l 117 -67 l 100 -50 l 83 -67 l 67 -50 l 83 -33 l 67 -17 l 83 0 l 100 -17 l 117 0 l 133 -17 z "},"k":{"ha":601,"x_min":0,"x_max":601,"o":"m 267 517 l 250 500 l 267 483 l 250 467 l 233 483 l 217 467 l 200 483 l 217 500 l 200 517 l 217 533 l 233 517 l 250 533 l 267 517 m 267 317 l 250 300 l 267 283 l 250 267 l 233 283 l 217 267 l 200 283 l 217 300 l 200 317 l 217 333 l 233 317 l 250 333 l 267 317 m 133 117 l 117 100 l 133 83 l 117 67 l 100 83 l 83 67 l 67 83 l 83 100 l 67 117 l 83 133 l 100 117 l 117 133 l 133 117 m 133 50 l 117 33 l 133 17 l 117 0 l 100 17 l 83 0 l 67 17 l 83 33 l 67 50 l 83 67 l 100 50 l 117 67 l 133 50 m 200 117 l 183 100 l 200 83 l 183 67 l 167 83 l 150 67 l 133 83 l 150 100 l 133 117 l 150 133 l 167 117 l 183 133 l 200 117 m 200 183 l 183 167 l 200 150 l 183 133 l 167 150 l 150 133 l 133 150 l 150 167 l 133 183 l 150 200 l 167 183 l 183 200 l 200 183 m 133 183 l 117 167 l 133 150 l 117 133 l 100 150 l 83 133 l 67 150 l 83 167 l 67 183 l 83 200 l 100 183 l 117 200 l 133 183 m 200 250 l 183 233 l 200 217 l 183 200 l 167 217 l 150 200 l 133 217 l 150 233 l 133 250 l 150 267 l 167 250 l 183 267 l 200 250 m 133 250 l 117 233 l 133 217 l 117 200 l 100 217 l 83 200 l 67 217 l 83 233 l 67 250 l 83 267 l 100 250 l 117 267 l 133 250 m 133 317 l 117 300 l 133 283 l 117 267 l 100 283 l 83 267 l 67 283 l 83 300 l 67 317 l 83 333 l 100 317 l 117 333 l 133 317 m 200 317 l 183 300 l 200 283 l 183 267 l 167 283 l 150 267 l 133 283 l 150 300 l 133 317 l 150 333 l 167 317 l 183 333 l 200 317 m 200 450 l 183 433 l 200 417 l 183 400 l 167 417 l 150 400 l 133 417 l 150 433 l 133 450 l 150 467 l 167 450 l 183 467 l 200 450 m 133 450 l 117 433 l 133 417 l 117 400 l 100 417 l 83 400 l 67 417 l 83 433 l 67 450 l 83 467 l 100 450 l 117 467 l 133 450 m 200 383 l 183 367 l 200 350 l 183 333 l 167 350 l 150 333 l 133 350 l 150 367 l 133 383 l 150 400 l 167 383 l 183 400 l 200 383 m 133 383 l 117 367 l 133 350 l 117 333 l 100 350 l 83 333 l 67 350 l 83 367 l 67 383 l 83 400 l 100 383 l 117 400 l 133 383 m 200 517 l 183 500 l 200 483 l 183 467 l 167 483 l 150 467 l 133 483 l 150 500 l 133 517 l 150 533 l 167 517 l 183 533 l 200 517 m 200 583 l 183 567 l 200 550 l 183 533 l 167 550 l 150 533 l 133 550 l 150 567 l 133 583 l 150 600 l 167 583 l 183 600 l 200 583 m 133 917 l 117 900 l 133 883 l 117 867 l 100 883 l 83 867 l 67 883 l 83 900 l 67 917 l 83 933 l 100 917 l 117 933 l 133 917 m 200 917 l 183 900 l 200 883 l 183 867 l 167 883 l 150 867 l 133 883 l 150 900 l 133 917 l 150 933 l 167 917 l 183 933 l 200 917 m 200 983 l 183 967 l 200 950 l 183 933 l 167 950 l 150 933 l 133 950 l 150 967 l 133 983 l 150 1000 l 167 983 l 183 1000 l 200 983 m 200 850 l 183 833 l 200 817 l 183 800 l 167 817 l 150 800 l 133 817 l 150 833 l 133 850 l 150 867 l 167 850 l 183 867 l 200 850 m 133 850 l 117 833 l 133 817 l 117 800 l 100 817 l 83 800 l 67 817 l 83 833 l 67 850 l 83 867 l 100 850 l 117 867 l 133 850 m 67 850 l 50 833 l 67 817 l 50 800 l 33 817 l 17 800 l 0 817 l 17 833 l 0 850 l 17 867 l 33 850 l 50 867 l 67 850 m 133 783 l 117 767 l 133 750 l 117 733 l 100 750 l 83 733 l 67 750 l 83 767 l 67 783 l 83 800 l 100 783 l 117 800 l 133 783 m 200 783 l 183 767 l 200 750 l 183 733 l 167 750 l 150 733 l 133 750 l 150 767 l 133 783 l 150 800 l 167 783 l 183 800 l 200 783 m 133 717 l 117 700 l 133 683 l 117 667 l 100 683 l 83 667 l 67 683 l 83 700 l 67 717 l 83 733 l 100 717 l 117 733 l 133 717 m 200 717 l 183 700 l 200 683 l 183 667 l 167 683 l 150 667 l 133 683 l 150 700 l 133 717 l 150 733 l 167 717 l 183 733 l 200 717 m 200 650 l 183 633 l 200 617 l 183 600 l 167 617 l 150 600 l 133 617 l 150 633 l 133 650 l 150 667 l 167 650 l 183 667 l 200 650 m 133 650 l 117 633 l 133 617 l 117 600 l 100 617 l 83 600 l 67 617 l 83 633 l 67 650 l 83 667 l 100 650 l 117 667 l 133 650 m 133 583 l 117 567 l 133 550 l 117 533 l 100 550 l 83 533 l 67 550 l 83 567 l 67 583 l 83 600 l 100 583 l 117 600 l 133 583 m 133 517 l 117 500 l 133 483 l 117 467 l 100 483 l 83 467 l 67 483 l 83 500 l 67 517 l 83 533 l 100 517 l 117 533 l 133 517 m 335 583 l 318 567 l 335 550 l 318 533 l 301 550 l 285 533 l 268 550 l 285 567 l 268 583 l 285 600 l 301 583 l 318 600 l 335 583 m 401 650 l 385 633 l 401 617 l 385 600 l 368 617 l 351 600 l 335 617 l 351 633 l 335 650 l 351 667 l 368 650 l 385 667 l 401 650 m 401 583 l 385 567 l 401 550 l 385 533 l 368 550 l 351 533 l 335 550 l 351 567 l 335 583 l 351 600 l 368 583 l 385 600 l 401 583 m 401 517 l 385 500 l 401 483 l 385 467 l 368 483 l 351 467 l 335 483 l 351 500 l 335 517 l 351 533 l 368 517 l 385 533 l 401 517 m 468 517 l 451 500 l 468 483 l 451 467 l 435 483 l 418 467 l 401 483 l 418 500 l 401 517 l 418 533 l 435 517 l 451 533 l 468 517 m 468 450 l 451 433 l 468 417 l 451 400 l 435 417 l 418 400 l 401 417 l 418 433 l 401 450 l 418 467 l 435 450 l 451 467 l 468 450 m 468 583 l 451 567 l 468 550 l 451 533 l 435 550 l 418 533 l 401 550 l 418 567 l 401 583 l 418 600 l 435 583 l 451 600 l 468 583 m 335 383 l 318 367 l 335 350 l 318 333 l 301 350 l 285 333 l 268 350 l 285 367 l 268 383 l 285 400 l 301 383 l 318 400 l 335 383 m 401 383 l 385 367 l 401 350 l 385 333 l 368 350 l 351 333 l 335 350 l 351 367 l 335 383 l 351 400 l 368 383 l 385 400 l 401 383 m 401 317 l 385 300 l 401 283 l 385 267 l 368 283 l 351 267 l 335 283 l 351 300 l 335 317 l 351 333 l 368 317 l 385 333 l 401 317 m 468 317 l 451 300 l 468 283 l 451 267 l 435 283 l 418 267 l 401 283 l 418 300 l 401 317 l 418 333 l 435 317 l 451 333 l 468 317 m 468 250 l 451 233 l 468 217 l 451 200 l 435 217 l 418 200 l 401 217 l 418 233 l 401 250 l 418 267 l 435 250 l 451 267 l 468 250 m 401 250 l 385 233 l 401 217 l 385 200 l 368 217 l 351 200 l 335 217 l 351 233 l 335 250 l 351 267 l 368 250 l 385 267 l 401 250 m 468 183 l 451 167 l 468 150 l 451 133 l 435 150 l 418 133 l 401 150 l 418 167 l 401 183 l 418 200 l 435 183 l 451 200 l 468 183 m 401 183 l 385 167 l 401 150 l 385 133 l 368 150 l 351 133 l 335 150 l 351 167 l 335 183 l 351 200 l 368 183 l 385 200 l 401 183 m 535 50 l 518 33 l 535 17 l 518 0 l 501 17 l 485 0 l 468 17 l 485 33 l 468 50 l 485 67 l 501 50 l 518 67 l 535 50 m 535 117 l 518 100 l 535 83 l 518 67 l 501 83 l 485 67 l 468 83 l 485 100 l 468 117 l 485 133 l 501 117 l 518 133 l 535 117 m 601 183 l 585 167 l 601 150 l 585 133 l 568 150 l 551 133 l 535 150 l 551 167 l 535 183 l 551 200 l 568 183 l 585 200 l 601 183 m 468 117 l 451 100 l 468 83 l 451 67 l 435 83 l 418 67 l 401 83 l 418 100 l 401 117 l 418 133 l 435 117 l 451 133 l 468 117 m 601 117 l 585 100 l 601 83 l 585 67 l 568 83 l 551 67 l 535 83 l 551 100 l 535 117 l 551 133 l 568 117 l 585 133 l 601 117 m 535 550 l 518 533 l 535 517 l 518 500 l 501 517 l 485 500 l 468 517 l 485 533 l 468 550 l 485 567 l 501 550 l 518 567 l 535 550 m 535 483 l 518 467 l 535 450 l 518 433 l 501 450 l 485 433 l 468 450 l 485 467 l 468 483 l 485 500 l 501 483 l 518 500 l 535 483 m 601 550 l 585 533 l 601 517 l 585 500 l 568 517 l 551 500 l 535 517 l 551 533 l 535 550 l 551 567 l 568 550 l 585 567 l 601 550 z "},"l":{"ha":267,"x_min":0,"x_max":267,"o":"m 267 183 l 250 167 l 267 150 l 250 133 l 233 150 l 217 133 l 200 150 l 217 167 l 200 183 l 217 200 l 233 183 l 250 200 l 267 183 m 133 117 l 117 100 l 133 83 l 117 67 l 100 83 l 83 67 l 67 83 l 83 100 l 67 117 l 83 133 l 100 117 l 117 133 l 133 117 m 133 50 l 117 33 l 133 17 l 117 0 l 100 17 l 83 0 l 67 17 l 83 33 l 67 50 l 83 67 l 100 50 l 117 67 l 133 50 m 200 117 l 183 100 l 200 83 l 183 67 l 167 83 l 150 67 l 133 83 l 150 100 l 133 117 l 150 133 l 167 117 l 183 133 l 200 117 m 200 183 l 183 167 l 200 150 l 183 133 l 167 150 l 150 133 l 133 150 l 150 167 l 133 183 l 150 200 l 167 183 l 183 200 l 200 183 m 133 183 l 117 167 l 133 150 l 117 133 l 100 150 l 83 133 l 67 150 l 83 167 l 67 183 l 83 200 l 100 183 l 117 200 l 133 183 m 200 250 l 183 233 l 200 217 l 183 200 l 167 217 l 150 200 l 133 217 l 150 233 l 133 250 l 150 267 l 167 250 l 183 267 l 200 250 m 133 250 l 117 233 l 133 217 l 117 200 l 100 217 l 83 200 l 67 217 l 83 233 l 67 250 l 83 267 l 100 250 l 117 267 l 133 250 m 133 317 l 117 300 l 133 283 l 117 267 l 100 283 l 83 267 l 67 283 l 83 300 l 67 317 l 83 333 l 100 317 l 117 333 l 133 317 m 200 317 l 183 300 l 200 283 l 183 267 l 167 283 l 150 267 l 133 283 l 150 300 l 133 317 l 150 333 l 167 317 l 183 333 l 200 317 m 200 450 l 183 433 l 200 417 l 183 400 l 167 417 l 150 400 l 133 417 l 150 433 l 133 450 l 150 467 l 167 450 l 183 467 l 200 450 m 133 450 l 117 433 l 133 417 l 117 400 l 100 417 l 83 400 l 67 417 l 83 433 l 67 450 l 83 467 l 100 450 l 117 467 l 133 450 m 200 383 l 183 367 l 200 350 l 183 333 l 167 350 l 150 333 l 133 350 l 150 367 l 133 383 l 150 400 l 167 383 l 183 400 l 200 383 m 133 383 l 117 367 l 133 350 l 117 333 l 100 350 l 83 333 l 67 350 l 83 367 l 67 383 l 83 400 l 100 383 l 117 400 l 133 383 m 200 517 l 183 500 l 200 483 l 183 467 l 167 483 l 150 467 l 133 483 l 150 500 l 133 517 l 150 533 l 167 517 l 183 533 l 200 517 m 200 583 l 183 567 l 200 550 l 183 533 l 167 550 l 150 533 l 133 550 l 150 567 l 133 583 l 150 600 l 167 583 l 183 600 l 200 583 m 133 917 l 117 900 l 133 883 l 117 867 l 100 883 l 83 867 l 67 883 l 83 900 l 67 917 l 83 933 l 100 917 l 117 933 l 133 917 m 200 917 l 183 900 l 200 883 l 183 867 l 167 883 l 150 867 l 133 883 l 150 900 l 133 917 l 150 933 l 167 917 l 183 933 l 200 917 m 200 983 l 183 967 l 200 950 l 183 933 l 167 950 l 150 933 l 133 950 l 150 967 l 133 983 l 150 1000 l 167 983 l 183 1000 l 200 983 m 200 850 l 183 833 l 200 817 l 183 800 l 167 817 l 150 800 l 133 817 l 150 833 l 133 850 l 150 867 l 167 850 l 183 867 l 200 850 m 133 850 l 117 833 l 133 817 l 117 800 l 100 817 l 83 800 l 67 817 l 83 833 l 67 850 l 83 867 l 100 850 l 117 867 l 133 850 m 67 850 l 50 833 l 67 817 l 50 800 l 33 817 l 17 800 l 0 817 l 17 833 l 0 850 l 17 867 l 33 850 l 50 867 l 67 850 m 133 783 l 117 767 l 133 750 l 117 733 l 100 750 l 83 733 l 67 750 l 83 767 l 67 783 l 83 800 l 100 783 l 117 800 l 133 783 m 200 783 l 183 767 l 200 750 l 183 733 l 167 750 l 150 733 l 133 750 l 150 767 l 133 783 l 150 800 l 167 783 l 183 800 l 200 783 m 133 717 l 117 700 l 133 683 l 117 667 l 100 683 l 83 667 l 67 683 l 83 700 l 67 717 l 83 733 l 100 717 l 117 733 l 133 717 m 200 717 l 183 700 l 200 683 l 183 667 l 167 683 l 150 667 l 133 683 l 150 700 l 133 717 l 150 733 l 167 717 l 183 733 l 200 717 m 200 650 l 183 633 l 200 617 l 183 600 l 167 617 l 150 600 l 133 617 l 150 633 l 133 650 l 150 667 l 167 650 l 183 667 l 200 650 m 133 650 l 117 633 l 133 617 l 117 600 l 100 617 l 83 600 l 67 617 l 83 633 l 67 650 l 83 667 l 100 650 l 117 667 l 133 650 m 133 583 l 117 567 l 133 550 l 117 533 l 100 550 l 83 533 l 67 550 l 83 567 l 67 583 l 83 600 l 100 583 l 117 600 l 133 583 m 133 517 l 117 500 l 133 483 l 117 467 l 100 483 l 83 467 l 67 483 l 83 500 l 67 517 l 83 533 l 100 517 l 117 533 l 133 517 z "},"m":{"ha":933,"x_min":0,"x_max":933,"o":"m 267 517 l 250 500 l 267 483 l 250 467 l 233 483 l 217 467 l 200 483 l 217 500 l 200 517 l 217 533 l 233 517 l 250 533 l 267 517 m 333 583 l 317 567 l 333 550 l 317 533 l 300 550 l 283 533 l 267 550 l 283 567 l 267 583 l 283 600 l 300 583 l 317 600 l 333 583 m 400 650 l 383 633 l 400 617 l 383 600 l 367 617 l 350 600 l 333 617 l 350 633 l 333 650 l 350 667 l 367 650 l 383 667 l 400 650 m 467 583 l 450 567 l 467 550 l 450 533 l 433 550 l 417 533 l 400 550 l 417 567 l 400 583 l 417 600 l 433 583 l 450 600 l 467 583 m 400 583 l 383 567 l 400 550 l 383 533 l 367 550 l 350 533 l 333 550 l 350 567 l 333 583 l 350 600 l 367 583 l 383 600 l 400 583 m 533 517 l 517 500 l 533 483 l 517 467 l 500 483 l 483 467 l 467 483 l 483 500 l 467 517 l 483 533 l 500 517 l 517 533 l 533 517 m 467 517 l 450 500 l 467 483 l 450 467 l 433 483 l 417 467 l 400 483 l 417 500 l 400 517 l 417 533 l 433 517 l 450 533 l 467 517 m 467 450 l 450 433 l 467 417 l 450 400 l 433 417 l 417 400 l 400 417 l 417 433 l 400 450 l 417 467 l 433 450 l 450 467 l 467 450 m 533 450 l 517 433 l 533 417 l 517 400 l 500 417 l 483 400 l 467 417 l 483 433 l 467 450 l 483 467 l 500 450 l 517 467 l 533 450 m 533 317 l 517 300 l 533 283 l 517 267 l 500 283 l 483 267 l 467 283 l 483 300 l 467 317 l 483 333 l 500 317 l 517 333 l 533 317 m 533 250 l 517 233 l 533 217 l 517 200 l 500 217 l 483 200 l 467 217 l 483 233 l 467 250 l 483 267 l 500 250 l 517 267 l 533 250 m 467 317 l 450 300 l 467 283 l 450 267 l 433 283 l 417 267 l 400 283 l 417 300 l 400 317 l 417 333 l 433 317 l 450 333 l 467 317 m 467 250 l 450 233 l 467 217 l 450 200 l 433 217 l 417 200 l 400 217 l 417 233 l 400 250 l 417 267 l 433 250 l 450 267 l 467 250 m 467 383 l 450 367 l 467 350 l 450 333 l 433 350 l 417 333 l 400 350 l 417 367 l 400 383 l 417 400 l 433 383 l 450 400 l 467 383 m 533 383 l 517 367 l 533 350 l 517 333 l 500 350 l 483 333 l 467 350 l 483 367 l 467 383 l 483 400 l 500 383 l 517 400 l 533 383 m 667 583 l 650 567 l 667 550 l 650 533 l 633 550 l 617 533 l 600 550 l 617 567 l 600 583 l 617 600 l 633 583 l 650 600 l 667 583 m 733 650 l 717 633 l 733 617 l 717 600 l 700 617 l 683 600 l 667 617 l 683 633 l 667 650 l 683 667 l 700 650 l 717 667 l 733 650 m 800 583 l 783 567 l 800 550 l 783 533 l 767 550 l 750 533 l 733 550 l 750 567 l 733 583 l 750 600 l 767 583 l 783 600 l 800 583 m 733 583 l 717 567 l 733 550 l 717 533 l 700 550 l 683 533 l 667 550 l 683 567 l 667 583 l 683 600 l 700 583 l 717 600 l 733 583 m 867 517 l 850 500 l 867 483 l 850 467 l 833 483 l 817 467 l 800 483 l 817 500 l 800 517 l 817 533 l 833 517 l 850 533 l 867 517 m 800 517 l 783 500 l 800 483 l 783 467 l 767 483 l 750 467 l 733 483 l 750 500 l 733 517 l 750 533 l 767 517 l 783 533 l 800 517 m 800 450 l 783 433 l 800 417 l 783 400 l 767 417 l 750 400 l 733 417 l 750 433 l 733 450 l 750 467 l 767 450 l 783 467 l 800 450 m 867 450 l 850 433 l 867 417 l 850 400 l 833 417 l 817 400 l 800 417 l 817 433 l 800 450 l 817 467 l 833 450 l 850 467 l 867 450 m 867 317 l 850 300 l 867 283 l 850 267 l 833 283 l 817 267 l 800 283 l 817 300 l 800 317 l 817 333 l 833 317 l 850 333 l 867 317 m 867 250 l 850 233 l 867 217 l 850 200 l 833 217 l 817 200 l 800 217 l 817 233 l 800 250 l 817 267 l 833 250 l 850 267 l 867 250 m 800 317 l 783 300 l 800 283 l 783 267 l 767 283 l 750 267 l 733 283 l 750 300 l 733 317 l 750 333 l 767 317 l 783 333 l 800 317 m 800 250 l 783 233 l 800 217 l 783 200 l 767 217 l 750 200 l 733 217 l 750 233 l 733 250 l 750 267 l 767 250 l 783 267 l 800 250 m 800 383 l 783 367 l 800 350 l 783 333 l 767 350 l 750 333 l 733 350 l 750 367 l 733 383 l 750 400 l 767 383 l 783 400 l 800 383 m 867 383 l 850 367 l 867 350 l 850 333 l 833 350 l 817 333 l 800 350 l 817 367 l 800 383 l 817 400 l 833 383 l 850 400 l 867 383 m 200 650 l 183 633 l 200 617 l 183 600 l 167 617 l 150 600 l 133 617 l 150 633 l 133 650 l 150 667 l 167 650 l 183 667 l 200 650 m 200 583 l 183 567 l 200 550 l 183 533 l 167 550 l 150 533 l 133 550 l 150 567 l 133 583 l 150 600 l 167 583 l 183 600 l 200 583 m 133 583 l 117 567 l 133 550 l 117 533 l 100 550 l 83 533 l 67 550 l 83 567 l 67 583 l 83 600 l 100 583 l 117 600 l 133 583 m 133 517 l 117 500 l 133 483 l 117 467 l 100 483 l 83 467 l 67 483 l 83 500 l 67 517 l 83 533 l 100 517 l 117 533 l 133 517 m 67 517 l 50 500 l 67 483 l 50 467 l 33 483 l 17 467 l 0 483 l 17 500 l 0 517 l 17 533 l 33 517 l 50 533 l 67 517 m 200 517 l 183 500 l 200 483 l 183 467 l 167 483 l 150 467 l 133 483 l 150 500 l 133 517 l 150 533 l 167 517 l 183 533 l 200 517 m 200 450 l 183 433 l 200 417 l 183 400 l 167 417 l 150 400 l 133 417 l 150 433 l 133 450 l 150 467 l 167 450 l 183 467 l 200 450 m 133 450 l 117 433 l 133 417 l 117 400 l 100 417 l 83 400 l 67 417 l 83 433 l 67 450 l 83 467 l 100 450 l 117 467 l 133 450 m 133 383 l 117 367 l 133 350 l 117 333 l 100 350 l 83 333 l 67 350 l 83 367 l 67 383 l 83 400 l 100 383 l 117 400 l 133 383 m 200 383 l 183 367 l 200 350 l 183 333 l 167 350 l 150 333 l 133 350 l 150 367 l 133 383 l 150 400 l 167 383 l 183 400 l 200 383 m 133 317 l 117 300 l 133 283 l 117 267 l 100 283 l 83 267 l 67 283 l 83 300 l 67 317 l 83 333 l 100 317 l 117 333 l 133 317 m 200 317 l 183 300 l 200 283 l 183 267 l 167 283 l 150 267 l 133 283 l 150 300 l 133 317 l 150 333 l 167 317 l 183 333 l 200 317 m 200 250 l 183 233 l 200 217 l 183 200 l 167 217 l 150 200 l 133 217 l 150 233 l 133 250 l 150 267 l 167 250 l 183 267 l 200 250 m 133 250 l 117 233 l 133 217 l 117 200 l 100 217 l 83 200 l 67 217 l 83 233 l 67 250 l 83 267 l 100 250 l 117 267 l 133 250 m 133 183 l 117 167 l 133 150 l 117 133 l 100 150 l 83 133 l 67 150 l 83 167 l 67 183 l 83 200 l 100 183 l 117 200 l 133 183 m 200 183 l 183 167 l 200 150 l 183 133 l 167 150 l 150 133 l 133 150 l 150 167 l 133 183 l 150 200 l 167 183 l 183 200 l 200 183 m 200 117 l 183 100 l 200 83 l 183 67 l 167 83 l 150 67 l 133 83 l 150 100 l 133 117 l 150 133 l 167 117 l 183 133 l 200 117 m 133 117 l 117 100 l 133 83 l 117 67 l 100 83 l 83 67 l 67 83 l 83 100 l 67 117 l 83 133 l 100 117 l 117 133 l 133 117 m 133 50 l 117 33 l 133 17 l 117 0 l 100 17 l 83 0 l 67 17 l 83 33 l 67 50 l 83 67 l 100 50 l 117 67 l 133 50 m 467 183 l 450 167 l 467 150 l 450 133 l 433 150 l 417 133 l 400 150 l 417 167 l 400 183 l 417 200 l 433 183 l 450 200 l 467 183 m 533 183 l 517 167 l 533 150 l 517 133 l 500 150 l 483 133 l 467 150 l 483 167 l 467 183 l 483 200 l 500 183 l 517 200 l 533 183 m 533 117 l 517 100 l 533 83 l 517 67 l 500 83 l 483 67 l 467 83 l 483 100 l 467 117 l 483 133 l 500 117 l 517 133 l 533 117 m 467 117 l 450 100 l 467 83 l 450 67 l 433 83 l 417 67 l 400 83 l 417 100 l 400 117 l 417 133 l 433 117 l 450 133 l 467 117 m 467 50 l 450 33 l 467 17 l 450 0 l 433 17 l 417 0 l 400 17 l 417 33 l 400 50 l 417 67 l 433 50 l 450 67 l 467 50 m 800 183 l 783 167 l 800 150 l 783 133 l 767 150 l 750 133 l 733 150 l 750 167 l 733 183 l 750 200 l 767 183 l 783 200 l 800 183 m 867 183 l 850 167 l 867 150 l 850 133 l 833 150 l 817 133 l 800 150 l 817 167 l 800 183 l 817 200 l 833 183 l 850 200 l 867 183 m 933 183 l 917 167 l 933 150 l 917 133 l 900 150 l 883 133 l 867 150 l 883 167 l 867 183 l 883 200 l 900 183 l 917 200 l 933 183 m 867 117 l 850 100 l 867 83 l 850 67 l 833 83 l 817 67 l 800 83 l 817 100 l 800 117 l 817 133 l 833 117 l 850 133 l 867 117 m 800 117 l 783 100 l 800 83 l 783 67 l 767 83 l 750 67 l 733 83 l 750 100 l 733 117 l 750 133 l 767 117 l 783 133 l 800 117 m 800 50 l 783 33 l 800 17 l 783 0 l 767 17 l 750 0 l 733 17 l 750 33 l 733 50 l 750 67 l 767 50 l 783 67 l 800 50 m 600 517 l 583 500 l 600 483 l 583 467 l 567 483 l 550 467 l 533 483 l 550 500 l 533 517 l 550 533 l 567 517 l 583 533 l 600 517 z "},"n":{"ha":600,"x_min":0,"x_max":600,"o":"m 267 517 l 250 500 l 267 483 l 250 467 l 233 483 l 217 467 l 200 483 l 217 500 l 200 517 l 217 533 l 233 517 l 250 533 l 267 517 m 333 583 l 317 567 l 333 550 l 317 533 l 300 550 l 283 533 l 267 550 l 283 567 l 267 583 l 283 600 l 300 583 l 317 600 l 333 583 m 400 650 l 383 633 l 400 617 l 383 600 l 367 617 l 350 600 l 333 617 l 350 633 l 333 650 l 350 667 l 367 650 l 383 667 l 400 650 m 467 583 l 450 567 l 467 550 l 450 533 l 433 550 l 417 533 l 400 550 l 417 567 l 400 583 l 417 600 l 433 583 l 450 600 l 467 583 m 400 583 l 383 567 l 400 550 l 383 533 l 367 550 l 350 533 l 333 550 l 350 567 l 333 583 l 350 600 l 367 583 l 383 600 l 400 583 m 533 517 l 517 500 l 533 483 l 517 467 l 500 483 l 483 467 l 467 483 l 483 500 l 467 517 l 483 533 l 500 517 l 517 533 l 533 517 m 467 517 l 450 500 l 467 483 l 450 467 l 433 483 l 417 467 l 400 483 l 417 500 l 400 517 l 417 533 l 433 517 l 450 533 l 467 517 m 467 450 l 450 433 l 467 417 l 450 400 l 433 417 l 417 400 l 400 417 l 417 433 l 400 450 l 417 467 l 433 450 l 450 467 l 467 450 m 533 450 l 517 433 l 533 417 l 517 400 l 500 417 l 483 400 l 467 417 l 483 433 l 467 450 l 483 467 l 500 450 l 517 467 l 533 450 m 533 317 l 517 300 l 533 283 l 517 267 l 500 283 l 483 267 l 467 283 l 483 300 l 467 317 l 483 333 l 500 317 l 517 333 l 533 317 m 533 250 l 517 233 l 533 217 l 517 200 l 500 217 l 483 200 l 467 217 l 483 233 l 467 250 l 483 267 l 500 250 l 517 267 l 533 250 m 467 317 l 450 300 l 467 283 l 450 267 l 433 283 l 417 267 l 400 283 l 417 300 l 400 317 l 417 333 l 433 317 l 450 333 l 467 317 m 467 250 l 450 233 l 467 217 l 450 200 l 433 217 l 417 200 l 400 217 l 417 233 l 400 250 l 417 267 l 433 250 l 450 267 l 467 250 m 467 383 l 450 367 l 467 350 l 450 333 l 433 350 l 417 333 l 400 350 l 417 367 l 400 383 l 417 400 l 433 383 l 450 400 l 467 383 m 533 383 l 517 367 l 533 350 l 517 333 l 500 350 l 483 333 l 467 350 l 483 367 l 467 383 l 483 400 l 500 383 l 517 400 l 533 383 m 200 650 l 183 633 l 200 617 l 183 600 l 167 617 l 150 600 l 133 617 l 150 633 l 133 650 l 150 667 l 167 650 l 183 667 l 200 650 m 200 583 l 183 567 l 200 550 l 183 533 l 167 550 l 150 533 l 133 550 l 150 567 l 133 583 l 150 600 l 167 583 l 183 600 l 200 583 m 133 583 l 117 567 l 133 550 l 117 533 l 100 550 l 83 533 l 67 550 l 83 567 l 67 583 l 83 600 l 100 583 l 117 600 l 133 583 m 133 517 l 117 500 l 133 483 l 117 467 l 100 483 l 83 467 l 67 483 l 83 500 l 67 517 l 83 533 l 100 517 l 117 533 l 133 517 m 67 517 l 50 500 l 67 483 l 50 467 l 33 483 l 17 467 l 0 483 l 17 500 l 0 517 l 17 533 l 33 517 l 50 533 l 67 517 m 200 517 l 183 500 l 200 483 l 183 467 l 167 483 l 150 467 l 133 483 l 150 500 l 133 517 l 150 533 l 167 517 l 183 533 l 200 517 m 200 450 l 183 433 l 200 417 l 183 400 l 167 417 l 150 400 l 133 417 l 150 433 l 133 450 l 150 467 l 167 450 l 183 467 l 200 450 m 133 450 l 117 433 l 133 417 l 117 400 l 100 417 l 83 400 l 67 417 l 83 433 l 67 450 l 83 467 l 100 450 l 117 467 l 133 450 m 133 383 l 117 367 l 133 350 l 117 333 l 100 350 l 83 333 l 67 350 l 83 367 l 67 383 l 83 400 l 100 383 l 117 400 l 133 383 m 200 383 l 183 367 l 200 350 l 183 333 l 167 350 l 150 333 l 133 350 l 150 367 l 133 383 l 150 400 l 167 383 l 183 400 l 200 383 m 133 317 l 117 300 l 133 283 l 117 267 l 100 283 l 83 267 l 67 283 l 83 300 l 67 317 l 83 333 l 100 317 l 117 333 l 133 317 m 200 317 l 183 300 l 200 283 l 183 267 l 167 283 l 150 267 l 133 283 l 150 300 l 133 317 l 150 333 l 167 317 l 183 333 l 200 317 m 200 250 l 183 233 l 200 217 l 183 200 l 167 217 l 150 200 l 133 217 l 150 233 l 133 250 l 150 267 l 167 250 l 183 267 l 200 250 m 133 250 l 117 233 l 133 217 l 117 200 l 100 217 l 83 200 l 67 217 l 83 233 l 67 250 l 83 267 l 100 250 l 117 267 l 133 250 m 133 183 l 117 167 l 133 150 l 117 133 l 100 150 l 83 133 l 67 150 l 83 167 l 67 183 l 83 200 l 100 183 l 117 200 l 133 183 m 200 183 l 183 167 l 200 150 l 183 133 l 167 150 l 150 133 l 133 150 l 150 167 l 133 183 l 150 200 l 167 183 l 183 200 l 200 183 m 200 117 l 183 100 l 200 83 l 183 67 l 167 83 l 150 67 l 133 83 l 150 100 l 133 117 l 150 133 l 167 117 l 183 133 l 200 117 m 133 117 l 117 100 l 133 83 l 117 67 l 100 83 l 83 67 l 67 83 l 83 100 l 67 117 l 83 133 l 100 117 l 117 133 l 133 117 m 133 50 l 117 33 l 133 17 l 117 0 l 100 17 l 83 0 l 67 17 l 83 33 l 67 50 l 83 67 l 100 50 l 117 67 l 133 50 m 467 183 l 450 167 l 467 150 l 450 133 l 433 150 l 417 133 l 400 150 l 417 167 l 400 183 l 417 200 l 433 183 l 450 200 l 467 183 m 533 183 l 517 167 l 533 150 l 517 133 l 500 150 l 483 133 l 467 150 l 483 167 l 467 183 l 483 200 l 500 183 l 517 200 l 533 183 m 600 183 l 583 167 l 600 150 l 583 133 l 567 150 l 550 133 l 533 150 l 550 167 l 533 183 l 550 200 l 567 183 l 583 200 l 600 183 m 533 117 l 517 100 l 533 83 l 517 67 l 500 83 l 483 67 l 467 83 l 483 100 l 467 117 l 483 133 l 500 117 l 517 133 l 533 117 m 467 117 l 450 100 l 467 83 l 450 67 l 433 83 l 417 67 l 400 83 l 417 100 l 400 117 l 417 133 l 433 117 l 450 133 l 467 117 m 467 50 l 450 33 l 467 17 l 450 0 l 433 17 l 417 0 l 400 17 l 417 33 l 400 50 l 417 67 l 433 50 l 450 67 l 467 50 z "},"o":{"ha":600,"x_min":67,"x_max":533,"o":"m 267 650 l 250 633 l 267 617 l 250 600 l 233 617 l 217 600 l 200 617 l 217 633 l 200 650 l 217 667 l 233 650 l 250 667 l 267 650 m 333 650 l 317 633 l 333 617 l 317 600 l 300 617 l 283 600 l 267 617 l 283 633 l 267 650 l 283 667 l 300 650 l 317 667 l 333 650 m 400 650 l 383 633 l 400 617 l 383 600 l 367 617 l 350 600 l 333 617 l 350 633 l 333 650 l 350 667 l 367 650 l 383 667 l 400 650 m 467 583 l 450 567 l 467 550 l 450 533 l 433 550 l 417 533 l 400 550 l 417 567 l 400 583 l 417 600 l 433 583 l 450 600 l 467 583 m 400 583 l 383 567 l 400 550 l 383 533 l 367 550 l 350 533 l 333 550 l 350 567 l 333 583 l 350 600 l 367 583 l 383 600 l 400 583 m 333 583 l 317 567 l 333 550 l 317 533 l 300 550 l 283 533 l 267 550 l 283 567 l 267 583 l 283 600 l 300 583 l 317 600 l 333 583 m 533 517 l 517 500 l 533 483 l 517 467 l 500 483 l 483 467 l 467 483 l 483 500 l 467 517 l 483 533 l 500 517 l 517 533 l 533 517 m 467 517 l 450 500 l 467 483 l 450 467 l 433 483 l 417 467 l 400 483 l 417 500 l 400 517 l 417 533 l 433 517 l 450 533 l 467 517 m 467 450 l 450 433 l 467 417 l 450 400 l 433 417 l 417 400 l 400 417 l 417 433 l 400 450 l 417 467 l 433 450 l 450 467 l 467 450 m 533 450 l 517 433 l 533 417 l 517 400 l 500 417 l 483 400 l 467 417 l 483 433 l 467 450 l 483 467 l 500 450 l 517 467 l 533 450 m 533 317 l 517 300 l 533 283 l 517 267 l 500 283 l 483 267 l 467 283 l 483 300 l 467 317 l 483 333 l 500 317 l 517 333 l 533 317 m 467 317 l 450 300 l 467 283 l 450 267 l 433 283 l 417 267 l 400 283 l 417 300 l 400 317 l 417 333 l 433 317 l 450 333 l 467 317 m 467 250 l 450 233 l 467 217 l 450 200 l 433 217 l 417 200 l 400 217 l 417 233 l 400 250 l 417 267 l 433 250 l 450 267 l 467 250 m 467 183 l 450 167 l 467 150 l 450 133 l 433 150 l 417 133 l 400 150 l 417 167 l 400 183 l 417 200 l 433 183 l 450 200 l 467 183 m 400 117 l 383 100 l 400 83 l 383 67 l 367 83 l 350 67 l 333 83 l 350 100 l 333 117 l 350 133 l 367 117 l 383 133 l 400 117 m 333 117 l 317 100 l 333 83 l 317 67 l 300 83 l 283 67 l 267 83 l 283 100 l 267 117 l 283 133 l 300 117 l 317 133 l 333 117 m 267 117 l 250 100 l 267 83 l 250 67 l 233 83 l 217 67 l 200 83 l 217 100 l 200 117 l 217 133 l 233 117 l 250 133 l 267 117 m 267 50 l 250 33 l 267 17 l 250 0 l 233 17 l 217 0 l 200 17 l 217 33 l 200 50 l 217 67 l 233 50 l 250 67 l 267 50 m 333 50 l 317 33 l 333 17 l 317 0 l 300 17 l 283 0 l 267 17 l 283 33 l 267 50 l 283 67 l 300 50 l 317 67 l 333 50 m 200 117 l 183 100 l 200 83 l 183 67 l 167 83 l 150 67 l 133 83 l 150 100 l 133 117 l 150 133 l 167 117 l 183 133 l 200 117 m 200 183 l 183 167 l 200 150 l 183 133 l 167 150 l 150 133 l 133 150 l 150 167 l 133 183 l 150 200 l 167 183 l 183 200 l 200 183 m 267 183 l 250 167 l 267 150 l 250 133 l 233 150 l 217 133 l 200 150 l 217 167 l 200 183 l 217 200 l 233 183 l 250 200 l 267 183 m 200 250 l 183 233 l 200 217 l 183 200 l 167 217 l 150 200 l 133 217 l 150 233 l 133 250 l 150 267 l 167 250 l 183 267 l 200 250 m 133 250 l 117 233 l 133 217 l 117 200 l 100 217 l 83 200 l 67 217 l 83 233 l 67 250 l 83 267 l 100 250 l 117 267 l 133 250 m 133 317 l 117 300 l 133 283 l 117 267 l 100 283 l 83 267 l 67 283 l 83 300 l 67 317 l 83 333 l 100 317 l 117 333 l 133 317 m 200 317 l 183 300 l 200 283 l 183 267 l 167 283 l 150 267 l 133 283 l 150 300 l 133 317 l 150 333 l 167 317 l 183 333 l 200 317 m 200 450 l 183 433 l 200 417 l 183 400 l 167 417 l 150 400 l 133 417 l 150 433 l 133 450 l 150 467 l 167 450 l 183 467 l 200 450 m 133 450 l 117 433 l 133 417 l 117 400 l 100 417 l 83 400 l 67 417 l 83 433 l 67 450 l 83 467 l 100 450 l 117 467 l 133 450 m 467 383 l 450 367 l 467 350 l 450 333 l 433 351 l 417 333 l 400 350 l 417 367 l 400 383 l 417 400 l 433 383 l 450 400 l 467 383 m 533 383 l 517 367 l 533 350 l 517 333 l 500 351 l 483 333 l 467 350 l 483 367 l 467 383 l 483 400 l 500 383 l 517 400 l 533 383 m 200 383 l 183 367 l 200 350 l 183 333 l 167 350 l 150 333 l 133 350 l 150 367 l 133 383 l 150 400 l 167 383 l 183 400 l 200 383 m 133 383 l 117 367 l 133 350 l 117 333 l 100 350 l 83 333 l 67 350 l 83 367 l 67 383 l 83 400 l 100 383 l 117 400 l 133 383 m 200 517 l 183 500 l 200 483 l 183 467 l 167 483 l 150 467 l 133 483 l 150 500 l 133 517 l 150 533 l 167 517 l 183 533 l 200 517 m 200 583 l 183 567 l 200 550 l 183 533 l 167 550 l 150 533 l 133 550 l 150 567 l 133 583 l 150 600 l 167 583 l 183 600 l 200 583 z "},"p":{"ha":600,"x_min":0,"x_max":533,"o":"m 267 517 l 250 500 l 267 483 l 250 467 l 233 483 l 217 467 l 200 483 l 217 500 l 200 517 l 217 533 l 233 517 l 250 533 l 267 517 m 333 583 l 317 567 l 333 550 l 317 533 l 300 550 l 283 533 l 267 550 l 283 567 l 267 583 l 283 600 l 300 583 l 317 600 l 333 583 m 400 650 l 383 633 l 400 617 l 383 600 l 367 617 l 350 600 l 333 617 l 350 633 l 333 650 l 350 667 l 367 650 l 383 667 l 400 650 m 467 583 l 450 567 l 467 550 l 450 533 l 433 550 l 417 533 l 400 550 l 417 567 l 400 583 l 417 600 l 433 583 l 450 600 l 467 583 m 400 583 l 383 567 l 400 550 l 383 533 l 367 550 l 350 533 l 333 550 l 350 567 l 333 583 l 350 600 l 367 583 l 383 600 l 400 583 m 533 517 l 517 500 l 533 483 l 517 467 l 500 483 l 483 467 l 467 483 l 483 500 l 467 517 l 483 533 l 500 517 l 517 533 l 533 517 m 467 517 l 450 500 l 467 483 l 450 467 l 433 483 l 417 467 l 400 483 l 417 500 l 400 517 l 417 533 l 433 517 l 450 533 l 467 517 m 467 450 l 450 433 l 467 417 l 450 400 l 433 417 l 417 400 l 400 417 l 417 433 l 400 450 l 417 467 l 433 450 l 450 467 l 467 450 m 533 450 l 517 433 l 533 417 l 517 400 l 500 417 l 483 400 l 467 417 l 483 433 l 467 450 l 483 467 l 500 450 l 517 467 l 533 450 m 533 317 l 517 300 l 533 283 l 517 267 l 500 283 l 483 267 l 467 283 l 483 300 l 467 317 l 483 333 l 500 317 l 517 333 l 533 317 m 533 250 l 517 233 l 533 217 l 517 200 l 500 217 l 483 200 l 467 217 l 483 233 l 467 250 l 483 267 l 500 250 l 517 267 l 533 250 m 467 317 l 450 300 l 467 283 l 450 267 l 433 283 l 417 267 l 400 283 l 417 300 l 400 317 l 417 333 l 433 317 l 450 333 l 467 317 m 467 250 l 450 233 l 467 217 l 450 200 l 433 217 l 417 200 l 400 217 l 417 233 l 400 250 l 417 267 l 433 250 l 450 267 l 467 250 m 467 183 l 450 167 l 467 150 l 450 133 l 433 150 l 417 133 l 400 150 l 417 167 l 400 183 l 417 200 l 433 183 l 450 200 l 467 183 m 400 117 l 383 100 l 400 83 l 383 67 l 367 83 l 350 67 l 333 83 l 350 100 l 333 117 l 350 133 l 367 117 l 383 133 l 400 117 m 267 117 l 250 100 l 267 83 l 250 67 l 233 83 l 217 67 l 200 83 l 217 100 l 200 117 l 217 133 l 233 117 l 250 133 l 267 117 m 267 50 l 250 33 l 267 17 l 250 0 l 233 17 l 217 0 l 200 17 l 217 33 l 200 50 l 217 67 l 233 50 l 250 67 l 267 50 m 333 50 l 317 33 l 333 17 l 317 0 l 300 17 l 283 0 l 267 17 l 283 33 l 267 50 l 283 67 l 300 50 l 317 67 l 333 50 m 200 117 l 183 100 l 200 83 l 183 67 l 167 83 l 150 67 l 133 83 l 150 100 l 133 117 l 150 133 l 167 117 l 183 133 l 200 117 m 200 183 l 183 167 l 200 150 l 183 133 l 167 150 l 150 133 l 133 150 l 150 167 l 133 183 l 150 200 l 167 183 l 183 200 l 200 183 m 267 183 l 250 167 l 267 150 l 250 133 l 233 150 l 217 133 l 200 150 l 217 167 l 200 183 l 217 200 l 233 183 l 250 200 l 267 183 m 200 250 l 183 233 l 200 217 l 183 200 l 167 217 l 150 200 l 133 217 l 150 233 l 133 250 l 150 267 l 167 250 l 183 267 l 200 250 m 133 250 l 117 233 l 133 217 l 117 200 l 100 217 l 83 200 l 67 217 l 83 233 l 67 250 l 83 267 l 100 250 l 117 267 l 133 250 m 133 183 l 117 167 l 133 150 l 117 133 l 100 150 l 83 133 l 67 150 l 83 167 l 67 183 l 83 200 l 100 183 l 117 200 l 133 183 m 133 117 l 117 100 l 133 83 l 117 67 l 100 83 l 83 67 l 67 83 l 83 100 l 67 117 l 83 133 l 100 117 l 117 133 l 133 117 m 133 50 l 117 33 l 133 17 l 117 0 l 100 17 l 83 0 l 67 17 l 83 33 l 67 50 l 83 67 l 100 50 l 117 67 l 133 50 m 200 50 l 183 33 l 200 17 l 183 0 l 167 17 l 150 0 l 133 17 l 150 33 l 133 50 l 150 67 l 167 50 l 183 67 l 200 50 m 200 -17 l 183 -33 l 200 -50 l 183 -67 l 167 -50 l 150 -67 l 133 -50 l 150 -33 l 133 -17 l 150 0 l 167 -17 l 183 0 l 200 -17 m 133 -17 l 117 -33 l 133 -50 l 117 -67 l 100 -50 l 83 -67 l 67 -50 l 83 -33 l 67 -17 l 83 0 l 100 -17 l 117 0 l 133 -17 m 133 -83 l 117 -100 l 133 -117 l 117 -133 l 100 -117 l 83 -133 l 67 -117 l 83 -100 l 67 -83 l 83 -67 l 100 -83 l 117 -67 l 133 -83 m 200 -83 l 183 -100 l 200 -117 l 183 -133 l 167 -117 l 150 -133 l 133 -117 l 150 -100 l 133 -83 l 150 -67 l 167 -83 l 183 -67 l 200 -83 m 200 -150 l 183 -167 l 200 -183 l 183 -200 l 167 -183 l 150 -200 l 133 -183 l 150 -167 l 133 -150 l 150 -133 l 167 -150 l 183 -133 l 200 -150 m 133 -150 l 117 -167 l 133 -183 l 117 -200 l 100 -183 l 83 -200 l 67 -183 l 83 -167 l 67 -150 l 83 -133 l 100 -150 l 117 -133 l 133 -150 m 133 -217 l 117 -233 l 133 -250 l 117 -267 l 100 -250 l 83 -267 l 67 -250 l 83 -233 l 67 -217 l 83 -200 l 100 -217 l 117 -200 l 133 -217 m 200 -217 l 183 -233 l 200 -250 l 183 -267 l 167 -250 l 150 -267 l 133 -250 l 150 -233 l 133 -217 l 150 -200 l 167 -217 l 183 -200 l 200 -217 m 267 -150 l 250 -167 l 267 -183 l 250 -200 l 233 -183 l 217 -200 l 200 -183 l 217 -167 l 200 -150 l 217 -133 l 233 -150 l 250 -133 l 267 -150 m 133 317 l 117 300 l 133 283 l 117 267 l 100 283 l 83 267 l 67 283 l 83 300 l 67 317 l 83 333 l 100 317 l 117 333 l 133 317 m 200 317 l 183 300 l 200 283 l 183 267 l 167 283 l 150 267 l 133 283 l 150 300 l 133 317 l 150 333 l 167 317 l 183 333 l 200 317 m 200 450 l 183 433 l 200 417 l 183 400 l 167 417 l 150 400 l 133 417 l 150 433 l 133 450 l 150 467 l 167 450 l 183 467 l 200 450 m 133 450 l 117 433 l 133 417 l 117 400 l 100 417 l 83 400 l 67 417 l 83 433 l 67 450 l 83 467 l 100 450 l 117 467 l 133 450 m 467 383 l 450 367 l 467 350 l 450 333 l 433 350 l 417 333 l 400 350 l 417 367 l 400 383 l 417 400 l 433 383 l 450 400 l 467 383 m 533 383 l 517 367 l 533 350 l 517 333 l 500 350 l 483 333 l 467 350 l 483 367 l 467 383 l 483 400 l 500 383 l 517 400 l 533 383 m 200 383 l 183 367 l 200 350 l 183 333 l 167 350 l 150 333 l 133 350 l 150 367 l 133 383 l 150 400 l 167 383 l 183 400 l 200 383 m 133 383 l 117 367 l 133 350 l 117 333 l 100 350 l 83 333 l 67 350 l 83 367 l 67 383 l 83 400 l 100 383 l 117 400 l 133 383 m 200 517 l 183 500 l 200 483 l 183 467 l 167 483 l 150 467 l 133 483 l 150 500 l 133 517 l 150 533 l 167 517 l 183 533 l 200 517 m 200 583 l 183 567 l 200 550 l 183 533 l 167 550 l 150 533 l 133 550 l 150 567 l 133 583 l 150 600 l 167 583 l 183 600 l 200 583 m 200 650 l 183 633 l 200 617 l 183 600 l 167 617 l 150 600 l 133 617 l 150 633 l 133 650 l 150 667 l 167 650 l 183 667 l 200 650 m 67 517 l 50 500 l 67 483 l 50 467 l 33 483 l 17 467 l 0 483 l 17 500 l 0 517 l 17 533 l 33 517 l 50 533 l 67 517 m 133 583 l 117 567 l 133 550 l 117 533 l 100 550 l 83 533 l 67 550 l 83 567 l 67 583 l 83 600 l 100 583 l 117 600 l 133 583 m 133 517 l 117 500 l 133 483 l 117 467 l 100 483 l 83 467 l 67 483 l 83 500 l 67 517 l 83 533 l 100 517 l 117 533 l 133 517 m 133 -283 l 117 -300 l 133 -317 l 117 -333 l 100 -317 l 83 -333 l 67 -317 l 83 -300 l 67 -283 l 83 -267 l 100 -283 l 117 -267 l 133 -283 m 333 117 l 317 100 l 333 83 l 317 67 l 300 83 l 283 67 l 267 83 l 283 100 l 267 117 l 283 133 l 300 117 l 317 133 l 333 117 z "},"q":{"ha":600,"x_min":67,"x_max":600,"o":"m 217 600 l 233 583 l 250 600 l 267 583 l 250 567 l 267 550 l 250 533 l 233 550 l 217 533 l 200 550 l 217 567 l 200 583 l 217 600 m 150 533 l 167 517 l 183 533 l 200 517 l 183 500 l 200 483 l 183 467 l 167 483 l 150 467 l 133 483 l 150 500 l 133 517 l 150 533 m 217 533 l 233 517 l 250 533 l 267 517 l 250 500 l 267 483 l 250 467 l 233 483 l 217 467 l 200 483 l 217 500 l 200 517 l 217 533 m 150 467 l 167 450 l 183 467 l 200 450 l 183 433 l 200 417 l 183 400 l 167 417 l 150 400 l 133 417 l 150 433 l 133 450 l 150 467 m 83 333 l 100 317 l 117 333 l 133 317 l 117 300 l 133 283 l 117 267 l 100 283 l 83 267 l 67 283 l 83 300 l 67 317 l 83 333 m 83 267 l 100 250 l 117 267 l 133 250 l 117 233 l 133 217 l 117 200 l 100 217 l 83 200 l 67 217 l 83 233 l 67 250 l 83 267 m 150 333 l 167 317 l 183 333 l 200 317 l 183 300 l 200 283 l 183 267 l 167 283 l 150 267 l 133 283 l 150 300 l 133 317 l 150 333 m 150 267 l 167 250 l 183 267 l 200 250 l 183 233 l 200 217 l 183 200 l 167 217 l 150 200 l 133 217 l 150 233 l 133 250 l 150 267 m 150 200 l 167 183 l 183 200 l 200 183 l 183 167 l 200 150 l 183 133 l 167 150 l 150 133 l 133 150 l 150 167 l 133 183 l 150 200 m 217 200 l 233 183 l 250 200 l 267 183 l 250 167 l 267 150 l 250 133 l 233 150 l 217 133 l 200 150 l 217 167 l 200 183 l 217 200 m 217 133 l 233 117 l 250 133 l 267 117 l 250 100 l 267 83 l 250 67 l 233 83 l 217 67 l 200 83 l 217 100 l 200 117 l 217 133 m 150 133 l 167 117 l 183 133 l 200 117 l 183 100 l 200 83 l 183 67 l 167 83 l 150 67 l 133 83 l 150 100 l 133 117 l 150 133 m 283 133 l 300 117 l 317 133 l 333 117 l 317 100 l 333 83 l 317 67 l 300 83 l 283 67 l 267 83 l 283 100 l 267 117 l 283 133 m 350 133 l 367 117 l 383 133 l 400 117 l 383 100 l 400 83 l 383 67 l 367 83 l 350 67 l 333 83 l 350 100 l 333 117 l 350 133 m 283 67 l 300 50 l 317 67 l 333 50 l 317 33 l 333 17 l 317 0 l 300 17 l 283 0 l 267 17 l 283 33 l 267 50 l 283 67 m 217 67 l 233 50 l 250 67 l 267 50 l 250 33 l 267 17 l 250 0 l 233 17 l 217 0 l 200 17 l 217 33 l 200 50 l 217 67 m 150 400 l 167 383 l 183 400 l 200 383 l 183 367 l 200 350 l 183 333 l 167 350 l 150 333 l 133 350 l 150 367 l 133 383 l 150 400 m 83 400 l 100 383 l 117 400 l 133 383 l 117 367 l 133 350 l 117 333 l 100 350 l 83 333 l 67 350 l 83 367 l 67 383 l 83 400 m 400 417 l 417 433 l 400 450 l 417 467 l 433 450 l 450 467 l 467 450 l 450 433 l 467 417 l 450 400 l 433 417 l 417 400 l 400 417 m 467 417 l 483 433 l 467 450 l 483 467 l 500 450 l 517 467 l 533 450 l 517 433 l 533 417 l 517 400 l 500 417 l 483 400 l 467 417 m 467 350 l 483 367 l 467 383 l 483 400 l 500 383 l 517 400 l 533 383 l 517 367 l 533 350 l 517 333 l 500 350 l 483 333 l 467 350 m 400 350 l 417 367 l 400 383 l 417 400 l 433 383 l 450 400 l 467 383 l 450 367 l 467 350 l 450 333 l 433 350 l 417 333 l 400 350 m 400 217 l 417 233 l 400 250 l 417 267 l 433 250 l 450 267 l 467 250 l 450 233 l 467 217 l 450 200 l 433 217 l 417 200 l 400 217 m 467 217 l 483 233 l 467 250 l 483 267 l 500 250 l 517 267 l 533 250 l 517 233 l 533 217 l 517 200 l 500 217 l 483 200 l 467 217 m 400 283 l 417 300 l 400 317 l 417 333 l 433 317 l 450 333 l 467 317 l 450 300 l 467 283 l 450 267 l 433 283 l 417 267 l 400 283 m 467 283 l 483 300 l 467 317 l 483 333 l 500 317 l 517 333 l 533 317 l 517 300 l 533 283 l 517 267 l 500 283 l 483 267 l 467 283 m 400 150 l 417 167 l 400 183 l 417 200 l 433 183 l 450 200 l 467 183 l 450 167 l 467 150 l 450 133 l 433 150 l 417 133 l 400 150 m 400 83 l 417 100 l 400 117 l 417 133 l 433 117 l 450 133 l 467 117 l 450 100 l 467 83 l 450 67 l 433 83 l 417 67 l 400 83 m 467 -250 l 483 -233 l 467 -217 l 483 -200 l 500 -217 l 517 -200 l 533 -217 l 517 -233 l 533 -250 l 517 -267 l 500 -250 l 483 -267 l 467 -250 m 400 -250 l 417 -233 l 400 -217 l 417 -200 l 433 -217 l 450 -200 l 467 -217 l 450 -233 l 467 -250 l 450 -267 l 433 -250 l 417 -267 l 400 -250 m 400 -317 l 417 -300 l 400 -283 l 417 -267 l 433 -283 l 450 -267 l 467 -283 l 450 -300 l 467 -317 l 450 -333 l 433 -317 l 417 -333 l 400 -317 m 400 -183 l 417 -167 l 400 -150 l 417 -133 l 433 -150 l 450 -133 l 467 -150 l 450 -167 l 467 -183 l 450 -200 l 433 -183 l 417 -200 l 400 -183 m 467 -183 l 483 -167 l 467 -150 l 483 -133 l 500 -150 l 517 -133 l 533 -150 l 517 -167 l 533 -183 l 517 -200 l 500 -183 l 483 -200 l 467 -183 m 533 -183 l 550 -167 l 533 -150 l 550 -133 l 567 -150 l 583 -133 l 600 -150 l 583 -167 l 600 -183 l 583 -200 l 567 -183 l 550 -200 l 533 -183 m 467 -117 l 483 -100 l 467 -83 l 483 -67 l 500 -83 l 517 -67 l 533 -83 l 517 -100 l 533 -117 l 517 -133 l 500 -117 l 483 -133 l 467 -117 m 400 -117 l 417 -100 l 400 -83 l 417 -67 l 433 -83 l 450 -67 l 467 -83 l 450 -100 l 467 -117 l 450 -133 l 433 -117 l 417 -133 l 400 -117 m 467 -50 l 483 -33 l 467 -17 l 483 0 l 500 -17 l 517 0 l 533 -17 l 517 -33 l 533 -50 l 517 -67 l 500 -50 l 483 -67 l 467 -50 m 400 -50 l 417 -33 l 400 -17 l 417 0 l 433 -17 l 450 0 l 467 -17 l 450 -33 l 467 -50 l 450 -67 l 433 -50 l 417 -67 l 400 -50 m 400 17 l 417 33 l 400 50 l 417 67 l 433 50 l 450 67 l 467 50 l 450 33 l 467 17 l 450 0 l 433 17 l 417 0 l 400 17 m 467 17 l 483 33 l 467 50 l 483 67 l 500 50 l 517 67 l 533 50 l 517 33 l 533 17 l 517 0 l 500 17 l 483 0 l 467 17 m 467 83 l 483 100 l 467 117 l 483 133 l 500 117 l 517 133 l 533 117 l 517 100 l 533 83 l 517 67 l 500 83 l 483 67 l 467 83 m 467 150 l 483 167 l 467 183 l 483 200 l 500 183 l 517 200 l 533 183 l 517 167 l 533 150 l 517 133 l 500 150 l 483 133 l 467 150 m 400 483 l 417 500 l 400 517 l 417 533 l 433 517 l 450 533 l 467 517 l 450 500 l 467 483 l 450 467 l 433 483 l 417 467 l 400 483 m 467 483 l 483 500 l 467 517 l 483 533 l 500 517 l 517 533 l 533 517 l 517 500 l 533 483 l 517 467 l 500 483 l 483 467 l 467 483 m 400 550 l 417 567 l 400 583 l 417 600 l 433 583 l 450 600 l 467 583 l 450 567 l 467 550 l 450 533 l 433 550 l 417 533 l 400 550 m 467 550 l 483 567 l 467 583 l 483 600 l 500 583 l 517 600 l 533 583 l 517 567 l 533 550 l 517 533 l 500 550 l 483 533 l 467 550 m 467 617 l 483 633 l 467 650 l 483 667 l 500 650 l 517 667 l 533 650 l 517 633 l 533 617 l 517 600 l 500 617 l 483 600 l 467 617 m 533 617 l 550 633 l 533 650 l 550 667 l 567 650 l 583 667 l 600 650 l 583 633 l 600 617 l 583 600 l 567 617 l 550 600 l 533 617 m 333 617 l 350 633 l 333 650 l 350 667 l 367 650 l 383 667 l 400 650 l 383 633 l 400 617 l 383 600 l 367 617 l 350 600 l 333 617 m 400 617 l 417 633 l 400 650 l 417 667 l 433 650 l 450 667 l 467 650 l 450 633 l 467 617 l 450 600 l 433 617 l 417 600 l 400 617 m 267 617 l 283 633 l 267 650 l 283 667 l 300 650 l 317 667 l 333 650 l 317 633 l 333 617 l 317 600 l 300 617 l 283 600 l 267 617 z "},"r":{"ha":467,"x_min":0,"x_max":400,"o":"m 200 650 l 183 633 l 200 617 l 183 600 l 167 617 l 150 600 l 133 617 l 150 633 l 133 650 l 150 667 l 167 650 l 183 667 l 200 650 m 333 650 l 317 633 l 333 617 l 317 600 l 300 617 l 283 600 l 267 617 l 283 633 l 267 650 l 283 667 l 300 650 l 317 667 l 333 650 m 333 583 l 317 567 l 333 550 l 317 533 l 300 550 l 283 533 l 267 550 l 283 567 l 267 583 l 283 600 l 300 583 l 317 600 l 333 583 m 400 583 l 383 567 l 400 550 l 383 533 l 367 550 l 350 533 l 333 550 l 350 567 l 333 583 l 350 600 l 367 583 l 383 600 l 400 583 m 400 517 l 383 500 l 400 483 l 383 467 l 367 483 l 350 467 l 333 483 l 350 500 l 333 517 l 350 533 l 367 517 l 383 533 l 400 517 m 333 450 l 317 433 l 333 417 l 317 400 l 300 417 l 283 400 l 267 417 l 283 433 l 267 450 l 283 467 l 300 450 l 317 467 l 333 450 m 267 583 l 250 567 l 267 550 l 250 533 l 233 550 l 217 533 l 200 550 l 217 567 l 200 583 l 217 600 l 233 583 l 250 600 l 267 583 m 200 583 l 183 567 l 200 550 l 183 533 l 167 550 l 150 533 l 133 550 l 150 567 l 133 583 l 150 600 l 167 583 l 183 600 l 200 583 m 133 583 l 117 567 l 133 550 l 117 533 l 100 550 l 83 533 l 67 550 l 83 567 l 67 583 l 83 600 l 100 583 l 117 600 l 133 583 m 133 517 l 117 500 l 133 483 l 117 467 l 100 483 l 83 467 l 67 483 l 83 500 l 67 517 l 83 533 l 100 517 l 117 533 l 133 517 m 67 517 l 50 500 l 67 483 l 50 467 l 33 483 l 17 467 l 0 483 l 17 500 l 0 517 l 17 533 l 33 517 l 50 533 l 67 517 m 200 517 l 183 500 l 200 483 l 183 467 l 167 483 l 150 467 l 133 483 l 150 500 l 133 517 l 150 533 l 167 517 l 183 533 l 200 517 m 200 450 l 183 433 l 200 417 l 183 400 l 167 417 l 150 400 l 133 417 l 150 433 l 133 450 l 150 467 l 167 450 l 183 467 l 200 450 m 133 450 l 117 433 l 133 417 l 117 400 l 100 417 l 83 400 l 67 417 l 83 433 l 67 450 l 83 467 l 100 450 l 117 467 l 133 450 m 133 383 l 117 367 l 133 350 l 117 333 l 100 350 l 83 333 l 67 350 l 83 367 l 67 383 l 83 400 l 100 383 l 117 400 l 133 383 m 200 383 l 183 367 l 200 350 l 183 333 l 167 350 l 150 333 l 133 350 l 150 367 l 133 383 l 150 400 l 167 383 l 183 400 l 200 383 m 133 317 l 117 300 l 133 283 l 117 267 l 100 283 l 83 267 l 67 283 l 83 300 l 67 317 l 83 333 l 100 317 l 117 333 l 133 317 m 200 317 l 183 300 l 200 283 l 183 267 l 167 283 l 150 267 l 133 283 l 150 300 l 133 317 l 150 333 l 167 317 l 183 333 l 200 317 m 200 250 l 183 233 l 200 217 l 183 200 l 167 217 l 150 200 l 133 217 l 150 233 l 133 250 l 150 267 l 167 250 l 183 267 l 200 250 m 133 250 l 117 233 l 133 217 l 117 200 l 100 217 l 83 200 l 67 217 l 83 233 l 67 250 l 83 267 l 100 250 l 117 267 l 133 250 m 133 183 l 117 167 l 133 150 l 117 133 l 100 150 l 83 133 l 67 150 l 83 167 l 67 183 l 83 200 l 100 183 l 117 200 l 133 183 m 200 183 l 183 167 l 200 150 l 183 133 l 167 150 l 150 133 l 133 150 l 150 167 l 133 183 l 150 200 l 167 183 l 183 200 l 200 183 m 200 117 l 183 100 l 200 83 l 183 67 l 167 83 l 150 67 l 133 83 l 150 100 l 133 117 l 150 133 l 167 117 l 183 133 l 200 117 m 133 117 l 117 100 l 133 83 l 117 67 l 100 83 l 83 67 l 67 83 l 83 100 l 67 117 l 83 133 l 100 117 l 117 133 l 133 117 m 133 50 l 117 33 l 133 17 l 117 0 l 100 17 l 83 0 l 67 17 l 83 33 l 67 50 l 83 67 l 100 50 l 117 67 l 133 50 z "},"s":{"ha":533,"x_min":0,"x_max":467,"o":"m 400 583 l 383 567 l 400 550 l 383 533 l 367 550 l 350 533 l 333 550 l 350 567 l 333 583 l 350 600 l 367 583 l 383 600 l 400 583 m 333 583 l 317 567 l 333 550 l 317 533 l 300 550 l 283 533 l 267 550 l 283 567 l 267 583 l 283 600 l 300 583 l 317 600 l 333 583 m 400 650 l 383 633 l 400 617 l 383 600 l 367 617 l 350 600 l 333 617 l 350 633 l 333 650 l 350 667 l 367 650 l 383 667 l 400 650 m 467 517 l 450 500 l 467 483 l 450 467 l 433 483 l 417 467 l 400 483 l 417 500 l 400 517 l 417 533 l 433 517 l 450 533 l 467 517 m 400 450 l 383 433 l 400 417 l 383 400 l 367 417 l 350 400 l 333 417 l 350 433 l 333 450 l 350 467 l 367 450 l 383 467 l 400 450 m 467 583 l 450 567 l 467 550 l 450 533 l 433 550 l 417 533 l 400 550 l 417 567 l 400 583 l 417 600 l 433 583 l 450 600 l 467 583 m 267 583 l 250 567 l 267 550 l 250 533 l 233 550 l 217 533 l 200 550 l 217 567 l 200 583 l 217 600 l 233 583 l 250 600 l 267 583 m 200 517 l 183 500 l 200 483 l 183 467 l 167 483 l 150 467 l 133 483 l 150 500 l 133 517 l 150 533 l 167 517 l 183 533 l 200 517 m 83 467 l 100 450 l 117 467 l 133 450 l 117 433 l 133 417 l 117 400 l 100 417 l 83 400 l 67 417 l 83 433 l 67 450 l 83 467 m 150 467 l 167 450 l 183 467 l 200 450 l 183 433 l 200 417 l 183 400 l 167 417 l 150 400 l 133 417 l 150 433 l 133 450 l 150 467 m 150 400 l 167 383 l 183 400 l 200 383 l 183 367 l 200 350 l 183 333 l 167 350 l 150 333 l 133 350 l 150 367 l 133 383 l 150 400 m 83 400 l 100 383 l 117 400 l 133 383 l 117 367 l 133 350 l 117 333 l 100 350 l 83 333 l 67 350 l 83 367 l 67 383 l 83 400 m 217 400 l 233 383 l 250 400 l 267 383 l 250 367 l 267 350 l 250 333 l 233 350 l 217 333 l 200 350 l 217 367 l 200 383 l 217 400 m 283 333 l 300 317 l 317 333 l 333 317 l 317 300 l 333 283 l 317 267 l 300 283 l 283 267 l 267 283 l 283 300 l 267 317 l 283 333 m 217 333 l 233 317 l 250 333 l 267 317 l 250 300 l 267 283 l 250 267 l 233 283 l 217 267 l 200 283 l 217 300 l 200 317 l 217 333 m 350 333 l 367 317 l 383 333 l 400 317 l 383 300 l 400 283 l 383 267 l 367 283 l 350 267 l 333 283 l 350 300 l 333 317 l 350 333 m 417 267 l 433 250 l 450 267 l 467 250 l 450 233 l 467 217 l 450 200 l 433 217 l 417 200 l 400 217 l 417 233 l 400 250 l 417 267 m 350 267 l 367 250 l 383 267 l 400 250 l 383 233 l 400 217 l 383 200 l 367 217 l 350 200 l 333 217 l 350 233 l 333 250 l 350 267 m 417 200 l 433 183 l 450 200 l 467 183 l 450 167 l 467 150 l 450 133 l 433 150 l 417 133 l 400 150 l 417 167 l 400 183 l 417 200 m 350 200 l 367 183 l 383 200 l 400 183 l 383 167 l 400 150 l 383 133 l 367 150 l 350 133 l 333 150 l 350 167 l 333 183 l 350 200 m 350 133 l 367 117 l 383 133 l 400 117 l 383 100 l 400 83 l 383 67 l 367 83 l 350 67 l 333 83 l 350 100 l 333 117 l 350 133 m 283 133 l 300 117 l 317 133 l 333 117 l 317 100 l 333 83 l 317 67 l 300 83 l 283 67 l 267 83 l 283 100 l 267 117 l 283 133 m 217 67 l 233 50 l 250 67 l 267 50 l 250 33 l 267 17 l 250 0 l 233 17 l 217 0 l 200 17 l 217 33 l 200 50 l 217 67 m 283 67 l 300 50 l 317 67 l 333 50 l 317 33 l 333 17 l 317 0 l 300 17 l 283 0 l 267 17 l 283 33 l 267 50 l 283 67 m 150 67 l 167 50 l 183 67 l 200 50 l 183 33 l 200 17 l 183 0 l 167 17 l 150 0 l 133 17 l 150 33 l 133 50 l 150 67 m 150 133 l 167 117 l 183 133 l 200 117 l 183 100 l 200 83 l 183 67 l 167 83 l 150 67 l 133 83 l 150 100 l 133 117 l 150 133 m 83 133 l 100 117 l 117 133 l 133 117 l 117 100 l 133 83 l 117 67 l 100 83 l 83 67 l 67 83 l 83 100 l 67 117 l 83 133 m 17 67 l 33 50 l 50 67 l 67 50 l 50 33 l 67 17 l 50 0 l 33 17 l 17 0 l 0 17 l 17 33 l 0 50 l 17 67 m 150 200 l 167 183 l 183 200 l 200 183 l 183 167 l 200 150 l 183 133 l 167 150 l 150 133 l 133 150 l 150 167 l 133 183 l 150 200 m 150 333 l 167 317 l 183 333 l 200 317 l 183 300 l 200 283 l 183 267 l 167 283 l 150 267 l 133 283 l 150 300 l 133 317 l 150 333 z "},"t":{"ha":400,"x_min":0,"x_max":400,"o":"m 217 533 l 233 517 l 250 533 l 267 517 l 250 500 l 267 483 l 250 467 l 233 483 l 217 467 l 200 483 l 217 500 l 200 517 l 217 533 l 217 533 m 217 600 l 233 583 l 250 600 l 267 583 l 250 567 l 267 550 l 250 533 l 233 550 l 217 533 l 200 550 l 217 567 l 200 583 l 217 600 l 217 600 m 283 533 l 300 517 l 317 533 l 333 517 l 317 500 l 333 483 l 317 467 l 300 483 l 283 467 l 267 483 l 283 500 l 267 517 l 283 533 l 283 533 m 283 600 l 300 583 l 317 600 l 333 583 l 317 567 l 333 550 l 317 533 l 300 550 l 283 533 l 267 550 l 283 567 l 267 583 l 283 600 l 283 600 m 83 200 l 100 183 l 117 200 l 133 183 l 117 167 l 133 150 l 117 133 l 100 150 l 83 133 l 67 150 l 83 167 l 67 183 l 83 200 l 83 200 m 83 267 l 100 250 l 117 267 l 133 250 l 117 233 l 133 217 l 117 200 l 100 217 l 83 200 l 67 217 l 83 233 l 67 250 l 83 267 l 83 267 m 150 267 l 167 250 l 183 267 l 200 250 l 183 233 l 200 217 l 183 200 l 167 217 l 150 200 l 133 217 l 150 233 l 133 250 l 150 267 l 150 267 m 150 333 l 167 317 l 183 333 l 200 317 l 183 300 l 200 283 l 183 267 l 167 283 l 150 267 l 133 283 l 150 300 l 133 317 l 150 333 l 150 333 m 83 333 l 100 317 l 117 333 l 133 317 l 117 300 l 133 283 l 117 267 l 100 283 l 83 267 l 67 283 l 83 300 l 67 317 l 83 333 l 83 333 m 150 467 l 167 450 l 183 467 l 200 450 l 183 433 l 200 417 l 183 400 l 167 417 l 150 400 l 133 417 l 150 433 l 133 450 l 150 467 l 150 467 m 83 400 l 100 383 l 117 400 l 133 383 l 117 367 l 133 350 l 117 333 l 100 350 l 83 333 l 67 350 l 83 367 l 67 383 l 83 400 l 83 400 m 150 400 l 167 383 l 183 400 l 200 383 l 183 367 l 200 350 l 183 333 l 167 350 l 150 333 l 133 350 l 150 367 l 133 383 l 150 400 l 150 400 m 83 533 l 100 517 l 117 533 l 133 517 l 117 500 l 133 483 l 117 467 l 100 483 l 83 467 l 67 483 l 83 500 l 67 517 l 83 533 l 83 533 m 17 533 l 33 517 l 50 533 l 67 517 l 50 500 l 67 483 l 50 467 l 33 483 l 17 467 l 0 483 l 17 500 l 0 517 l 17 533 l 17 533 m 83 600 l 100 583 l 117 600 l 133 583 l 117 567 l 133 550 l 117 533 l 100 550 l 83 533 l 67 550 l 83 567 l 67 583 l 83 600 l 83 600 m 117 933 l 133 917 l 117 900 l 133 883 l 117 867 l 100 883 l 83 867 l 67 883 l 83 900 l 67 917 l 83 933 l 100 917 l 117 933 m 183 933 l 200 917 l 183 900 l 200 883 l 183 867 l 167 883 l 150 867 l 133 883 l 150 900 l 133 917 l 150 933 l 167 917 l 183 933 m 183 1000 l 200 983 l 183 967 l 200 950 l 183 933 l 167 950 l 150 933 l 133 950 l 150 967 l 133 983 l 150 1000 l 167 983 l 183 1000 m 183 867 l 200 850 l 183 833 l 200 817 l 183 800 l 167 817 l 150 800 l 133 817 l 150 833 l 133 850 l 150 867 l 167 850 l 183 867 m 117 867 l 133 850 l 117 833 l 133 817 l 117 800 l 100 817 l 83 800 l 67 817 l 83 833 l 67 850 l 83 867 l 100 850 l 117 867 m 50 867 l 67 850 l 50 833 l 67 817 l 50 800 l 33 817 l 17 800 l 0 817 l 17 833 l 0 850 l 17 867 l 33 850 l 50 867 m 117 800 l 133 783 l 117 767 l 133 750 l 117 733 l 100 750 l 83 733 l 67 750 l 83 767 l 67 783 l 83 800 l 100 783 l 117 800 m 183 800 l 200 783 l 183 767 l 200 750 l 183 733 l 167 750 l 150 733 l 133 750 l 150 767 l 133 783 l 150 800 l 167 783 l 183 800 m 150 733 l 167 717 l 183 733 l 200 717 l 183 700 l 200 683 l 183 667 l 167 683 l 150 667 l 133 683 l 150 700 l 133 717 l 150 733 l 150 733 m 83 733 l 100 717 l 117 733 l 133 717 l 117 700 l 133 683 l 117 667 l 100 683 l 83 667 l 67 683 l 83 700 l 67 717 l 83 733 l 83 733 m 83 667 l 100 650 l 117 667 l 133 650 l 117 633 l 133 617 l 117 600 l 100 617 l 83 600 l 67 617 l 83 633 l 67 650 l 83 667 l 83 667 m 150 667 l 167 650 l 183 667 l 200 650 l 183 633 l 200 617 l 183 600 l 167 617 l 150 600 l 133 617 l 150 633 l 133 650 l 150 667 l 150 667 m 150 600 l 167 583 l 183 600 l 200 583 l 183 567 l 200 550 l 183 533 l 167 550 l 150 533 l 133 550 l 150 567 l 133 583 l 150 600 l 150 600 m 150 533 l 167 517 l 183 533 l 200 517 l 183 500 l 200 483 l 183 467 l 167 483 l 150 467 l 133 483 l 150 500 l 133 517 l 150 533 l 150 533 m 250 67 l 267 50 l 250 33 l 267 17 l 250 0 l 233 17 l 217 0 l 200 17 l 217 33 l 200 50 l 217 67 l 233 50 l 250 67 m 183 133 l 200 117 l 183 100 l 200 83 l 183 67 l 167 83 l 150 67 l 133 83 l 150 100 l 133 117 l 150 133 l 167 117 l 183 133 m 183 200 l 200 183 l 183 167 l 200 150 l 183 133 l 167 150 l 150 133 l 133 150 l 150 167 l 133 183 l 150 200 l 167 183 l 183 200 m 317 200 l 333 183 l 317 167 l 333 150 l 317 133 l 300 150 l 283 133 l 267 150 l 283 167 l 267 183 l 283 200 l 300 183 l 317 200 m 250 133 l 267 117 l 250 100 l 267 83 l 250 67 l 233 83 l 217 67 l 200 83 l 217 100 l 200 117 l 217 133 l 233 117 l 250 133 m 317 133 l 333 117 l 317 100 l 333 83 l 317 67 l 300 83 l 283 67 l 267 83 l 283 100 l 267 117 l 283 133 l 300 117 l 317 133 m 83 467 l 100 450 l 117 467 l 133 450 l 117 433 l 133 417 l 117 400 l 100 417 l 83 400 l 67 417 l 83 433 l 67 450 l 83 467 m 350 667 l 367 650 l 383 667 l 400 650 l 383 633 l 400 617 l 383 600 l 367 617 l 350 600 l 333 617 l 350 633 l 333 650 l 350 667 z "},"u":{"ha":600,"x_min":0,"x_max":600,"o":"m 333 150 l 350 167 l 333 183 l 350 200 l 367 183 l 383 200 l 400 183 l 383 167 l 400 150 l 383 133 l 367 150 l 350 133 l 333 150 m 267 83 l 283 100 l 267 117 l 283 133 l 300 117 l 317 133 l 333 117 l 317 100 l 333 83 l 317 67 l 300 83 l 283 67 l 267 83 m 200 17 l 217 33 l 200 50 l 217 67 l 233 50 l 250 67 l 267 50 l 250 33 l 267 17 l 250 0 l 233 17 l 217 0 l 200 17 m 133 83 l 150 100 l 133 117 l 150 133 l 167 117 l 183 133 l 200 117 l 183 100 l 200 83 l 183 67 l 167 83 l 150 67 l 133 83 m 200 83 l 217 100 l 200 117 l 217 133 l 233 117 l 250 133 l 267 117 l 250 100 l 267 83 l 250 67 l 233 83 l 217 67 l 200 83 m 67 150 l 83 167 l 67 183 l 83 200 l 100 183 l 117 200 l 133 183 l 117 167 l 133 150 l 117 133 l 100 150 l 83 133 l 67 150 m 133 150 l 150 167 l 133 183 l 150 200 l 167 183 l 183 200 l 200 183 l 183 167 l 200 150 l 183 133 l 167 150 l 150 133 l 133 150 m 133 217 l 150 233 l 133 250 l 150 267 l 167 250 l 183 267 l 200 250 l 183 233 l 200 217 l 183 200 l 167 217 l 150 200 l 133 217 m 67 217 l 83 233 l 67 250 l 83 267 l 100 250 l 117 267 l 133 250 l 117 233 l 133 217 l 117 200 l 100 217 l 83 200 l 67 217 m 67 350 l 83 367 l 67 383 l 83 400 l 100 383 l 117 400 l 133 383 l 117 367 l 133 350 l 117 333 l 100 350 l 83 333 l 67 350 m 67 417 l 83 433 l 67 450 l 83 467 l 100 450 l 117 467 l 133 450 l 117 433 l 133 417 l 117 400 l 100 417 l 83 400 l 67 417 m 133 350 l 150 367 l 133 383 l 150 400 l 167 383 l 183 400 l 200 383 l 183 367 l 200 350 l 183 333 l 167 350 l 150 333 l 133 350 m 133 417 l 150 433 l 133 450 l 150 467 l 167 450 l 183 467 l 200 450 l 183 433 l 200 417 l 183 400 l 167 417 l 150 400 l 133 417 m 133 283 l 150 300 l 133 317 l 150 333 l 167 317 l 183 333 l 200 317 l 183 300 l 200 283 l 183 267 l 167 283 l 150 267 l 133 283 m 67 283 l 83 300 l 67 317 l 83 333 l 100 317 l 117 333 l 133 317 l 117 300 l 133 283 l 117 267 l 100 283 l 83 267 l 67 283 m 400 17 l 417 33 l 400 50 l 417 67 l 433 50 l 450 67 l 467 50 l 450 33 l 467 17 l 450 0 l 433 17 l 417 0 l 400 17 m 400 83 l 417 100 l 400 117 l 417 133 l 433 117 l 450 133 l 467 117 l 450 100 l 467 83 l 450 67 l 433 83 l 417 67 l 400 83 m 467 83 l 483 100 l 467 117 l 483 133 l 500 117 l 517 133 l 533 117 l 517 100 l 533 83 l 517 67 l 500 83 l 483 67 l 467 83 m 467 150 l 483 167 l 467 183 l 483 200 l 500 183 l 517 200 l 533 183 l 517 167 l 533 150 l 517 133 l 500 150 l 483 133 l 467 150 m 533 150 l 550 167 l 533 183 l 550 200 l 567 183 l 583 200 l 600 183 l 583 167 l 600 150 l 583 133 l 567 150 l 550 133 l 533 150 m 400 150 l 417 167 l 400 183 l 417 200 l 433 183 l 450 200 l 467 183 l 450 167 l 467 150 l 450 133 l 433 150 l 417 133 l 400 150 m 400 217 l 417 233 l 400 250 l 417 267 l 433 250 l 450 267 l 467 250 l 450 233 l 467 217 l 450 200 l 433 217 l 417 200 l 400 217 m 467 217 l 483 233 l 467 250 l 483 267 l 500 250 l 517 267 l 533 250 l 517 233 l 533 217 l 517 200 l 500 217 l 483 200 l 467 217 m 467 283 l 483 300 l 467 317 l 483 333 l 500 317 l 517 333 l 533 317 l 517 300 l 533 283 l 517 267 l 500 283 l 483 267 l 467 283 m 400 283 l 417 300 l 400 317 l 417 333 l 433 317 l 450 333 l 467 317 l 450 300 l 467 283 l 450 267 l 433 283 l 417 267 l 400 283 m 467 350 l 483 367 l 467 383 l 483 400 l 500 383 l 517 400 l 533 383 l 517 367 l 533 350 l 517 333 l 500 350 l 483 333 l 467 350 m 400 350 l 417 367 l 400 383 l 417 400 l 433 383 l 450 400 l 467 383 l 450 367 l 467 350 l 450 333 l 433 350 l 417 333 l 400 350 m 400 417 l 417 433 l 400 450 l 417 467 l 433 450 l 450 467 l 467 450 l 450 433 l 467 417 l 450 400 l 433 417 l 417 400 l 400 417 m 467 417 l 483 433 l 467 450 l 483 467 l 500 450 l 517 467 l 533 450 l 517 433 l 533 417 l 517 400 l 500 417 l 483 400 l 467 417 m 467 483 l 483 500 l 467 517 l 483 533 l 500 517 l 517 533 l 533 517 l 517 500 l 533 483 l 517 467 l 500 483 l 483 467 l 467 483 m 400 483 l 417 500 l 400 517 l 417 533 l 433 517 l 450 533 l 467 517 l 450 500 l 467 483 l 450 467 l 433 483 l 417 467 l 400 483 m 400 550 l 417 567 l 400 583 l 417 600 l 433 583 l 450 600 l 467 583 l 450 567 l 467 550 l 450 533 l 433 550 l 417 533 l 400 550 m 467 550 l 483 567 l 467 583 l 483 600 l 500 583 l 517 600 l 533 583 l 517 567 l 533 550 l 517 533 l 500 550 l 483 533 l 467 550 m 467 617 l 483 633 l 467 650 l 483 667 l 500 650 l 517 667 l 533 650 l 517 633 l 533 617 l 517 600 l 500 617 l 483 600 l 467 617 m 133 483 l 150 500 l 133 517 l 150 533 l 167 517 l 183 533 l 200 517 l 183 500 l 200 483 l 183 467 l 167 483 l 150 467 l 133 483 m 67 483 l 83 500 l 67 517 l 83 533 l 100 517 l 117 533 l 133 517 l 117 500 l 133 483 l 117 467 l 100 483 l 83 467 l 67 483 m 0 483 l 17 500 l 0 517 l 17 533 l 33 517 l 50 533 l 67 517 l 50 500 l 67 483 l 50 467 l 33 483 l 17 467 l 0 483 m 67 550 l 83 567 l 67 583 l 83 600 l 100 583 l 117 600 l 133 583 l 117 567 l 133 550 l 117 533 l 100 550 l 83 533 l 67 550 m 133 550 l 150 567 l 133 583 l 150 600 l 167 583 l 183 600 l 200 583 l 183 567 l 200 550 l 183 533 l 167 550 l 150 533 l 133 550 m 133 617 l 150 633 l 133 650 l 150 667 l 167 650 l 183 667 l 200 650 l 183 633 l 200 617 l 183 600 l 167 617 l 150 600 l 133 617 z "},"v":{"ha":600,"x_min":0,"x_max":533,"o":"m 133 217 l 150 233 l 133 250 l 150 267 l 167 250 l 183 267 l 200 250 l 183 233 l 200 217 l 183 200 l 167 217 l 150 200 l 133 217 m 67 217 l 83 233 l 67 250 l 83 267 l 100 250 l 117 267 l 133 250 l 117 233 l 133 217 l 117 200 l 100 217 l 83 200 l 67 217 m 67 350 l 83 367 l 67 383 l 83 400 l 100 383 l 117 400 l 133 383 l 117 367 l 133 350 l 117 333 l 100 350 l 83 333 l 67 350 m 67 417 l 83 433 l 67 450 l 83 467 l 100 450 l 117 467 l 133 450 l 117 433 l 133 417 l 117 400 l 100 417 l 83 400 l 67 417 m 133 350 l 150 367 l 133 383 l 150 400 l 167 383 l 183 400 l 200 383 l 183 367 l 200 350 l 183 333 l 167 350 l 150 333 l 133 350 m 133 417 l 150 433 l 133 450 l 150 467 l 167 450 l 183 467 l 200 450 l 183 433 l 200 417 l 183 400 l 167 417 l 150 400 l 133 417 m 133 283 l 150 300 l 133 317 l 150 333 l 167 317 l 183 333 l 200 317 l 183 300 l 200 283 l 183 267 l 167 283 l 150 267 l 133 283 m 67 283 l 83 300 l 67 317 l 83 333 l 100 317 l 117 333 l 133 317 l 117 300 l 133 283 l 117 267 l 100 283 l 83 267 l 67 283 m 400 217 l 417 233 l 400 250 l 417 267 l 433 250 l 450 267 l 467 250 l 450 233 l 467 217 l 450 200 l 433 217 l 417 200 l 400 217 m 467 217 l 483 233 l 467 250 l 483 267 l 500 250 l 517 267 l 533 250 l 517 233 l 533 217 l 517 200 l 500 217 l 483 200 l 467 217 m 467 283 l 483 300 l 467 317 l 483 333 l 500 317 l 517 333 l 533 317 l 517 300 l 533 283 l 517 267 l 500 283 l 483 267 l 467 283 m 400 283 l 417 300 l 400 317 l 417 333 l 433 317 l 450 333 l 467 317 l 450 300 l 467 283 l 450 267 l 433 283 l 417 267 l 400 283 m 467 350 l 483 367 l 467 383 l 483 400 l 500 383 l 517 400 l 533 383 l 517 367 l 533 350 l 517 333 l 500 350 l 483 333 l 467 350 m 400 350 l 417 367 l 400 383 l 417 400 l 433 383 l 450 400 l 467 383 l 450 367 l 467 350 l 450 333 l 433 350 l 417 333 l 400 350 m 400 417 l 417 433 l 400 450 l 417 467 l 433 450 l 450 467 l 467 450 l 450 433 l 467 417 l 450 400 l 433 417 l 417 400 l 400 417 m 467 417 l 483 433 l 467 450 l 483 467 l 500 450 l 517 467 l 533 450 l 517 433 l 533 417 l 517 400 l 500 417 l 483 400 l 467 417 m 467 483 l 483 500 l 467 517 l 483 533 l 500 517 l 517 533 l 533 517 l 517 500 l 533 483 l 517 467 l 500 483 l 483 467 l 467 483 m 400 483 l 417 500 l 400 517 l 417 533 l 433 517 l 450 533 l 467 517 l 450 500 l 467 483 l 450 467 l 433 483 l 417 467 l 400 483 m 400 550 l 417 567 l 400 583 l 417 600 l 433 583 l 450 600 l 467 583 l 450 567 l 467 550 l 450 533 l 433 550 l 417 533 l 400 550 m 467 550 l 483 567 l 467 583 l 483 600 l 500 583 l 517 600 l 533 583 l 517 567 l 533 550 l 517 533 l 500 550 l 483 533 l 467 550 m 400 617 l 417 633 l 400 650 l 417 667 l 433 650 l 450 667 l 467 650 l 450 633 l 467 617 l 450 600 l 433 617 l 417 600 l 400 617 m 133 483 l 150 500 l 133 517 l 150 533 l 167 517 l 183 533 l 200 517 l 183 500 l 200 483 l 183 467 l 167 483 l 150 467 l 133 483 m 67 483 l 83 500 l 67 517 l 83 533 l 100 517 l 117 533 l 133 517 l 117 500 l 133 483 l 117 467 l 100 483 l 83 467 l 67 483 m 0 483 l 17 500 l 0 517 l 17 533 l 33 517 l 50 533 l 67 517 l 50 500 l 67 483 l 50 467 l 33 483 l 17 467 l 0 483 m 67 550 l 83 567 l 67 583 l 83 600 l 100 583 l 117 600 l 133 583 l 117 567 l 133 550 l 117 533 l 100 550 l 83 533 l 67 550 m 133 550 l 150 567 l 133 583 l 150 600 l 167 583 l 183 600 l 200 583 l 183 567 l 200 550 l 183 533 l 167 550 l 150 533 l 133 550 m 133 617 l 150 633 l 133 650 l 150 667 l 167 650 l 183 667 l 200 650 l 183 633 l 200 617 l 183 600 l 167 617 l 150 600 l 133 617 m 333 150 l 350 167 l 333 183 l 350 200 l 367 183 l 383 200 l 400 183 l 383 167 l 400 150 l 383 133 l 367 150 l 350 133 l 333 150 m 400 150 l 417 167 l 400 183 l 417 200 l 433 183 l 450 200 l 467 183 l 450 167 l 467 150 l 450 133 l 433 150 l 417 133 l 400 150 m 267 83 l 283 100 l 267 117 l 283 133 l 300 117 l 317 133 l 333 117 l 317 100 l 333 83 l 317 67 l 300 83 l 283 67 l 267 83 m 267 17 l 283 33 l 267 50 l 283 67 l 300 50 l 317 67 l 333 50 l 317 33 l 333 17 l 317 0 l 300 17 l 283 0 l 267 17 m 200 83 l 217 100 l 200 117 l 217 133 l 233 117 l 250 133 l 267 117 l 250 100 l 267 83 l 250 67 l 233 83 l 217 67 l 200 83 m 333 83 l 350 100 l 333 117 l 350 133 l 367 117 l 383 133 l 400 117 l 383 100 l 400 83 l 383 67 l 367 83 l 350 67 l 333 83 m 200 150 l 217 167 l 200 183 l 217 200 l 233 183 l 250 200 l 267 183 l 250 167 l 267 150 l 250 133 l 233 150 l 217 133 l 200 150 m 133 150 l 150 167 l 133 183 l 150 200 l 167 183 l 183 200 l 200 183 l 183 167 l 200 150 l 183 133 l 167 150 l 150 133 l 133 150 m 333 550 l 350 567 l 333 583 l 350 600 l 367 583 l 383 600 l 400 583 l 383 567 l 400 550 l 383 533 l 367 550 l 350 533 l 333 550 m 267 483 l 283 500 l 267 517 l 283 533 l 300 517 l 317 533 l 333 517 l 317 500 l 333 483 l 317 467 l 300 483 l 283 467 l 267 483 z "},"w":{"ha":933,"x_min":0,"x_max":867,"o":"m 350 133 l 333 150 l 350 167 l 333 183 l 350 200 l 367 183 l 383 200 l 400 183 l 383 167 l 400 150 l 383 133 l 367 150 l 350 133 m 283 67 l 267 83 l 283 100 l 267 117 l 283 133 l 300 117 l 317 133 l 333 117 l 317 100 l 333 83 l 317 67 l 300 83 l 283 67 m 283 0 l 268 17 l 283 33 l 267 50 l 283 67 l 300 50 l 317 67 l 333 50 l 317 33 l 333 17 l 317 0 l 300 17 l 283 0 m 217 67 l 200 83 l 217 100 l 200 117 l 217 133 l 233 117 l 250 133 l 267 117 l 250 100 l 267 83 l 250 67 l 233 83 l 217 67 m 350 67 l 333 83 l 350 100 l 333 117 l 350 133 l 367 117 l 383 133 l 400 117 l 383 100 l 400 83 l 383 67 l 367 83 l 350 67 m 150 133 l 133 150 l 150 167 l 133 183 l 150 200 l 167 183 l 183 200 l 200 183 l 183 167 l 200 150 l 183 133 l 167 150 l 150 133 m 217 133 l 200 150 l 217 167 l 200 183 l 217 200 l 233 183 l 250 200 l 267 183 l 250 167 l 267 150 l 250 133 l 233 150 l 217 133 m 150 200 l 133 217 l 150 233 l 133 250 l 150 267 l 167 250 l 183 267 l 200 250 l 183 233 l 200 217 l 183 200 l 167 217 l 150 200 m 83 200 l 67 217 l 83 233 l 67 250 l 83 267 l 100 250 l 117 267 l 133 250 l 117 233 l 133 217 l 117 200 l 100 217 l 83 200 m 83 333 l 67 350 l 83 367 l 67 383 l 83 400 l 100 383 l 117 400 l 133 383 l 117 367 l 133 350 l 117 333 l 100 350 l 83 333 m 83 400 l 67 417 l 83 433 l 67 450 l 83 467 l 100 450 l 117 467 l 133 450 l 117 433 l 133 417 l 117 400 l 100 417 l 83 400 m 150 333 l 133 350 l 150 367 l 133 383 l 150 400 l 167 383 l 183 400 l 200 383 l 183 367 l 200 350 l 183 333 l 167 350 l 150 333 m 150 400 l 133 417 l 150 433 l 133 450 l 150 467 l 167 450 l 183 467 l 200 450 l 183 433 l 200 417 l 183 400 l 167 417 l 150 400 m 150 267 l 133 283 l 150 300 l 133 317 l 150 333 l 167 317 l 183 333 l 200 317 l 183 300 l 200 283 l 183 267 l 167 283 l 150 267 m 83 267 l 67 283 l 83 300 l 67 317 l 83 333 l 100 317 l 117 333 l 133 317 l 117 300 l 133 283 l 117 267 l 100 283 l 83 267 m 150 467 l 133 483 l 150 500 l 133 517 l 150 533 l 167 517 l 183 533 l 200 517 l 183 500 l 200 483 l 183 467 l 167 483 l 150 467 m 83 467 l 67 483 l 83 500 l 67 517 l 83 533 l 100 517 l 117 533 l 133 517 l 117 500 l 133 483 l 117 467 l 100 483 l 83 467 m 17 467 l 0 483 l 17 500 l 0 517 l 17 533 l 33 517 l 50 533 l 67 517 l 50 500 l 67 483 l 50 467 l 33 483 l 17 467 m 83 533 l 67 550 l 83 567 l 67 583 l 83 600 l 100 583 l 117 600 l 133 583 l 117 567 l 133 550 l 117 533 l 100 550 l 83 533 m 150 533 l 133 550 l 150 567 l 133 583 l 150 600 l 167 583 l 183 600 l 200 583 l 183 567 l 200 550 l 183 533 l 167 550 l 150 533 m 150 600 l 133 617 l 150 633 l 133 650 l 150 667 l 167 650 l 183 667 l 200 650 l 183 633 l 200 617 l 183 600 l 167 617 l 150 600 m 467 217 l 483 233 l 467 250 l 483 267 l 500 250 l 517 267 l 533 250 l 517 233 l 533 217 l 517 200 l 500 217 l 483 200 l 467 217 m 400 217 l 417 233 l 400 250 l 417 267 l 433 250 l 450 267 l 467 250 l 450 233 l 467 217 l 450 200 l 433 217 l 417 200 l 400 217 m 400 350 l 417 367 l 400 383 l 417 400 l 433 383 l 450 400 l 467 383 l 450 367 l 467 350 l 450 333 l 433 350 l 417 333 l 400 350 m 400 417 l 417 433 l 400 450 l 417 467 l 433 450 l 450 467 l 467 450 l 450 433 l 467 417 l 450 400 l 433 417 l 417 400 l 400 417 m 467 350 l 483 367 l 467 383 l 483 400 l 500 383 l 517 400 l 533 383 l 517 367 l 533 350 l 517 333 l 500 350 l 483 333 l 467 350 m 467 417 l 483 433 l 467 450 l 483 467 l 500 450 l 517 467 l 533 450 l 517 433 l 533 417 l 517 400 l 500 417 l 483 400 l 467 417 m 467 283 l 483 300 l 467 317 l 483 333 l 500 317 l 517 333 l 533 317 l 517 300 l 533 283 l 517 267 l 500 283 l 483 267 l 467 283 m 400 283 l 417 300 l 400 317 l 417 333 l 433 317 l 450 333 l 467 317 l 450 300 l 467 283 l 450 267 l 433 283 l 417 267 l 400 283 m 733 217 l 750 233 l 733 250 l 750 267 l 767 250 l 783 267 l 800 250 l 783 233 l 800 217 l 783 200 l 767 217 l 750 200 l 733 217 m 800 217 l 817 233 l 800 250 l 817 267 l 833 250 l 850 267 l 867 250 l 850 233 l 867 217 l 850 200 l 833 217 l 817 200 l 800 217 m 800 283 l 817 300 l 800 317 l 817 333 l 833 317 l 850 333 l 867 317 l 850 300 l 867 283 l 850 267 l 833 283 l 817 267 l 800 283 m 733 283 l 750 300 l 733 317 l 750 333 l 767 317 l 783 333 l 800 317 l 783 300 l 800 283 l 783 267 l 767 283 l 750 267 l 733 283 m 800 350 l 817 367 l 800 383 l 817 400 l 833 383 l 850 400 l 867 383 l 850 367 l 867 350 l 850 333 l 833 350 l 817 333 l 800 350 m 733 350 l 750 367 l 733 383 l 750 400 l 767 383 l 783 400 l 800 383 l 783 367 l 800 350 l 783 333 l 767 350 l 750 333 l 733 350 m 733 417 l 750 433 l 733 450 l 750 467 l 767 450 l 783 467 l 800 450 l 783 433 l 800 417 l 783 400 l 767 417 l 750 400 l 733 417 m 800 417 l 817 433 l 800 450 l 817 467 l 833 450 l 850 467 l 867 450 l 850 433 l 867 417 l 850 400 l 833 417 l 817 400 l 800 417 m 800 483 l 817 500 l 800 517 l 817 533 l 833 517 l 850 533 l 867 517 l 850 500 l 867 483 l 850 467 l 833 483 l 817 467 l 800 483 m 733 483 l 750 500 l 733 517 l 750 533 l 767 517 l 783 533 l 800 517 l 783 500 l 800 483 l 783 467 l 767 483 l 750 467 l 733 483 m 733 550 l 750 567 l 733 583 l 750 600 l 767 583 l 783 600 l 800 583 l 783 567 l 800 550 l 783 533 l 767 550 l 750 533 l 733 550 m 800 550 l 817 567 l 800 583 l 817 600 l 833 583 l 850 600 l 867 583 l 850 567 l 867 550 l 850 533 l 833 550 l 817 533 l 800 550 m 733 617 l 750 633 l 733 650 l 750 667 l 767 650 l 783 667 l 800 650 l 783 633 l 800 617 l 783 600 l 767 617 l 750 600 l 733 617 m 467 483 l 483 500 l 467 517 l 483 533 l 500 517 l 517 533 l 533 517 l 517 500 l 533 483 l 517 467 l 500 483 l 483 467 l 467 483 m 400 483 l 417 500 l 400 517 l 417 533 l 433 517 l 450 533 l 467 517 l 450 500 l 467 483 l 450 467 l 433 483 l 417 467 l 400 483 m 333 483 l 350 500 l 333 517 l 350 533 l 367 517 l 383 533 l 400 517 l 383 500 l 400 483 l 383 467 l 367 483 l 350 467 l 333 483 m 400 550 l 417 567 l 400 583 l 417 600 l 433 583 l 450 600 l 467 583 l 450 567 l 467 550 l 450 533 l 433 550 l 417 533 l 400 550 m 467 550 l 483 567 l 467 583 l 483 600 l 500 583 l 517 600 l 533 583 l 517 567 l 533 550 l 517 533 l 500 550 l 483 533 l 467 550 m 467 617 l 483 633 l 467 650 l 483 667 l 500 650 l 517 667 l 533 650 l 517 633 l 533 617 l 517 600 l 500 617 l 483 600 l 467 617 m 667 150 l 683 167 l 667 183 l 683 200 l 700 183 l 717 200 l 733 183 l 717 167 l 733 150 l 717 133 l 700 150 l 683 133 l 667 150 m 733 150 l 750 167 l 733 183 l 750 200 l 767 183 l 783 200 l 800 183 l 783 167 l 800 150 l 783 133 l 767 150 l 750 133 l 733 150 m 600 83 l 617 100 l 600 117 l 617 133 l 633 117 l 650 133 l 667 117 l 650 100 l 667 83 l 650 67 l 633 83 l 617 67 l 600 83 m 600 17 l 617 33 l 600 50 l 617 67 l 633 50 l 650 67 l 667 50 l 650 33 l 667 17 l 650 0 l 633 17 l 617 0 l 600 17 m 533 83 l 550 100 l 533 117 l 550 133 l 567 117 l 583 133 l 600 117 l 583 100 l 600 83 l 583 67 l 567 83 l 550 67 l 533 83 m 667 83 l 683 100 l 667 117 l 683 133 l 700 117 l 717 133 l 733 117 l 717 100 l 733 83 l 717 67 l 700 83 l 683 67 l 667 83 m 533 150 l 550 167 l 533 183 l 550 200 l 567 183 l 583 200 l 600 183 l 583 167 l 600 150 l 583 133 l 567 150 l 550 133 l 533 150 m 467 150 l 483 167 l 467 183 l 483 200 l 500 183 l 517 200 l 533 183 l 517 167 l 533 150 l 517 133 l 500 150 l 483 133 l 467 150 m 667 550 l 683 567 l 667 583 l 683 600 l 700 583 l 717 600 l 733 583 l 717 567 l 733 550 l 717 533 l 700 550 l 683 533 l 667 550 m 600 483 l 617 500 l 600 517 l 617 533 l 633 517 l 650 533 l 667 517 l 650 500 l 667 483 l 650 467 l 633 483 l 617 467 l 600 483 z "},"y":{"ha":600,"x_min":0,"x_max":533,"o":"m 333 150 l 350 167 l 333 183 l 350 200 l 367 183 l 383 200 l 400 183 l 383 167 l 400 150 l 383 133 l 367 150 l 350 133 l 333 150 m 267 83 l 283 100 l 267 117 l 283 133 l 300 117 l 317 133 l 333 117 l 317 100 l 333 83 l 317 67 l 300 83 l 283 67 l 267 83 m 200 17 l 217 33 l 200 50 l 217 67 l 233 50 l 250 67 l 267 50 l 250 33 l 267 17 l 250 0 l 233 17 l 217 0 l 200 17 m 133 83 l 150 100 l 133 117 l 150 133 l 167 117 l 183 133 l 200 117 l 183 100 l 200 83 l 183 67 l 167 83 l 150 67 l 133 83 m 200 83 l 217 100 l 200 117 l 217 133 l 233 117 l 250 133 l 267 117 l 250 100 l 267 83 l 250 67 l 233 83 l 217 67 l 200 83 m 67 150 l 83 167 l 67 183 l 83 200 l 100 183 l 117 200 l 133 183 l 117 167 l 133 150 l 117 133 l 100 150 l 83 133 l 67 150 m 133 150 l 150 167 l 133 183 l 150 200 l 167 183 l 183 200 l 200 183 l 183 167 l 200 150 l 183 133 l 167 150 l 150 133 l 133 150 m 133 217 l 150 233 l 133 250 l 150 267 l 167 250 l 183 267 l 200 250 l 183 233 l 200 217 l 183 200 l 167 217 l 150 200 l 133 217 m 67 217 l 83 233 l 67 250 l 83 267 l 100 250 l 117 267 l 133 250 l 117 233 l 133 217 l 117 200 l 100 217 l 83 200 l 67 217 m 67 350 l 83 367 l 67 383 l 83 400 l 100 383 l 117 400 l 133 383 l 117 367 l 133 350 l 117 333 l 100 350 l 83 333 l 67 350 m 67 417 l 83 433 l 67 450 l 83 467 l 100 450 l 117 467 l 133 450 l 117 433 l 133 417 l 117 400 l 100 417 l 83 400 l 67 417 m 133 350 l 150 367 l 133 383 l 150 400 l 167 383 l 183 400 l 200 383 l 183 367 l 200 350 l 183 333 l 167 350 l 150 333 l 133 350 m 133 417 l 150 433 l 133 450 l 150 467 l 167 450 l 183 467 l 200 450 l 183 433 l 200 417 l 183 400 l 167 417 l 150 400 l 133 417 m 133 283 l 150 300 l 133 317 l 150 333 l 167 317 l 183 333 l 200 317 l 183 300 l 200 283 l 183 267 l 167 283 l 150 267 l 133 283 m 67 283 l 83 300 l 67 317 l 83 333 l 100 317 l 117 333 l 133 317 l 117 300 l 133 283 l 117 267 l 100 283 l 83 267 l 67 283 m 400 83 l 417 100 l 400 117 l 417 133 l 433 117 l 450 133 l 467 117 l 450 100 l 467 83 l 450 67 l 433 83 l 417 67 l 400 83 m 467 83 l 483 100 l 467 117 l 483 133 l 500 117 l 517 133 l 533 117 l 517 100 l 533 83 l 517 67 l 500 83 l 483 67 l 467 83 m 467 17 l 483 33 l 467 50 l 483 67 l 500 50 l 517 67 l 533 50 l 517 33 l 533 17 l 517 0 l 500 17 l 483 0 l 467 17 m 400 17 l 417 33 l 400 50 l 417 67 l 433 50 l 450 67 l 467 50 l 450 33 l 467 17 l 450 0 l 433 17 l 417 0 l 400 17 m 400 150 l 417 167 l 400 183 l 417 200 l 433 183 l 450 200 l 467 183 l 450 167 l 467 150 l 450 133 l 433 150 l 417 133 l 400 150 m 467 150 l 483 167 l 467 183 l 483 200 l 500 183 l 517 200 l 533 183 l 517 167 l 533 150 l 517 133 l 500 150 l 483 133 l 467 150 m 400 217 l 417 233 l 400 250 l 417 267 l 433 250 l 450 267 l 467 250 l 450 233 l 467 217 l 450 200 l 433 217 l 417 200 l 400 217 m 467 217 l 483 233 l 467 250 l 483 267 l 500 250 l 517 267 l 533 250 l 517 233 l 533 217 l 517 200 l 500 217 l 483 200 l 467 217 m 467 283 l 483 300 l 467 317 l 483 333 l 500 317 l 517 333 l 533 317 l 517 300 l 533 283 l 517 267 l 500 283 l 483 267 l 467 283 m 400 283 l 417 300 l 400 317 l 417 333 l 433 317 l 450 333 l 467 317 l 450 300 l 467 283 l 450 267 l 433 283 l 417 267 l 400 283 m 467 350 l 483 367 l 467 383 l 483 400 l 500 383 l 517 400 l 533 383 l 517 367 l 533 350 l 517 333 l 500 350 l 483 333 l 467 350 m 400 350 l 417 367 l 400 383 l 417 400 l 433 383 l 450 400 l 467 383 l 450 367 l 467 350 l 450 333 l 433 350 l 417 333 l 400 350 m 400 417 l 417 433 l 400 450 l 417 467 l 433 450 l 450 467 l 467 450 l 450 433 l 467 417 l 450 400 l 433 417 l 417 400 l 400 417 m 467 417 l 483 433 l 467 450 l 483 467 l 500 450 l 517 467 l 533 450 l 517 433 l 533 417 l 517 400 l 500 417 l 483 400 l 467 417 m 467 483 l 483 500 l 467 517 l 483 533 l 500 517 l 517 533 l 533 517 l 517 500 l 533 483 l 517 467 l 500 483 l 483 467 l 467 483 m 400 483 l 417 500 l 400 517 l 417 533 l 433 517 l 450 533 l 467 517 l 450 500 l 467 483 l 450 467 l 433 483 l 417 467 l 400 483 m 400 550 l 417 567 l 400 583 l 417 600 l 433 583 l 450 600 l 467 583 l 450 567 l 467 550 l 450 533 l 433 550 l 417 533 l 400 550 m 467 550 l 483 567 l 467 583 l 483 600 l 500 583 l 517 600 l 533 583 l 517 567 l 533 550 l 517 533 l 500 550 l 483 533 l 467 550 m 467 617 l 483 633 l 467 650 l 483 667 l 500 650 l 517 667 l 533 650 l 517 633 l 533 617 l 517 600 l 500 617 l 483 600 l 467 617 m 133 483 l 150 500 l 133 517 l 150 533 l 167 517 l 183 533 l 200 517 l 183 500 l 200 483 l 183 467 l 167 483 l 150 467 l 133 483 m 67 483 l 83 500 l 67 517 l 83 533 l 100 517 l 117 533 l 133 517 l 117 500 l 133 483 l 117 467 l 100 483 l 83 467 l 67 483 m 0 483 l 17 500 l 0 517 l 17 533 l 33 517 l 50 533 l 67 517 l 50 500 l 67 483 l 50 467 l 33 483 l 17 467 l 0 483 m 67 550 l 83 567 l 67 583 l 83 600 l 100 583 l 117 600 l 133 583 l 117 567 l 133 550 l 117 533 l 100 550 l 83 533 l 67 550 m 133 550 l 150 567 l 133 583 l 150 600 l 167 583 l 183 600 l 200 583 l 183 567 l 200 550 l 183 533 l 167 550 l 150 533 l 133 550 m 133 617 l 150 633 l 133 650 l 150 667 l 167 650 l 183 667 l 200 650 l 183 633 l 200 617 l 183 600 l 167 617 l 150 600 l 133 617 m 533 -83 l 517 -100 l 533 -117 l 517 -133 l 500 -117 l 483 -133 l 467 -117 l 483 -100 l 467 -83 l 483 -67 l 500 -83 l 517 -67 l 533 -83 m 467 -150 l 450 -167 l 467 -183 l 450 -200 l 433 -183 l 417 -200 l 400 -183 l 417 -167 l 400 -150 l 417 -133 l 433 -150 l 450 -133 l 467 -150 m 400 -217 l 383 -233 l 400 -250 l 383 -267 l 367 -250 l 350 -267 l 333 -250 l 350 -233 l 333 -217 l 350 -200 l 367 -217 l 383 -200 l 400 -217 m 333 -217 l 317 -233 l 333 -250 l 317 -267 l 300 -250 l 283 -267 l 267 -250 l 283 -233 l 267 -217 l 283 -200 l 300 -217 l 317 -200 l 333 -217 m 267 -217 l 250 -233 l 267 -250 l 250 -267 l 233 -250 l 217 -267 l 200 -250 l 217 -233 l 200 -217 l 217 -200 l 233 -217 l 250 -200 l 267 -217 m 333 -150 l 317 -167 l 333 -183 l 317 -200 l 300 -183 l 283 -200 l 267 -183 l 283 -167 l 267 -150 l 283 -133 l 300 -150 l 317 -133 l 333 -150 m 267 -150 l 250 -167 l 267 -183 l 250 -200 l 233 -183 l 217 -200 l 200 -183 l 217 -167 l 200 -150 l 217 -133 l 233 -150 l 250 -133 l 267 -150 m 200 -150 l 183 -167 l 200 -183 l 183 -200 l 167 -183 l 150 -200 l 133 -183 l 150 -167 l 133 -150 l 150 -133 l 167 -150 l 183 -133 l 200 -150 m 200 -83 l 183 -100 l 200 -117 l 183 -133 l 167 -117 l 150 -133 l 133 -117 l 150 -100 l 133 -83 l 150 -67 l 167 -83 l 183 -67 l 200 -83 m 133 -83 l 117 -100 l 133 -117 l 117 -133 l 100 -117 l 83 -133 l 67 -117 l 83 -100 l 67 -83 l 83 -67 l 100 -83 l 117 -67 l 133 -83 m 267 -83 l 250 -100 l 267 -117 l 250 -133 l 233 -117 l 217 -133 l 200 -117 l 217 -100 l 200 -83 l 217 -67 l 233 -83 l 250 -67 l 267 -83 m 533 -17 l 517 -33 l 533 -50 l 517 -67 l 500 -50 l 483 -67 l 467 -50 l 483 -33 l 467 -17 l 483 0 l 500 -17 l 517 0 l 533 -17 m 467 -17 l 450 -33 l 467 -50 l 450 -67 l 433 -50 l 417 -67 l 400 -50 l 417 -33 l 400 -17 l 417 0 l 433 -17 l 450 0 l 467 -17 z "},"z":{"ha":668,"x_min":68,"x_max":668,"o":"m 385 600 l 401 583 l 385 567 l 401 550 l 385 533 l 368 550 l 351 533 l 335 550 l 351 567 l 335 583 l 351 600 l 368 583 l 385 600 m 451 600 l 468 583 l 451 567 l 468 550 l 451 533 l 435 550 l 418 533 l 401 550 l 418 567 l 401 583 l 418 600 l 435 583 l 451 600 m 585 600 l 601 583 l 585 567 l 601 550 l 585 533 l 568 550 l 551 533 l 535 550 l 551 567 l 535 583 l 551 600 l 568 583 l 585 600 m 518 533 l 535 517 l 518 500 l 535 483 l 518 467 l 501 483 l 485 467 l 468 483 l 485 500 l 468 517 l 485 533 l 501 517 l 518 533 m 451 467 l 468 450 l 451 433 l 468 417 l 451 400 l 435 417 l 418 400 l 401 417 l 418 433 l 401 450 l 418 467 l 435 450 l 451 467 m 518 467 l 535 450 l 518 433 l 535 417 l 518 400 l 501 417 l 485 400 l 468 417 l 485 433 l 468 450 l 485 467 l 501 450 l 518 467 m 385 400 l 401 383 l 385 367 l 401 350 l 385 333 l 368 350 l 351 333 l 335 350 l 351 367 l 335 383 l 351 400 l 368 383 l 385 400 m 451 400 l 468 383 l 451 367 l 468 350 l 451 333 l 435 350 l 418 333 l 401 350 l 418 367 l 401 383 l 418 400 l 435 383 l 451 400 m 118 533 l 135 517 l 118 500 l 135 483 l 118 467 l 101 483 l 85 467 l 68 483 l 85 500 l 68 517 l 85 533 l 101 517 l 118 533 m 385 333 l 401 317 l 385 300 l 401 283 l 385 267 l 368 283 l 351 267 l 335 283 l 351 300 l 335 317 l 351 333 l 368 317 l 385 333 m 185 200 l 201 183 l 185 167 l 201 150 l 185 133 l 168 150 l 151 133 l 135 150 l 151 167 l 135 183 l 151 200 l 168 183 l 185 200 m 185 133 l 201 117 l 185 100 l 201 83 l 185 67 l 168 83 l 151 67 l 135 83 l 151 100 l 135 117 l 151 133 l 168 117 l 185 133 m 118 67 l 135 50 l 118 33 l 135 17 l 118 0 l 101 17 l 85 0 l 68 17 l 85 33 l 68 50 l 85 67 l 101 50 l 118 67 m 118 133 l 135 117 l 118 100 l 135 83 l 118 67 l 101 83 l 85 67 l 68 83 l 85 100 l 68 117 l 85 133 l 101 117 l 118 133 m 251 133 l 268 117 l 251 100 l 268 83 l 251 67 l 235 83 l 218 67 l 201 83 l 218 100 l 201 117 l 218 133 l 235 117 l 251 133 m 251 200 l 268 183 l 251 167 l 268 150 l 251 133 l 235 150 l 218 133 l 201 150 l 218 167 l 201 183 l 218 200 l 235 183 l 251 200 m 318 133 l 335 117 l 318 100 l 335 83 l 318 67 l 301 83 l 285 67 l 268 83 l 285 100 l 268 117 l 285 133 l 301 117 l 318 133 m 451 133 l 468 117 l 451 100 l 468 83 l 451 67 l 435 83 l 418 67 l 401 83 l 418 100 l 401 117 l 418 133 l 435 117 l 451 133 m 385 67 l 401 50 l 385 33 l 401 17 l 385 0 l 368 17 l 351 0 l 335 17 l 351 33 l 335 50 l 351 67 l 368 50 l 385 67 m 518 133 l 535 117 l 518 100 l 535 83 l 518 67 l 501 83 l 485 67 l 468 83 l 485 100 l 468 117 l 485 133 l 501 117 l 518 133 m 518 200 l 535 183 l 518 167 l 535 150 l 518 133 l 501 150 l 485 133 l 468 150 l 485 167 l 468 183 l 485 200 l 501 183 l 518 200 m 318 333 l 335 317 l 318 300 l 335 283 l 318 267 l 301 283 l 285 267 l 268 283 l 285 300 l 268 317 l 285 333 l 301 317 l 318 333 m 451 67 l 468 50 l 451 33 l 468 17 l 451 0 l 435 17 l 418 0 l 401 17 l 418 33 l 401 50 l 418 67 l 435 50 l 451 67 m 585 200 l 601 183 l 585 167 l 601 150 l 585 133 l 568 150 l 551 133 l 535 150 l 551 167 l 535 183 l 551 200 l 568 183 l 585 200 m 251 267 l 268 250 l 251 233 l 268 217 l 251 200 l 235 217 l 218 200 l 201 217 l 218 233 l 201 250 l 218 267 l 235 250 l 251 267 m 318 267 l 335 250 l 318 233 l 335 217 l 318 200 l 301 217 l 285 200 l 268 217 l 285 233 l 268 250 l 285 267 l 301 250 l 318 267 m 318 600 l 335 583 l 318 567 l 335 550 l 318 533 l 301 550 l 285 533 l 268 550 l 285 567 l 268 583 l 285 600 l 301 583 l 318 600 m 251 600 l 268 583 l 251 567 l 268 550 l 251 533 l 235 550 l 218 533 l 201 550 l 218 567 l 201 583 l 218 600 l 235 583 l 251 600 m 585 533 l 601 517 l 585 500 l 601 483 l 585 467 l 568 483 l 551 467 l 535 483 l 551 500 l 535 517 l 551 533 l 568 517 l 585 533 m 518 600 l 535 583 l 518 567 l 535 550 l 518 533 l 501 550 l 485 533 l 468 550 l 485 567 l 468 583 l 485 600 l 501 583 l 518 600 m 385 667 l 401 650 l 385 633 l 401 617 l 385 600 l 368 617 l 351 600 l 335 617 l 351 633 l 335 650 l 351 667 l 368 650 l 385 667 m 251 667 l 268 650 l 251 633 l 268 617 l 251 600 l 235 617 l 218 600 l 201 617 l 218 633 l 201 650 l 218 667 l 235 650 l 251 667 m 535 50 l 518 33 l 535 17 l 518 0 l 501 17 l 485 0 l 468 17 l 485 33 l 468 50 l 485 67 l 501 50 l 518 67 l 535 50 m 601 117 l 585 100 l 601 83 l 585 67 l 568 83 l 551 67 l 535 83 l 551 100 l 535 117 l 551 133 l 568 117 l 585 133 l 601 117 m 668 183 l 651 167 l 668 150 l 651 133 l 635 150 l 618 133 l 601 150 l 618 167 l 601 183 l 618 200 l 635 183 l 651 200 l 668 183 m 335 650 l 318 633 l 335 617 l 318 600 l 301 617 l 285 600 l 268 617 l 285 633 l 268 650 l 285 667 l 301 650 l 318 667 l 335 650 m 201 583 l 185 567 l 201 550 l 185 533 l 168 550 l 151 533 l 135 550 l 151 567 l 135 583 l 151 600 l 168 583 l 185 600 l 201 583 m 668 650 l 651 633 l 668 617 l 651 600 l 635 617 l 618 600 l 601 617 l 618 633 l 601 650 l 618 667 l 635 650 l 651 667 l 668 650 z "},"d":{"ha":668,"x_min":67,"x_max":668,"o":"m 217 600 l 233 583 l 250 600 l 267 583 l 250 567 l 267 550 l 250 533 l 233 550 l 217 533 l 200 550 l 217 567 l 200 583 l 217 600 m 285 667 l 301 650 l 318 667 l 335 650 l 318 633 l 335 617 l 318 600 l 301 617 l 285 600 l 268 617 l 285 633 l 268 650 l 285 667 m 351 667 l 368 650 l 385 667 l 401 650 l 385 633 l 401 617 l 385 600 l 368 617 l 351 600 l 335 617 l 351 633 l 335 650 l 351 667 m 150 533 l 167 517 l 183 533 l 200 517 l 183 500 l 200 483 l 183 467 l 167 483 l 150 467 l 133 483 l 150 500 l 133 517 l 150 533 m 217 533 l 233 517 l 250 533 l 267 517 l 250 500 l 267 483 l 250 467 l 233 483 l 217 467 l 200 483 l 217 500 l 200 517 l 217 533 m 150 467 l 167 450 l 183 467 l 200 450 l 183 433 l 200 417 l 183 400 l 167 417 l 150 400 l 133 417 l 150 433 l 133 450 l 150 467 m 83 333 l 100 317 l 117 333 l 133 317 l 117 300 l 133 283 l 117 267 l 100 283 l 83 267 l 67 283 l 83 300 l 67 317 l 83 333 m 83 267 l 100 250 l 117 267 l 133 250 l 117 233 l 133 217 l 117 200 l 100 217 l 83 200 l 67 217 l 83 233 l 67 250 l 83 267 m 150 333 l 167 317 l 183 333 l 200 317 l 183 300 l 200 283 l 183 267 l 167 283 l 150 267 l 133 283 l 150 300 l 133 317 l 150 333 m 150 267 l 167 250 l 183 267 l 200 250 l 183 233 l 200 217 l 183 200 l 167 217 l 150 200 l 133 217 l 150 233 l 133 250 l 150 267 m 150 200 l 167 183 l 183 200 l 200 183 l 183 167 l 200 150 l 183 133 l 167 150 l 150 133 l 133 150 l 150 167 l 133 183 l 150 200 m 217 200 l 233 183 l 250 200 l 267 183 l 250 167 l 267 150 l 250 133 l 233 150 l 217 133 l 200 150 l 217 167 l 200 183 l 217 200 m 217 133 l 233 117 l 250 133 l 267 117 l 250 100 l 267 83 l 250 67 l 233 83 l 217 67 l 200 83 l 217 100 l 200 117 l 217 133 m 150 133 l 167 117 l 183 133 l 200 117 l 183 100 l 200 83 l 183 67 l 167 83 l 150 67 l 133 83 l 150 100 l 133 117 l 150 133 m 283 133 l 300 117 l 317 133 l 333 117 l 317 100 l 333 83 l 317 67 l 300 83 l 283 67 l 267 83 l 283 100 l 267 117 l 283 133 m 350 133 l 367 117 l 383 133 l 400 117 l 383 100 l 400 83 l 383 67 l 367 83 l 350 67 l 333 83 l 350 100 l 333 117 l 350 133 m 283 67 l 300 50 l 317 67 l 333 50 l 317 33 l 333 17 l 317 0 l 300 17 l 283 0 l 267 17 l 283 33 l 267 50 l 283 67 m 217 67 l 233 50 l 250 67 l 267 50 l 250 33 l 267 17 l 250 0 l 233 17 l 217 0 l 200 17 l 217 33 l 200 50 l 217 67 m 418 200 l 435 183 l 451 200 l 468 183 l 451 167 l 468 150 l 451 133 l 435 150 l 418 133 l 401 150 l 418 167 l 401 183 l 418 200 m 418 267 l 435 250 l 451 267 l 468 250 l 451 233 l 468 217 l 451 200 l 435 217 l 418 200 l 401 217 l 418 233 l 401 250 l 418 267 m 485 267 l 501 250 l 518 267 l 535 250 l 518 233 l 535 217 l 518 200 l 501 217 l 485 200 l 468 217 l 485 233 l 468 250 l 485 267 m 485 333 l 501 317 l 518 333 l 535 317 l 518 300 l 535 283 l 518 267 l 501 283 l 485 267 l 468 283 l 485 300 l 468 317 l 485 333 m 418 333 l 435 317 l 451 333 l 468 317 l 451 300 l 468 283 l 451 267 l 435 283 l 418 267 l 401 283 l 418 300 l 401 317 l 418 333 m 418 467 l 435 450 l 451 467 l 468 450 l 451 433 l 468 417 l 451 400 l 435 417 l 418 400 l 401 417 l 418 433 l 401 450 l 418 467 m 485 467 l 501 450 l 518 467 l 535 450 l 518 433 l 535 417 l 518 400 l 501 417 l 485 400 l 468 417 l 485 433 l 468 450 l 485 467 m 150 400 l 167 383 l 183 400 l 200 383 l 183 367 l 200 350 l 183 333 l 167 350 l 150 333 l 133 350 l 150 367 l 133 383 l 150 400 m 83 400 l 100 383 l 117 400 l 133 383 l 117 367 l 133 350 l 117 333 l 100 350 l 83 333 l 67 350 l 83 367 l 67 383 l 83 400 m 418 400 l 435 383 l 451 400 l 468 383 l 451 367 l 468 350 l 451 333 l 435 350 l 418 333 l 401 350 l 418 367 l 401 383 l 418 400 m 485 400 l 501 383 l 518 400 l 535 383 l 518 367 l 535 350 l 518 333 l 501 350 l 485 333 l 468 350 l 485 367 l 468 383 l 485 400 m 418 533 l 435 517 l 451 533 l 468 517 l 451 500 l 468 483 l 451 467 l 435 483 l 418 467 l 401 483 l 418 500 l 401 517 l 418 533 m 418 600 l 435 583 l 451 600 l 468 583 l 451 567 l 468 550 l 451 533 l 435 550 l 418 533 l 401 550 l 418 567 l 401 583 l 418 600 m 468 917 l 451 900 l 468 883 l 451 867 l 435 883 l 418 867 l 401 883 l 418 900 l 401 917 l 418 933 l 435 917 l 451 933 l 468 917 m 535 917 l 518 900 l 535 883 l 518 867 l 501 883 l 485 867 l 468 883 l 485 900 l 468 917 l 485 933 l 501 917 l 518 933 l 535 917 m 535 983 l 518 967 l 535 950 l 518 933 l 501 950 l 485 933 l 468 950 l 485 967 l 468 983 l 485 1000 l 501 983 l 518 1000 l 535 983 m 535 850 l 518 833 l 535 817 l 518 800 l 501 817 l 485 800 l 468 817 l 485 833 l 468 850 l 485 867 l 501 850 l 518 867 l 535 850 m 468 850 l 451 833 l 468 817 l 451 800 l 435 817 l 418 800 l 401 817 l 418 833 l 401 850 l 418 867 l 435 850 l 451 867 l 468 850 m 401 850 l 385 833 l 401 817 l 385 800 l 368 817 l 351 800 l 335 817 l 351 833 l 335 850 l 351 867 l 368 850 l 385 867 l 401 850 m 468 783 l 451 767 l 468 750 l 451 733 l 435 750 l 418 733 l 401 750 l 418 767 l 401 783 l 418 800 l 435 783 l 451 800 l 468 783 m 535 783 l 518 767 l 535 750 l 518 733 l 501 750 l 485 733 l 468 750 l 485 767 l 468 783 l 485 800 l 501 783 l 518 800 l 535 783 m 485 733 l 501 717 l 518 733 l 535 717 l 518 700 l 535 683 l 518 667 l 501 683 l 485 667 l 468 683 l 485 700 l 468 717 l 485 733 m 418 733 l 435 717 l 451 733 l 468 717 l 451 700 l 468 683 l 451 667 l 435 683 l 418 667 l 401 683 l 418 700 l 401 717 l 418 733 m 418 667 l 435 650 l 451 667 l 468 650 l 451 633 l 468 617 l 451 600 l 435 617 l 418 600 l 401 617 l 418 633 l 401 650 l 418 667 m 485 667 l 501 650 l 518 667 l 535 650 l 518 633 l 535 617 l 518 600 l 501 617 l 485 600 l 468 617 l 485 633 l 468 650 l 485 667 m 485 600 l 501 583 l 518 600 l 535 583 l 518 567 l 535 550 l 518 533 l 501 550 l 485 533 l 468 550 l 485 567 l 468 583 l 485 600 m 485 533 l 501 517 l 518 533 l 535 517 l 518 500 l 535 483 l 518 467 l 501 483 l 485 467 l 468 483 l 485 500 l 468 517 l 485 533 m 601 49 l 585 32 l 601 15 l 585 0 l 568 17 l 551 0 l 535 15 l 551 32 l 535 49 l 551 65 l 568 49 l 585 65 l 601 49 m 535 117 l 518 100 l 535 83 l 518 67 l 501 83 l 485 67 l 468 83 l 485 100 l 468 117 l 485 133 l 501 117 l 518 133 l 535 117 m 535 183 l 518 167 l 535 150 l 518 133 l 501 150 l 485 133 l 468 150 l 485 167 l 468 183 l 485 200 l 501 183 l 518 200 l 535 183 m 668 183 l 651 167 l 668 150 l 651 133 l 635 150 l 618 133 l 601 150 l 618 167 l 601 183 l 618 200 l 635 183 l 651 200 l 668 183 m 601 117 l 585 100 l 601 83 l 585 67 l 568 83 l 551 67 l 535 83 l 551 100 l 535 117 l 551 133 l 568 117 l 585 133 l 601 117 m 668 117 l 651 100 l 668 83 l 651 67 l 635 83 l 618 67 l 601 83 l 618 100 l 601 117 l 618 133 l 635 117 l 651 133 l 668 117 z "},"a":{"ha":600,"x_min":67,"x_max":600,"o":"m 533 117 l 517 100 l 533 83 l 517 67 l 500 83 l 483 67 l 467 83 l 483 100 l 467 117 l 483 133 l 500 117 l 517 133 l 533 117 m 467 117 l 450 100 l 467 83 l 450 67 l 433 83 l 417 67 l 400 83 l 417 100 l 400 117 l 417 133 l 433 117 l 450 133 l 467 117 m 467 183 l 450 167 l 467 150 l 450 133 l 433 150 l 417 133 l 400 150 l 417 167 l 400 183 l 417 200 l 433 183 l 450 200 l 467 183 m 467 250 l 450 233 l 467 217 l 450 200 l 433 217 l 417 200 l 400 217 l 417 233 l 400 250 l 417 267 l 433 250 l 450 267 l 467 250 m 467 317 l 450 300 l 467 283 l 450 267 l 433 283 l 417 267 l 400 283 l 417 300 l 400 317 l 417 333 l 433 317 l 450 333 l 467 317 m 400 250 l 383 233 l 400 217 l 383 200 l 367 217 l 350 200 l 333 217 l 350 233 l 333 250 l 350 267 l 367 250 l 383 267 l 400 250 m 400 317 l 383 300 l 400 283 l 383 267 l 367 283 l 350 267 l 333 283 l 350 300 l 333 317 l 350 333 l 367 317 l 383 333 l 400 317 m 400 383 l 383 367 l 400 350 l 383 333 l 367 350 l 350 333 l 333 350 l 350 367 l 333 383 l 350 400 l 367 383 l 383 400 l 400 383 m 467 383 l 450 367 l 467 350 l 450 333 l 433 350 l 417 333 l 400 350 l 417 367 l 400 383 l 417 400 l 433 383 l 450 400 l 467 383 m 467 450 l 450 433 l 467 417 l 450 400 l 433 417 l 417 400 l 400 417 l 417 433 l 400 450 l 417 467 l 433 450 l 450 467 l 467 450 m 467 517 l 450 500 l 467 483 l 450 467 l 433 483 l 417 467 l 400 483 l 417 500 l 400 517 l 417 533 l 433 517 l 450 533 l 467 517 m 467 583 l 450 567 l 467 550 l 450 533 l 433 550 l 417 533 l 400 550 l 417 567 l 400 583 l 417 600 l 433 583 l 450 600 l 467 583 m 533 650 l 517 633 l 533 617 l 517 600 l 500 617 l 483 600 l 467 617 l 483 633 l 467 650 l 483 667 l 500 650 l 517 667 l 533 650 m 467 650 l 450 633 l 467 617 l 450 600 l 433 617 l 417 600 l 400 617 l 417 633 l 400 650 l 417 667 l 433 650 l 450 667 l 467 650 m 400 650 l 383 633 l 400 617 l 383 600 l 367 617 l 350 600 l 333 617 l 350 633 l 333 650 l 350 667 l 367 650 l 383 667 l 400 650 m 333 650 l 317 633 l 333 617 l 317 600 l 300 617 l 283 600 l 267 617 l 283 633 l 267 650 l 283 667 l 300 650 l 317 667 l 333 650 m 267 583 l 250 567 l 267 550 l 250 533 l 233 550 l 217 533 l 200 550 l 217 567 l 200 583 l 217 600 l 233 583 l 250 600 l 267 583 m 267 517 l 250 500 l 267 483 l 250 467 l 233 483 l 217 467 l 200 483 l 217 500 l 200 517 l 217 533 l 233 517 l 250 533 l 267 517 m 200 517 l 183 500 l 200 483 l 183 467 l 167 483 l 150 467 l 133 483 l 150 500 l 133 517 l 150 533 l 167 517 l 183 533 l 200 517 m 200 450 l 183 433 l 200 417 l 183 400 l 167 417 l 150 400 l 133 417 l 150 433 l 133 450 l 150 467 l 167 450 l 183 467 l 200 450 m 200 383 l 183 367 l 200 350 l 183 333 l 167 350 l 150 333 l 133 350 l 150 367 l 133 383 l 150 400 l 167 383 l 183 400 l 200 383 m 133 383 l 117 367 l 133 350 l 117 333 l 100 350 l 83 333 l 67 350 l 83 367 l 67 383 l 83 400 l 100 383 l 117 400 l 133 383 m 133 317 l 117 300 l 133 283 l 117 267 l 100 283 l 83 267 l 67 283 l 83 300 l 67 317 l 83 333 l 100 317 l 117 333 l 133 317 m 200 317 l 183 300 l 200 283 l 183 267 l 167 283 l 150 267 l 133 283 l 150 300 l 133 317 l 150 333 l 167 317 l 183 333 l 200 317 m 200 250 l 183 233 l 200 217 l 183 200 l 167 217 l 150 200 l 133 217 l 150 233 l 133 250 l 150 267 l 167 250 l 183 267 l 200 250 m 133 250 l 117 233 l 133 217 l 117 200 l 100 217 l 83 200 l 67 217 l 83 233 l 67 250 l 83 267 l 100 250 l 117 267 l 133 250 m 200 183 l 183 167 l 200 150 l 183 133 l 167 150 l 150 133 l 133 150 l 150 167 l 133 183 l 150 200 l 167 183 l 183 200 l 200 183 m 267 183 l 250 167 l 267 150 l 250 133 l 233 150 l 217 133 l 200 150 l 217 167 l 200 183 l 217 200 l 233 183 l 250 200 l 267 183 m 267 117 l 250 100 l 267 83 l 250 67 l 233 83 l 217 67 l 200 83 l 217 100 l 200 117 l 217 133 l 233 117 l 250 133 l 267 117 m 200 117 l 183 100 l 200 83 l 183 67 l 167 83 l 150 67 l 133 83 l 150 100 l 133 117 l 150 133 l 167 117 l 183 133 l 200 117 m 333 117 l 317 100 l 333 83 l 317 67 l 300 83 l 283 67 l 267 83 l 283 100 l 267 117 l 283 133 l 300 117 l 317 133 l 333 117 m 333 50 l 317 33 l 333 17 l 317 0 l 300 17 l 283 0 l 267 17 l 283 33 l 267 50 l 283 67 l 300 50 l 317 67 l 333 50 m 267 50 l 250 33 l 267 17 l 250 0 l 233 17 l 217 0 l 200 17 l 217 33 l 200 50 l 217 67 l 233 50 l 250 67 l 267 50 m 400 183 l 383 167 l 400 150 l 383 133 l 367 150 l 350 133 l 333 150 l 350 167 l 333 183 l 350 200 l 367 183 l 383 200 l 400 183 m 600 183 l 583 167 l 600 150 l 583 133 l 567 150 l 550 133 l 533 150 l 550 167 l 533 183 l 550 200 l 567 183 l 583 200 l 600 183 m 600 117 l 583 100 l 600 83 l 583 67 l 567 83 l 550 67 l 533 83 l 550 100 l 533 117 l 550 133 l 567 117 l 583 133 l 600 117 m 533 50 l 517 33 l 533 17 l 517 0 l 500 17 l 483 0 l 467 17 l 483 33 l 467 50 l 483 67 l 500 50 l 517 67 l 533 50 z "},"b":{"ha":600,"x_min":0,"x_max":533,"o":"m 267 517 l 250 500 l 267 483 l 250 467 l 233 483 l 217 467 l 200 483 l 217 500 l 200 517 l 217 533 l 233 517 l 250 533 l 267 517 m 333 583 l 317 567 l 333 550 l 317 533 l 300 550 l 283 533 l 267 550 l 283 567 l 267 583 l 283 600 l 300 583 l 317 600 l 333 583 m 400 650 l 383 633 l 400 617 l 383 600 l 367 617 l 350 600 l 333 617 l 350 633 l 333 650 l 350 667 l 367 650 l 383 667 l 400 650 m 467 583 l 450 567 l 467 550 l 450 533 l 433 550 l 417 533 l 400 550 l 417 567 l 400 583 l 417 600 l 433 583 l 450 600 l 467 583 m 400 583 l 383 567 l 400 550 l 383 533 l 367 550 l 350 533 l 333 550 l 350 567 l 333 583 l 350 600 l 367 583 l 383 600 l 400 583 m 533 517 l 517 500 l 533 483 l 517 467 l 500 483 l 483 467 l 467 483 l 483 500 l 467 517 l 483 533 l 500 517 l 517 533 l 533 517 m 467 517 l 450 500 l 467 483 l 450 467 l 433 483 l 417 467 l 400 483 l 417 500 l 400 517 l 417 533 l 433 517 l 450 533 l 467 517 m 467 450 l 450 433 l 467 417 l 450 400 l 433 417 l 417 400 l 400 417 l 417 433 l 400 450 l 417 467 l 433 450 l 450 467 l 467 450 m 533 450 l 517 433 l 533 417 l 517 400 l 500 417 l 483 400 l 467 417 l 483 433 l 467 450 l 483 467 l 500 450 l 517 467 l 533 450 m 533 317 l 517 300 l 533 283 l 517 267 l 500 283 l 483 267 l 467 283 l 483 300 l 467 317 l 483 333 l 500 317 l 517 333 l 533 317 m 533 250 l 517 233 l 533 217 l 517 200 l 500 217 l 483 200 l 467 217 l 483 233 l 467 250 l 483 267 l 500 250 l 517 267 l 533 250 m 467 317 l 450 300 l 467 283 l 450 267 l 433 283 l 417 267 l 400 283 l 417 300 l 400 317 l 417 333 l 433 317 l 450 333 l 467 317 m 467 250 l 450 233 l 467 217 l 450 200 l 433 217 l 417 200 l 400 217 l 417 233 l 400 250 l 417 267 l 433 250 l 450 267 l 467 250 m 467 183 l 450 167 l 467 150 l 450 133 l 433 150 l 417 133 l 400 150 l 417 167 l 400 183 l 417 200 l 433 183 l 450 200 l 467 183 m 400 117 l 383 100 l 400 83 l 383 67 l 367 83 l 350 67 l 333 83 l 350 100 l 333 117 l 350 133 l 367 117 l 383 133 l 400 117 m 333 117 l 317 100 l 333 83 l 317 67 l 300 83 l 283 67 l 267 83 l 283 100 l 267 117 l 283 133 l 300 117 l 317 133 l 333 117 m 267 117 l 250 100 l 267 83 l 250 67 l 233 83 l 217 67 l 200 83 l 217 100 l 200 117 l 217 133 l 233 117 l 250 133 l 267 117 m 267 50 l 250 33 l 267 17 l 250 0 l 233 17 l 217 0 l 200 17 l 217 33 l 200 50 l 217 67 l 233 50 l 250 67 l 267 50 m 333 50 l 317 33 l 333 17 l 317 0 l 300 17 l 283 0 l 267 17 l 283 33 l 267 50 l 283 67 l 300 50 l 317 67 l 333 50 m 200 117 l 183 100 l 200 83 l 183 67 l 167 83 l 150 67 l 133 83 l 150 100 l 133 117 l 150 133 l 167 117 l 183 133 l 200 117 m 200 183 l 183 167 l 200 150 l 183 133 l 167 150 l 150 133 l 133 150 l 150 167 l 133 183 l 150 200 l 167 183 l 183 200 l 200 183 m 267 183 l 250 167 l 267 150 l 250 133 l 233 150 l 217 133 l 200 150 l 217 167 l 200 183 l 217 200 l 233 183 l 250 200 l 267 183 m 200 250 l 183 233 l 200 217 l 183 200 l 167 217 l 150 200 l 133 217 l 150 233 l 133 250 l 150 267 l 167 250 l 183 267 l 200 250 m 133 250 l 117 233 l 133 217 l 117 200 l 100 217 l 83 200 l 67 217 l 83 233 l 67 250 l 83 267 l 100 250 l 117 267 l 133 250 m 133 317 l 117 300 l 133 283 l 117 267 l 100 283 l 83 267 l 67 283 l 83 300 l 67 317 l 83 333 l 100 317 l 117 333 l 133 317 m 200 317 l 183 300 l 200 283 l 183 267 l 167 283 l 150 267 l 133 283 l 150 300 l 133 317 l 150 333 l 167 317 l 183 333 l 200 317 m 200 450 l 183 433 l 200 417 l 183 400 l 167 417 l 150 400 l 133 417 l 150 433 l 133 450 l 150 467 l 167 450 l 183 467 l 200 450 m 133 450 l 117 433 l 133 417 l 117 400 l 100 417 l 83 400 l 67 417 l 83 433 l 67 450 l 83 467 l 100 450 l 117 467 l 133 450 m 467 383 l 450 367 l 467 350 l 450 333 l 433 350 l 417 333 l 400 350 l 417 367 l 400 383 l 417 400 l 433 383 l 450 400 l 467 383 m 533 383 l 517 367 l 533 350 l 517 333 l 500 350 l 483 333 l 467 350 l 483 367 l 467 383 l 483 400 l 500 383 l 517 400 l 533 383 m 200 383 l 183 367 l 200 350 l 183 333 l 167 350 l 150 333 l 133 350 l 150 367 l 133 383 l 150 400 l 167 383 l 183 400 l 200 383 m 133 383 l 117 367 l 133 350 l 117 333 l 100 350 l 83 333 l 67 350 l 83 367 l 67 383 l 83 400 l 100 383 l 117 400 l 133 383 m 200 517 l 183 500 l 200 483 l 183 467 l 167 483 l 150 467 l 133 483 l 150 500 l 133 517 l 150 533 l 167 517 l 183 533 l 200 517 m 200 583 l 183 567 l 200 550 l 183 533 l 167 550 l 150 533 l 133 550 l 150 567 l 133 583 l 150 600 l 167 583 l 183 600 l 200 583 m 133 917 l 117 900 l 133 883 l 117 867 l 100 883 l 83 867 l 67 883 l 83 900 l 67 917 l 83 933 l 100 917 l 117 933 l 133 917 m 200 917 l 183 900 l 200 883 l 183 867 l 167 883 l 150 867 l 133 883 l 150 900 l 133 917 l 150 933 l 167 917 l 183 933 l 200 917 m 200 983 l 183 967 l 200 950 l 183 933 l 167 950 l 150 933 l 133 950 l 150 967 l 133 983 l 150 1000 l 167 983 l 183 1000 l 200 983 m 200 850 l 183 833 l 200 817 l 183 800 l 167 817 l 150 800 l 133 817 l 150 833 l 133 850 l 150 867 l 167 850 l 183 867 l 200 850 m 133 850 l 117 833 l 133 817 l 117 800 l 100 817 l 83 800 l 67 817 l 83 833 l 67 850 l 83 867 l 100 850 l 117 867 l 133 850 m 67 850 l 50 833 l 67 817 l 50 800 l 33 817 l 17 800 l 0 817 l 17 833 l 0 850 l 17 867 l 33 850 l 50 867 l 67 850 m 133 783 l 117 767 l 133 750 l 117 733 l 100 750 l 83 733 l 67 750 l 83 767 l 67 783 l 83 800 l 100 783 l 117 800 l 133 783 m 200 783 l 183 767 l 200 750 l 183 733 l 167 750 l 150 733 l 133 750 l 150 767 l 133 783 l 150 800 l 167 783 l 183 800 l 200 783 m 133 717 l 117 700 l 133 683 l 117 667 l 100 683 l 83 667 l 67 683 l 83 700 l 67 717 l 83 733 l 100 717 l 117 733 l 133 717 m 200 717 l 183 700 l 200 683 l 183 667 l 167 683 l 150 667 l 133 683 l 150 700 l 133 717 l 150 733 l 167 717 l 183 733 l 200 717 m 200 650 l 183 633 l 200 617 l 183 600 l 167 617 l 150 600 l 133 617 l 150 633 l 133 650 l 150 667 l 167 650 l 183 667 l 200 650 m 133 650 l 117 633 l 133 617 l 117 600 l 100 617 l 83 600 l 67 617 l 83 633 l 67 650 l 83 667 l 100 650 l 117 667 l 133 650 m 133 583 l 117 567 l 133 550 l 117 533 l 100 550 l 83 533 l 67 550 l 83 567 l 67 583 l 83 600 l 100 583 l 117 600 l 133 583 m 133 517 l 117 500 l 133 483 l 117 467 l 100 483 l 83 467 l 67 483 l 83 500 l 67 517 l 83 533 l 100 517 l 117 533 l 133 517 z "}}}
